<svg width="66" height="89" viewBox="0 0 66 89" fill="none" xmlns="http://www.w3.org/2000/svg">
<path fill-rule="evenodd" clip-rule="evenodd" d="M50.8548 45.3831C54.0112 55.2851 55.6308 66.2315 52.9942 76.2773C52.0352 79.9326 50.3151 83.1578 48.5837 86.4756C48.4627 86.7084 48.1742 86.7993 47.9401 86.678C47.7063 86.5555 47.6154 86.267 47.7379 86.0332C49.4353 82.7793 51.1302 79.6197 52.0706 76.035C54.6698 66.1318 53.0411 55.341 49.9181 45.5862L49.7642 45.6221C48.0938 46.0169 45.928 45.1635 43.7837 43.5914C40.7097 41.3384 37.6479 37.6499 36.1549 34.5707C35.4844 33.1869 35.1325 31.9162 35.195 30.9354C35.2433 30.1706 35.5331 29.5618 36.0742 29.1518C37.2279 28.2788 38.8468 28.6252 40.5729 29.8196C44.1838 32.3167 48.4002 38.4355 49.5362 41.535C49.8906 42.503 50.2336 43.4842 50.5603 44.4764C50.856 44.415 51.1453 44.3536 51.4239 44.2812C52.217 44.0727 52.9339 43.7677 53.5259 43.0296C54.4472 41.8783 54.8564 40.3661 54.9799 38.7624C55.1708 36.2594 54.6572 33.5328 54.157 31.5021C51.3707 20.1931 44.0854 13.4687 36.3135 9.12715C28.4639 4.74392 20.1137 2.77663 15.3042 1.00579C15.0566 0.915198 14.931 0.640576 15.0216 0.393007C15.1122 0.145438 15.3871 0.0186349 15.6344 0.110464C20.4751 1.89234 28.8775 3.88108 36.779 8.29463C44.7582 12.7498 52.2234 19.6645 55.0846 31.2731C55.6058 33.3883 56.131 36.2284 55.932 38.8348C55.7934 40.639 55.3077 42.3312 54.2706 43.6267C53.3395 44.789 52.1727 45.0991 50.8548 45.3831ZM49.6207 44.675L49.5442 44.6937C48.0841 45.039 46.2233 44.1962 44.3485 42.8213C41.3947 40.6564 38.4496 37.1142 37.0147 34.1535C36.522 33.1387 36.2086 32.1976 36.1509 31.4115C36.1041 30.7629 36.2295 30.2316 36.6507 29.9139C37.0472 29.6119 37.5253 29.5532 38.0488 29.6592C38.6637 29.7826 39.3321 30.1221 40.0297 30.6041C43.4991 33.0039 47.5484 38.8849 48.6397 41.8634C48.9779 42.7887 49.3062 43.7261 49.6207 44.675Z" fill="#1D2D5A"/>
<path fill-rule="evenodd" clip-rule="evenodd" d="M47.2005 87.3815C47.3944 87.3792 47.6534 87.2967 47.9309 87.2047C48.5919 86.9863 49.3188 86.6344 49.6681 86.4825C49.8931 86.3852 50.1534 86.4894 50.2509 86.7132C50.3481 86.9382 50.2452 87.1987 50.0201 87.296C49.592 87.4816 48.6225 87.9487 47.8538 88.1526C47.4414 88.2616 47.0741 88.2891 46.8272 88.2207C46.4065 88.1051 46.2039 87.7164 46.3475 87.0494C46.5177 86.2605 47.1952 84.8643 46.952 83.541C46.9075 83.3011 47.0679 83.0693 47.3076 83.0259C47.5486 82.9816 47.7795 83.1406 47.8238 83.3817C48.055 84.6433 47.5756 85.9716 47.3085 86.8762C47.258 87.0482 47.2206 87.2571 47.2005 87.3815Z" fill="#1D2D5A"/>
</svg>
