<svg width="20" height="21" viewBox="0 0 20 21" fill="none" xmlns="http://www.w3.org/2000/svg">
<path d="M17.5749 6.31667C16.8665 5.53334 15.6832 5.14167 13.9665 5.14167H13.7665V5.10834C13.7665 3.70834 13.7665 1.97501 10.6332 1.97501H9.36653C6.2332 1.97501 6.2332 3.71667 6.2332 5.10834V5.15001H6.0332C4.3082 5.15001 3.1332 5.54167 2.42487 6.32501C1.59987 7.24167 1.62487 8.47501 1.7082 9.31667L1.71654 9.37501L1.79987 10.25C1.8082 10.2583 1.82487 10.275 1.84154 10.2833C2.11654 10.4667 2.39987 10.65 2.69987 10.8167C2.81654 10.8917 2.94154 10.9583 3.06654 11.025C4.49154 11.8083 6.0582 12.3333 7.64987 12.5917C7.72487 13.375 8.06653 14.2917 9.89153 14.2917C11.7165 14.2917 12.0749 13.3833 12.1332 12.575C13.8332 12.3 15.4749 11.7083 16.9582 10.8417C17.0082 10.8167 17.0415 10.7917 17.0832 10.7667C17.4665 10.55 17.8249 10.3167 18.1749 10.0583C18.1915 10.05 18.2082 10.0333 18.2165 10.0167L18.2499 9.71667L18.2915 9.32501C18.2999 9.27501 18.2999 9.23334 18.3082 9.17501C18.3749 8.33334 18.3582 7.18334 17.5749 6.31667ZM10.9082 12.025C10.9082 12.9083 10.9082 13.0417 9.8832 13.0417C8.8582 13.0417 8.8582 12.8833 8.8582 12.0333V10.9833H10.9082V12.025ZM7.42487 5.14167V5.10834C7.42487 3.69167 7.42487 3.16667 9.36653 3.16667H10.6332C12.5749 3.16667 12.5749 3.70001 12.5749 5.10834V5.15001H7.42487V5.14167Z" fill="#1D2D5A"/>
<path opacity="0.4" d="M17.0831 10.75C17.0415 10.775 16.9998 10.8 16.9581 10.825C15.4748 11.6917 13.8331 12.275 12.1331 12.5583C12.0665 13.3583 11.7165 14.275 9.89147 14.275C8.06647 14.275 7.71647 13.3667 7.6498 12.575C6.05814 12.325 4.49147 11.8 3.06647 11.0083C2.94147 10.9417 2.81647 10.875 2.6998 10.8C2.3998 10.6333 2.11647 10.45 1.84147 10.2667C1.8248 10.2583 1.80814 10.2417 1.7998 10.2333L2.30814 15.6583C2.48314 17.3167 3.16647 19.025 6.83314 19.025H13.1831C16.8498 19.025 17.5331 17.3167 17.7081 15.65L18.2331 10C18.2248 10.0167 18.2081 10.0333 18.1915 10.0417C17.8331 10.3 17.4665 10.5417 17.0831 10.75Z" fill="#1D2D5A"/>
</svg>
