<svg width="20" height="21" viewBox="0 0 20 21" fill="none" xmlns="http://www.w3.org/2000/svg">
<path d="M9.27497 13.7333C9.06663 13.7333 8.8583 13.625 8.74163 13.4333C8.56663 13.1417 8.6583 12.75 8.9583 12.575L9.69997 12.1333V11.2333C9.69997 10.8917 9.9833 10.6083 10.325 10.6083C10.6666 10.6083 10.95 10.8917 10.95 11.2333V12.4833C10.95 12.7 10.8333 12.9083 10.65 13.0167L9.6083 13.6417C9.49163 13.7 9.3833 13.7333 9.27497 13.7333Z" fill="#1D2D5A"/>
<path opacity="0.4" d="M18.2087 10.0083L17.692 15.6583C17.517 17.325 16.8337 19.025 13.167 19.025H6.81699C3.15033 19.025 2.46699 17.325 2.30033 15.6667L1.79199 10.2417C1.80033 10.25 1.80866 10.2583 1.82533 10.2667C2.10866 10.45 2.38366 10.6333 2.68366 10.8C2.80033 10.875 2.92533 10.9417 3.05033 11.0083C3.99199 11.525 5.00033 11.9333 6.04199 12.2167C6.45866 12.3417 6.88366 12.4333 7.31699 12.5083C7.48366 13.8417 8.62533 14.875 10.0003 14.875C11.392 14.875 12.542 13.8167 12.692 12.4583V12.45C13.117 12.3667 13.542 12.2583 13.9587 12.1333C15.0003 11.8083 16.0087 11.375 16.9503 10.825C17.0003 10.8 17.042 10.775 17.0753 10.75C17.4587 10.5417 17.8253 10.3 18.1753 10.05C18.192 10.0417 18.2003 10.025 18.2087 10.0083Z" fill="#1D2D5A"/>
<path d="M17.5749 6.31667C16.8665 5.53334 15.6915 5.14167 13.9665 5.14167H13.7665V5.10834C13.7665 3.70834 13.7665 1.97501 10.6332 1.97501H9.36653C6.2332 1.97501 6.2332 3.70834 6.2332 5.10834V5.14167H6.0332C4.3082 5.14167 3.12487 5.53334 2.42487 6.31667C1.59987 7.24167 1.62487 8.46667 1.7082 9.30834L1.71654 9.36667L1.79154 10.2417C1.79987 10.25 1.81654 10.2583 1.8332 10.2667C2.11654 10.45 2.39154 10.6333 2.69154 10.8C2.8082 10.875 2.9332 10.9417 3.0582 11.0083C3.99987 11.525 5.0082 11.9333 6.04153 12.2167C6.06653 14.375 7.8332 16.125 9.99987 16.125C12.1832 16.125 13.9582 14.35 13.9582 12.1667V12.1333C15.0082 11.8167 16.0165 11.375 16.9582 10.825C17.0082 10.8 17.0415 10.775 17.0832 10.75C17.4665 10.5417 17.8332 10.3 18.1832 10.05C18.1915 10.0417 18.2082 10.025 18.2165 10.0083L18.2499 9.70834L18.2915 9.31667C18.2999 9.26667 18.2999 9.22501 18.3082 9.16667C18.3749 8.33334 18.3582 7.18334 17.5749 6.31667ZM7.42487 5.10834C7.42487 3.69167 7.42487 3.15834 9.36653 3.15834H10.6332C12.5749 3.15834 12.5749 3.69167 12.5749 5.10834V5.14167H7.42487V5.10834ZM9.99987 14.875C8.62487 14.875 7.4832 13.8417 7.31653 12.5083C7.29987 12.4 7.29153 12.2833 7.29153 12.1667C7.29153 10.675 8.5082 9.45834 9.99987 9.45834C11.4915 9.45834 12.7082 10.675 12.7082 12.1667C12.7082 12.2667 12.6999 12.3583 12.6915 12.45V12.4583C12.5415 13.8167 11.3915 14.875 9.99987 14.875Z" fill="#1D2D5A"/>
</svg>
