<svg width="20" height="21" viewBox="0 0 20 21" fill="none" xmlns="http://www.w3.org/2000/svg">
<path d="M5.79935 2.16667C6.14768 2.16667 6.42935 2.425 6.42935 2.74333V3.90833C6.98768 3.89833 7.61435 3.89833 8.31935 3.89833H11.6793C12.3843 3.89833 13.0102 3.89833 13.5693 3.90833V2.74333C13.5693 2.425 13.851 2.16667 14.1993 2.16667C14.5477 2.16667 14.8293 2.425 14.8293 2.74333V3.95833C16.0377 4.04667 16.8318 4.265 17.4152 4.79833C17.9985 5.3325 18.236 6.05917 18.3327 7.16667V8H1.66602V7.16667C1.76268 6.05917 2.00018 5.33333 2.58352 4.79833C3.16685 4.265 3.96018 4.04667 5.16935 3.95833V2.74333C5.16935 2.425 5.45185 2.16667 5.79935 2.16667Z" fill="#1D2D5A"/>
<path opacity="0.5" d="M18.3325 12.1667V10.5C18.3325 9.80083 18.3217 8.55417 18.3108 8H1.67083C1.66 8.55417 1.67083 9.80083 1.67083 10.5V12.1667C1.67083 15.3092 1.67083 16.8808 2.64583 17.8567C3.62333 18.8333 5.19416 18.8333 8.33583 18.8333H11.6692C14.8108 18.8333 16.3808 18.8333 17.3575 17.8567C18.3325 16.8808 18.3325 15.3092 18.3325 12.1667Z" fill="#A0A7BB"/>
<path d="M15 14.25C15 14.5815 14.8683 14.8995 14.6339 15.1339C14.3995 15.3683 14.0815 15.5 13.75 15.5C13.4185 15.5 13.1005 15.3683 12.8661 15.1339C12.6317 14.8995 12.5 14.5815 12.5 14.25C12.5 13.9185 12.6317 13.6005 12.8661 13.3661C13.1005 13.1317 13.4185 13 13.75 13C14.0815 13 14.3995 13.1317 14.6339 13.3661C14.8683 13.6005 15 13.9185 15 14.25Z" fill="#F8F8F8"/>
</svg>
