<svg width="39" height="39" viewBox="0 0 39 39" fill="none" xmlns="http://www.w3.org/2000/svg">
<rect width="39" height="39" rx="10" fill="#71C2E3"/>
<path d="M29.1059 23.796C26.2871 23.796 24.0039 26.0791 24.0039 28.898C24.0039 29.8546 24.2718 30.7602 24.7437 31.5255C25.6238 33.0051 27.2437 34 29.1059 34C30.9682 34 32.588 33.0051 33.4681 31.5255C33.9401 30.7602 34.208 29.8546 34.208 28.898C34.208 26.0791 31.9248 23.796 29.1059 23.796ZM31.7462 28.3495L29.0294 30.8623C28.8508 31.0281 28.6085 31.1174 28.3789 31.1174C28.1365 31.1174 27.8942 31.0281 27.7029 30.8367L26.4401 29.574C26.0702 29.2041 26.0702 28.5919 26.4401 28.222C26.81 27.8521 27.4222 27.8521 27.7921 28.222L28.4044 28.8342L30.4452 26.9465C30.8278 26.5893 31.4401 26.6148 31.7972 26.9975C32.1544 27.3801 32.1289 27.9796 31.7462 28.3495Z" fill="white"/>
<path d="M32.93 14.2806V16.1428H7.41992V14.2806C7.41992 11.3597 9.79239 9 12.7133 9H27.6367C30.5576 9 32.93 11.3597 32.93 14.2806Z" fill="white"/>
<path opacity="0.3" d="M7.41992 16.1429V25.6582C7.41992 28.5791 9.77963 30.9388 12.7005 30.9388H20.6852C21.425 30.9388 22.0627 30.3138 21.9989 29.574C21.8204 27.6225 22.4454 25.5052 24.1801 23.8215C24.8944 23.12 25.7745 22.5843 26.7311 22.2781C28.3255 21.7679 29.8688 21.8317 31.2336 22.2909C32.0627 22.5715 32.93 21.972 32.93 21.0919V16.1429H7.41992ZM15.073 26.6659H12.5219C11.999 26.6659 11.5653 26.2322 11.5653 25.7092C11.5653 25.1863 11.999 24.7526 12.5219 24.7526H15.073C15.5959 24.7526 16.0296 25.1863 16.0296 25.7092C16.0296 26.2322 15.5959 26.6659 15.073 26.6659Z" fill="white"/>
<path d="M16.0287 25.7091C16.0287 26.2321 15.5951 26.6658 15.0721 26.6658H12.5211C11.9981 26.6658 11.5645 26.2321 11.5645 25.7091C11.5645 25.1862 11.9981 24.7525 12.5211 24.7525H15.0721C15.5951 24.7525 16.0287 25.1862 16.0287 25.7091Z" fill="white"/>
</svg>
