<svg width="418" height="477" viewBox="0 0 418 477" fill="none" xmlns="http://www.w3.org/2000/svg">
<g clip-path="url(#clip0_199_2002)">
<path d="M129 387L283 387" stroke="#283035" stroke-width="1.758" stroke-linecap="round" stroke-linejoin="round"/>
<g style="mix-blend-mode:hard-light" opacity="0.43">
<path d="M351.289 332.5H69.2891L176.789 105.5H245.882L351.289 332.5Z" fill="url(#paint0_linear_199_2002)" style="mix-blend-mode:overlay"/>
</g>
<path d="M212 115C218.075 115 223 110.075 223 104C223 97.9248 218.075 93 212 93C205.925 93 201 97.9248 201 104C201 110.075 205.925 115 212 115Z" fill="white"/>
<path d="M180.885 107C180.334 106.998 179.79 106.877 179.288 106.643C178.785 106.41 178.337 106.07 177.973 105.647C177.609 105.223 177.336 104.725 177.174 104.186C177.011 103.646 176.962 103.078 177.03 102.517C179.136 84.1987 193.99 70 212 70C230.011 70 244.864 84.1987 246.97 102.517C247.038 103.078 246.989 103.646 246.826 104.186C246.664 104.725 246.391 105.224 246.027 105.647C245.662 106.071 245.214 106.41 244.712 106.644C244.21 106.877 243.665 106.998 243.114 107H180.885Z" fill="#F7B66F"/>
<path d="M217.979 70.4366C217.861 70.4176 217.742 70.4042 217.624 70.3866C217.209 70.3247 216.791 70.2687 216.372 70.2215C216.181 70.1998 215.989 70.1822 215.797 70.1637C215.449 70.1304 215.101 70.1004 214.752 70.08C214.549 70.068 214.348 70.0527 214.145 70.043C213.599 70.0171 213.048 70 212.5 70C211.952 70 211.404 70.0167 210.862 70.043C210.611 70.055 210.362 70.0749 210.112 70.092C209.843 70.111 209.574 70.1304 209.305 70.1559C208.977 70.1859 208.65 70.222 208.323 70.2618C208.164 70.2812 208.004 70.3029 207.847 70.3247C191.393 72.5553 178.466 86.4363 177.012 103.74C176.975 104.153 177.024 104.57 177.156 104.964C177.287 105.357 177.498 105.718 177.774 106.025C178.051 106.331 178.387 106.576 178.763 106.744C179.138 106.912 179.543 106.999 179.953 107H245.046C245.452 107.001 245.855 106.917 246.228 106.753C246.601 106.589 246.936 106.349 247.213 106.047C247.489 105.745 247.701 105.389 247.836 105C247.969 104.612 248.022 104.199 247.991 103.788C246.581 86.7517 234.053 73.0146 217.979 70.4366ZM189.216 96.7921C190.77 91.0752 193.669 85.8249 197.665 81.4913C201.662 77.1576 206.636 73.8702 212.162 71.9097C217.693 73.866 222.673 77.1521 226.674 81.4862C230.675 85.8203 233.578 91.0724 235.133 96.7921C235.331 97.5312 235.357 98.3068 235.21 99.0579C235.063 99.809 234.747 100.516 234.287 101.123C233.826 101.731 233.233 102.222 232.554 102.56C231.875 102.897 231.129 103.071 230.372 103.069H193.977C193.221 103.072 192.474 102.897 191.796 102.56C191.116 102.222 190.524 101.731 190.063 101.124C189.602 100.516 189.286 99.8095 189.139 99.0584C188.992 98.3068 189.019 97.5312 189.216 96.7921Z" fill="#EFAA65"/>
<path d="M180.914 107C180.359 106.999 179.81 106.876 179.304 106.642C178.798 106.407 178.347 106.065 177.98 105.638C177.613 105.212 177.339 104.71 177.175 104.167C177.011 103.623 176.962 103.051 177.03 102.486C179.151 84.1807 193.999 70 212.001 70C230.002 70 244.851 84.1807 246.97 102.486C247.038 103.051 246.989 103.623 246.825 104.167C246.662 104.71 246.387 105.212 246.02 105.638C245.653 106.065 245.202 106.407 244.696 106.642C244.19 106.877 243.641 106.999 243.086 107H180.914Z" stroke="#283035" stroke-width="1.758" stroke-linecap="round" stroke-linejoin="round"/>
<path d="M212 11V70" stroke="#283035" stroke-width="1.758" stroke-linejoin="round"/>
<path d="M165.622 394.236C167.021 389.583 171.301 387.105 178.251 385.018C182.659 383.713 188.253 383.105 197.026 381.279C201.306 380.409 204.315 378.67 204.315 378.67V383.67C204.315 383.67 175.285 389.54 170.75 397.236C168.547 401.018 170.617 409.043 181 410C177.822 410.478 171.216 410.888 168.419 407.975C164.944 404.366 164.012 399.54 165.622 394.236Z" fill="#282323" stroke="black" stroke-width="1.55983" stroke-miterlimit="10" stroke-linecap="round" stroke-linejoin="round"/>
<path d="M204.315 384.307C204.315 384.307 186.845 387.413 177.513 391.254C169.332 394.646 169.587 398.161 169.374 401.758C169.247 403.842 170.781 408.991 177.002 409.89C184.416 410.953 193.151 409.809 204.315 402.984C204.315 386.268 204.315 384.307 204.315 384.307Z" fill="#442C2A"/>
<path opacity="0.37" d="M169.374 401.841C169.545 398.948 169.417 396.096 173.678 393.325C173.508 394.344 173.465 395.322 173.422 396.34C173.295 398.418 178.536 395.729 184.757 396.585C191.234 397.522 195.069 404.611 204.315 399.844C204.315 400.863 204.315 401.922 204.315 403.022C193.151 409.826 184.416 410.926 177.002 409.907C170.781 409.052 169.247 403.878 169.374 401.841Z" fill="#442C2A"/>
<path d="M204.315 384.307C204.315 384.307 186.845 387.413 177.513 391.254C169.332 394.646 169.587 398.161 169.374 401.758C169.247 403.842 170.781 408.991 177.002 409.89C184.416 410.953 193.151 409.809 204.315 402.984C204.315 386.268 204.315 384.307 204.315 384.307Z" stroke="black" stroke-width="1.55983" stroke-miterlimit="10" stroke-linecap="round" stroke-linejoin="round"/>
<path d="M188.247 393.325C186.724 394.167 187.093 402.35 190.786 403.472" stroke="black" stroke-width="1.55983" stroke-miterlimit="10" stroke-linecap="round" stroke-linejoin="round"/>
<path d="M193.567 393.325C192.415 395.33 193.228 400.048 195.296 401.217" stroke="black" stroke-width="1.55983" stroke-miterlimit="10" stroke-linecap="round" stroke-linejoin="round"/>
<path d="M198.34 391.071C196.611 393.361 197.832 398.753 200.933 400.09" stroke="black" stroke-width="1.55983" stroke-miterlimit="10" stroke-linecap="round" stroke-linejoin="round"/>
<path d="M248.376 369.628C239.263 376.091 226.312 379.797 212.77 379.797C199.27 379.797 186.276 376.091 177.164 369.628C172.987 366.655 165.984 360.45 165.984 352.177C165.984 343.904 172.987 337.699 177.164 334.726C186.276 328.262 199.228 324.557 212.77 324.557C226.27 324.557 239.263 328.262 248.376 334.726C252.552 337.699 259.555 343.904 259.555 352.177C259.555 360.45 252.552 366.655 248.376 369.628Z" fill="#1D2D5A"/>
<path d="M291.054 359.317C290.884 360.171 290.714 360.983 290.459 361.837C283.82 386.144 251.82 404.599 213.309 404.599C174.713 404.599 142.628 386.059 136.117 361.666C135.947 360.983 135.777 360.299 135.649 359.616C135.479 358.334 135.521 357.053 135.777 355.771C137.351 348.594 146.032 344.45 155.181 346.501C161.181 347.825 165.862 351.542 167.947 355.942C168.16 356.882 168.5 357.821 168.883 358.719C171.096 363.845 175.522 367.69 178.5 369.826C187.394 376.233 200.118 379.907 213.309 379.907C226.543 379.907 239.224 376.233 248.118 369.826C251.139 367.647 255.607 363.759 257.778 358.633C258.118 357.821 258.416 356.924 258.629 356.07C260.671 351.627 265.395 347.911 271.437 346.544C280.586 344.493 289.267 348.68 290.842 355.814C291.14 356.924 291.182 358.12 291.054 359.317Z" fill="#25386E"/>
<path opacity="0.67" d="M290.842 355.596C290.799 355.381 290.757 355.21 290.672 354.995C290.544 355.682 290.374 356.411 290.161 357.098C283.608 381.514 251.566 400.051 213.1 400.051C174.505 400.051 142.421 381.428 135.911 356.926C135.825 356.669 135.783 356.411 135.698 356.111C135.528 357.227 135.485 358.342 135.655 359.415C135.783 360.102 135.953 360.788 136.123 361.475C142.634 385.976 174.718 404.599 213.312 404.599C251.822 404.599 283.821 386.062 290.459 361.646C290.672 360.831 290.884 359.973 291.054 359.115C291.182 357.999 291.14 356.797 290.842 355.596Z" fill="#1D2D5A"/>
<path d="M291.054 359.317C290.884 360.171 290.714 360.983 290.459 361.837C283.82 386.144 251.82 404.599 213.309 404.599C174.713 404.599 142.628 386.059 136.117 361.666C135.947 360.983 135.777 360.299 135.649 359.616C135.479 358.334 135.521 357.053 135.777 355.771C137.351 348.594 146.032 344.45 155.181 346.501C161.181 347.825 165.862 351.542 167.947 355.942C168.16 356.882 168.5 357.821 168.883 358.719C171.096 363.845 175.522 367.69 178.5 369.826C187.394 376.233 200.118 379.907 213.309 379.907C226.543 379.907 239.224 376.233 248.118 369.826C251.139 367.647 255.607 363.759 257.778 358.633C258.118 357.821 258.416 356.924 258.629 356.07C260.671 351.627 265.395 347.911 271.437 346.544C280.586 344.493 289.267 348.68 290.842 355.814C291.14 356.924 291.182 358.12 291.054 359.317Z" stroke="black" stroke-width="1.55983" stroke-miterlimit="10" stroke-linecap="round" stroke-linejoin="round"/>
<path d="M213.334 366.269C234.503 366.269 251.664 360.464 251.664 353.304C251.664 346.144 234.503 340.34 213.334 340.34C192.165 340.34 175.004 346.144 175.004 353.304C175.004 360.464 192.165 366.269 213.334 366.269Z" fill="#60BBE0"/>
<path d="M213.334 366.269C234.503 366.269 251.664 360.464 251.664 353.304C251.664 346.144 234.503 340.34 213.334 340.34C192.165 340.34 175.004 346.144 175.004 353.304C175.004 360.464 192.165 366.269 213.334 366.269Z" stroke="black" stroke-width="1.55983" stroke-miterlimit="10" stroke-linecap="round" stroke-linejoin="round"/>
<path d="M257.308 324.557H169.292C162.551 324.557 157.336 318.732 158.184 312.111L162.085 281.312C163.187 272.513 170.734 265.934 179.722 265.934H246.963C255.909 265.934 263.455 272.513 264.6 281.312L268.501 312.111C269.264 318.732 264.049 324.557 257.308 324.557Z" fill="#F1534D"/>
<path d="M257.308 324.557H169.292C162.551 324.557 157.336 318.732 158.184 312.111L162.085 281.312C163.187 272.513 170.734 265.934 179.722 265.934H246.963C255.909 265.934 263.455 272.513 264.6 281.312L268.501 312.111C269.264 318.732 264.049 324.557 257.308 324.557Z" stroke="black" stroke-width="1.55983" stroke-miterlimit="10" stroke-linecap="round" stroke-linejoin="round"/>
<path d="M178.385 291.863L177.258 303.137" stroke="black" stroke-width="1.55983" stroke-miterlimit="10" stroke-linecap="round" stroke-linejoin="round"/>
<path d="M248.281 291.863L249.409 303.137" stroke="black" stroke-width="1.55983" stroke-miterlimit="10" stroke-linecap="round" stroke-linejoin="round"/>
<path d="M257.308 324.557H169.292C162.551 324.557 157.336 318.732 158.184 312.111L162.085 281.312C163.187 272.513 170.734 265.934 179.722 265.934H246.963C255.909 265.934 263.455 272.513 264.6 281.312L268.501 312.111C269.264 318.732 264.049 324.557 257.308 324.557Z" fill="#60BBE0"/>
<g opacity="0.24">
<path opacity="0.24" d="M161.67 284.43C162.777 275.49 170.355 268.805 179.381 268.805H246.905C255.888 268.805 263.466 275.49 264.616 284.43L268.49 315.467C268.618 314.488 268.661 313.466 268.533 312.402L264.616 281.109C263.509 272.169 255.931 265.484 246.905 265.484H179.381C170.398 265.484 162.82 272.169 161.67 281.109L157.753 312.402C157.625 313.424 157.625 314.446 157.796 315.467L161.67 284.43Z" fill="#9B2121"/>
<path opacity="0.24" d="M183.298 268.805C183.298 268.805 188.535 269.742 188.961 272.637C189.301 274.979 189.259 276.511 190.153 277.448C191.047 278.385 193.133 280.3 197.348 280.3C195.006 277.959 194.964 269.742 194.325 269.742C193.729 269.742 192.196 265.655 192.196 265.655L190.153 264.718C190.195 264.718 182.66 265.655 183.298 268.805Z" fill="#9B2121"/>
<path opacity="0.24" d="M239.241 268.805C239.241 268.805 234.004 269.742 233.579 272.637C233.238 274.979 233.281 276.511 232.387 277.448C231.492 278.342 229.406 280.3 225.191 280.3C227.533 277.959 227.576 269.742 228.214 269.742C228.81 269.742 230.343 265.655 230.343 265.655L232.387 264.718C232.344 264.718 239.88 265.655 239.241 268.805Z" fill="#9B2121"/>
</g>
<path d="M257.308 324.557H169.292C162.551 324.557 157.336 318.732 158.184 312.111L162.085 281.312C163.187 272.513 170.734 265.934 179.722 265.934H246.963C255.909 265.934 263.455 272.513 264.6 281.312L268.501 312.111C269.264 318.732 264.049 324.557 257.308 324.557Z" stroke="black" stroke-width="1.55983" stroke-miterlimit="10" stroke-linecap="round" stroke-linejoin="round"/>
<path d="M178.385 291.863L177.258 303.137" stroke="black" stroke-width="1.55983" stroke-miterlimit="10" stroke-linecap="round" stroke-linejoin="round"/>
<path d="M248.281 291.863L249.409 303.137" stroke="black" stroke-width="1.55983" stroke-miterlimit="10" stroke-linecap="round" stroke-linejoin="round"/>
<path d="M202.296 247.487L188.239 246.769L181.659 247.487C181.659 247.487 177.258 250.738 177.258 251.625C177.258 252.511 177.685 259.731 177.685 259.731C177.685 259.731 188.068 261.125 189.179 262.18C190.29 263.236 196.87 269.316 196.87 269.316L203.236 266.867L206.569 258.085L202.296 247.487Z" fill="#136687"/>
<path d="M199.805 242.259H183.529C176.975 242.259 171.621 247.582 171.621 254.192C171.621 260.759 176.932 266.125 183.529 266.125H185.67C189.14 266.125 191.924 268.915 191.924 272.391V273.035C191.924 277.199 195.308 280.59 199.462 280.59V272.863C199.548 272.863 199.634 272.949 199.634 273.035V272.391C199.634 264.665 193.38 258.398 185.67 258.398H183.529C181.216 258.398 179.331 256.51 179.331 254.192C179.331 251.874 181.216 249.986 183.529 249.986H199.805V242.259Z" fill="#60BBE0"/>
<path d="M198.777 267.584C196.807 262.262 191.667 258.398 185.67 258.398H183.529C181.216 258.398 179.331 256.51 179.331 254.192C179.331 251.874 181.216 249.986 183.529 249.986H199.805V242.259H183.529C176.975 242.259 171.621 247.582 171.621 254.192C171.621 260.759 176.932 266.125 183.529 266.125H185.67C189.14 266.125 191.924 268.915 191.924 272.391V273.035C191.924 277.199 195.308 280.59 199.462 280.59" stroke="black" stroke-width="1.55983" stroke-miterlimit="10" stroke-linecap="round" stroke-linejoin="round"/>
<path d="M219.861 247.487L233.918 246.769L240.498 247.487C240.498 247.487 244.899 250.738 244.899 251.625C244.899 252.511 244.472 259.731 244.472 259.731C244.472 259.731 234.089 261.125 232.978 262.18C231.867 263.278 225.287 269.316 225.287 269.316L218.921 266.867L215.588 258.085L219.861 247.487Z" fill="#136687"/>
<path d="M222.354 242.259H238.63C245.183 242.259 250.537 247.582 250.537 254.192C250.537 260.759 245.226 266.125 238.63 266.125H236.488C233.019 266.125 230.235 268.915 230.235 272.391V273.035C230.235 277.199 226.851 280.59 222.696 280.59V272.863C222.611 272.863 222.525 272.949 222.525 273.035V272.391C222.525 264.665 228.778 258.398 236.488 258.398H238.63C240.943 258.398 242.828 256.51 242.828 254.192C242.828 251.874 240.943 249.986 238.63 249.986H222.354V242.259Z" fill="#60BBE0"/>
<path d="M223.382 267.584C225.352 262.262 230.492 258.398 236.488 258.398H238.63C240.943 258.398 242.828 256.51 242.828 254.192C242.828 251.874 240.943 249.986 238.63 249.986H222.354V242.259H238.63C245.183 242.259 250.537 247.582 250.537 254.192C250.537 260.759 245.226 266.125 238.63 266.125H236.488C233.019 266.125 230.235 268.915 230.235 272.391V273.035C230.235 277.199 226.851 280.59 222.696 280.59" stroke="black" stroke-width="1.55983" stroke-miterlimit="10" stroke-linecap="round" stroke-linejoin="round"/>
<path d="M211.644 273.825C220.672 273.825 227.99 266.507 227.99 257.479C227.99 248.451 220.672 241.132 211.644 241.132C202.616 241.132 195.297 248.451 195.297 257.479C195.297 266.507 202.616 273.825 211.644 273.825Z" fill="#60BBE0"/>
<path d="M211.644 273.825C220.672 273.825 227.99 266.507 227.99 257.479C227.99 248.451 220.672 241.132 211.644 241.132C202.616 241.132 195.297 248.451 195.297 257.479C195.297 266.507 202.616 273.825 211.644 273.825Z" stroke="black" stroke-width="1.55983" stroke-miterlimit="10" stroke-linecap="round" stroke-linejoin="round"/>
<path d="M211.622 267.061C206.343 267.061 202.061 262.77 202.061 257.479V250.313C202.061 248.979 203.141 247.896 204.472 247.896H218.814C220.145 247.896 221.226 248.979 221.226 250.313V257.479C221.184 262.77 216.902 267.061 211.622 267.061Z" fill="#FFC897"/>
<path d="M218.851 247.896H204.477C203.144 247.896 202.061 249.056 202.061 250.464V256.303C205.06 257.421 208.268 258.042 211.643 258.042C215.018 258.042 218.226 257.421 221.226 256.303V250.464C221.226 249.056 220.142 247.896 218.851 247.896Z" fill="#E5A973"/>
<path d="M211.622 267.061C206.343 267.061 202.061 262.77 202.061 257.479V250.313C202.061 248.979 203.141 247.896 204.472 247.896H218.814C220.145 247.896 221.226 248.979 221.226 250.313V257.479C221.184 262.77 216.902 267.061 211.622 267.061Z" stroke="black" stroke-width="1.55983" stroke-miterlimit="10" stroke-linecap="round" stroke-linejoin="round"/>
<path d="M222.353 377.542H213.334V406.854H222.353V377.542Z" fill="#203161"/>
<path d="M222.353 377.542H213.334V406.854H222.353V377.542Z" stroke="black" stroke-width="1.55983" stroke-miterlimit="10" stroke-linecap="round" stroke-linejoin="round"/>
<path d="M168.24 358.377C168.24 357.649 168.24 356.92 168.24 356.123C168.24 356.886 168.24 357.614 168.24 358.377Z" stroke="black" stroke-width="1.55983" stroke-miterlimit="10" stroke-linecap="round" stroke-linejoin="round"/>
<path d="M257.301 358.377C257.526 357.588 257.921 356.837 258.428 356.123C258.146 356.912 257.752 357.663 257.301 358.377Z" stroke="black" stroke-width="1.55983" stroke-miterlimit="10" stroke-linecap="round" stroke-linejoin="round"/>
<path d="M257.83 356.123H168.839C165.68 356.123 162.992 353.763 162.565 350.589L157.016 306.919C156.547 303.144 159.492 299.755 163.29 299.755H263.379C267.178 299.755 270.123 303.101 269.653 306.919L264.105 350.589C263.678 353.72 260.989 356.123 257.83 356.123Z" fill="white"/>
<path opacity="0.21" d="M264.066 347.936C263.682 351.075 260.993 353.408 257.792 353.408H168.835C165.676 353.408 162.987 351.075 162.56 347.936L157.097 305.392C156.969 306.07 156.926 306.749 157.011 307.47L162.56 350.651C162.944 353.79 165.634 356.123 168.835 356.123H257.834C260.993 356.123 263.682 353.79 264.109 350.651L269.658 307.47C269.744 306.749 269.701 306.07 269.573 305.392L264.066 347.936Z" fill="#7E7E7E"/>
<path opacity="0.21" d="M157.059 307.646C157.571 304.614 160.134 302.207 163.252 302.207H263.417C266.578 302.207 269.098 304.57 269.611 307.646L269.653 307.2C270.123 303.277 267.176 299.755 263.374 299.755H163.295C159.494 299.755 156.546 303.232 157.016 307.2L157.059 307.646Z" fill="#7E7E7E"/>
<path d="M257.83 356.123H168.839C165.68 356.123 162.992 353.763 162.565 350.589L157.016 306.919C156.547 303.144 159.492 299.755 163.29 299.755H263.379C267.178 299.755 270.123 303.101 269.653 306.919L264.105 350.589C263.678 353.72 260.989 356.123 257.83 356.123Z" stroke="black" stroke-width="1.55983" stroke-miterlimit="10" stroke-linecap="round" stroke-linejoin="round"/>
<path d="M261.046 394.236C259.648 389.583 255.367 387.105 248.417 385.018C244.01 383.713 238.415 383.105 229.643 381.279C225.362 380.409 222.354 378.67 222.354 378.67V383.67C222.354 383.67 251.384 389.54 255.918 397.236C258.122 401.018 257.444 410.28 247.061 411.236C250.239 411.714 255.452 410.888 258.249 407.975C261.724 404.366 262.657 399.54 261.046 394.236Z" fill="#282323" stroke="black" stroke-width="1.55983" stroke-miterlimit="10" stroke-linecap="round" stroke-linejoin="round"/>
<path d="M222.354 384.307C222.354 384.307 239.824 387.413 249.156 391.254C257.337 394.646 257.081 398.161 257.294 401.758C257.422 403.842 255.888 408.991 249.667 409.89C242.253 410.953 233.518 409.809 222.354 402.984C222.354 386.268 222.354 384.307 222.354 384.307Z" fill="#442C2A"/>
<path opacity="0.37" d="M257.294 401.841C257.124 398.948 257.252 396.096 252.991 393.325C253.161 394.344 253.204 395.322 253.246 396.34C253.374 398.418 251.84 403.552 245.619 404.448C239.142 405.385 231.6 404.611 222.354 399.844C222.354 400.863 222.354 401.922 222.354 403.022C233.518 409.826 242.253 410.926 249.667 409.907C255.931 409.052 257.422 403.878 257.294 401.841Z" fill="#442C2A"/>
<path d="M222.354 384.307C222.354 384.307 239.824 387.413 249.156 391.254C257.337 394.646 257.081 398.161 257.294 401.758C257.422 403.842 255.888 408.991 249.667 409.89C242.253 410.953 233.518 409.809 222.354 402.984C222.354 386.268 222.354 384.307 222.354 384.307Z" stroke="black" stroke-width="1.55983" stroke-miterlimit="10" stroke-linecap="round" stroke-linejoin="round"/>
<path d="M238.42 393.325C239.944 394.167 239.574 402.35 235.881 403.472" stroke="black" stroke-width="1.55983" stroke-miterlimit="10" stroke-linecap="round" stroke-linejoin="round"/>
<path d="M233.1 393.325C234.252 395.33 233.439 400.048 231.371 401.217" stroke="black" stroke-width="1.55983" stroke-miterlimit="10" stroke-linecap="round" stroke-linejoin="round"/>
<path d="M228.327 391.071C230.056 393.361 228.836 398.753 225.734 400.09" stroke="black" stroke-width="1.55983" stroke-miterlimit="10" stroke-linecap="round" stroke-linejoin="round"/>
<path d="M196.424 276.08V298.627" stroke="black" stroke-width="2.33975" stroke-miterlimit="10" stroke-linecap="round" stroke-linejoin="round"/>
<path d="M225.734 276.08V291.863" stroke="black" stroke-width="2.33975" stroke-miterlimit="10" stroke-linecap="round" stroke-linejoin="round"/>
<path d="M225.736 296.373C227.603 296.373 229.118 294.858 229.118 292.991C229.118 291.123 227.603 289.608 225.736 289.608C223.868 289.608 222.354 291.123 222.354 292.991C222.354 294.858 223.868 296.373 225.736 296.373Z" fill="black"/>
<path d="M225.735 294.118C226.357 294.118 226.862 293.613 226.862 292.991C226.862 292.368 226.357 291.863 225.735 291.863C225.112 291.863 224.607 292.368 224.607 292.991C224.607 293.613 225.112 294.118 225.735 294.118Z" fill="#7E7E7E"/>
<path d="M211.643 254.66C197.032 254.66 185.15 242.765 185.15 228.043V197.165H238.136V228.043C238.136 242.723 226.296 254.66 211.643 254.66Z" fill="#FFC897"/>
<path d="M211.643 250.972C197.032 250.972 185.15 239.017 185.15 224.222V227.91C185.15 242.663 196.99 254.66 211.643 254.66C226.254 254.66 238.136 242.705 238.136 227.91V224.222C238.136 238.975 226.296 250.972 211.643 250.972Z" fill="#E5A973"/>
<path d="M211.643 254.66C197.032 254.66 185.15 242.765 185.15 228.043V197.165H238.136V228.043C238.136 242.723 226.296 254.66 211.643 254.66Z" stroke="black" stroke-width="1.55983" stroke-miterlimit="10" stroke-linecap="round" stroke-linejoin="round"/>
<path d="M239.264 199.935C239.179 198.546 239.094 197.116 239.051 195.727C221.212 196.544 203.287 196.422 185.49 194.91C185.363 196.504 185.278 198.097 185.15 199.69C185.957 200.385 186.807 201.12 187.614 201.814C188.294 202.141 189.186 202.591 189.993 202.999C193.56 204.797 198.53 207.084 203.287 207.983C205.029 208.31 206.855 208.473 208.724 208.433C216.752 208.351 223.505 205.287 226.351 204.02C226.776 203.816 227.116 203.653 227.328 203.612C227.498 203.53 227.668 203.489 227.923 203.489C228.432 203.489 229.027 203.612 229.749 203.734C230.684 203.939 231.788 204.143 233.02 204.061C234.421 203.98 235.696 203.571 236.927 202.795C237.65 201.814 238.457 200.875 239.264 199.935Z" fill="#E5A973"/>
<path d="M225.718 183.892C225.718 183.892 204.211 169.58 186.41 185.568C183.088 188.533 181.768 192.788 181.768 196.699V217.415H184.749V202.372C184.749 201.255 185.515 200.395 186.452 200.395C187.985 200.395 196.29 204.865 203.317 206.111C213.921 207.959 223.588 203.017 225.675 202.286C229.252 200.997 232.148 205.467 236.663 200.438H236.833C237.77 200.438 238.536 201.341 238.536 202.415V217.458H241.518V196.828C241.432 191.757 235.641 179.035 225.718 183.892Z" fill="#231A17"/>
<g opacity="0.34">
<path opacity="0.34" d="M184.961 214.182H181.98V216.992H184.961V214.182Z" fill="#231A17"/>
<path opacity="0.34" d="M241.67 214.182H238.689V216.992H241.67V214.182Z" fill="#231A17"/>
</g>
<path d="M225.718 183.892C225.718 183.892 204.211 169.58 186.41 185.568C183.088 188.533 181.768 192.788 181.768 196.699V217.415H184.749V202.372C184.749 201.255 185.515 200.395 186.452 200.395C187.985 200.395 196.29 204.865 203.317 206.111C213.921 207.959 223.588 203.017 225.675 202.286C229.252 200.997 232.148 205.467 236.663 200.438H236.833C237.77 200.438 238.536 201.341 238.536 202.415V217.458H241.518V196.828C241.432 191.757 235.641 179.035 225.718 183.892Z" stroke="black" stroke-width="1.55983" stroke-miterlimit="10" stroke-linecap="round" stroke-linejoin="round"/>
<path d="M207.698 197.112C207.698 197.112 184.447 198.508 179.514 187.019" stroke="black" stroke-width="1.55983" stroke-miterlimit="10" stroke-linecap="round" stroke-linejoin="round"/>
<path d="M211.078 194.91C211.078 194.91 188.72 193.52 182.895 181.382" stroke="black" stroke-width="1.55983" stroke-miterlimit="10" stroke-linecap="round" stroke-linejoin="round"/>
<path d="M238.137 214.075V227.604C241.268 227.604 243.774 224.593 243.774 220.84C243.774 217.086 241.268 214.075 238.137 214.075Z" fill="#FFC897"/>
<path d="M238.137 214.075V226.476C240.146 225.326 241.519 222.982 241.519 220.255C241.519 217.57 240.146 215.226 238.137 214.075Z" fill="#E5A973"/>
<path d="M238.137 214.075V227.604C241.268 227.604 243.774 224.593 243.774 220.84C243.774 217.086 241.268 214.075 238.137 214.075Z" stroke="black" stroke-width="1.55983" stroke-miterlimit="10" stroke-linecap="round" stroke-linejoin="round"/>
<path d="M185.15 214.075V227.604C182.019 227.604 179.514 224.593 179.514 220.84C179.47 217.086 182.019 214.075 185.15 214.075Z" fill="#FFC897"/>
<path d="M185.149 215.203C183.819 216.37 182.895 218.464 182.895 220.84C182.895 223.215 183.782 225.309 185.149 226.476V215.203Z" fill="#E5A973"/>
<path d="M185.15 214.075V227.604C182.019 227.604 179.514 224.593 179.514 220.84C179.47 217.086 182.019 214.075 185.15 214.075Z" stroke="black" stroke-width="1.55983" stroke-miterlimit="10" stroke-linecap="round" stroke-linejoin="round"/>
<path d="M210.737 225.349L208.824 230.43C208.824 230.986 211.056 230.541 213.334 230.986" stroke="black" stroke-width="1.55983" stroke-miterlimit="10" stroke-linecap="round" stroke-linejoin="round"/>
<path d="M221.174 235.495C221.85 240.067 215.812 244.112 211.08 243.277" stroke="black" stroke-width="1.16987" stroke-miterlimit="10" stroke-linecap="round" stroke-linejoin="round"/>
<path d="M202.625 219.712C203.559 219.712 204.316 218.955 204.316 218.021C204.316 217.087 203.559 216.33 202.625 216.33C201.691 216.33 200.934 217.087 200.934 218.021C200.934 218.955 201.691 219.712 202.625 219.712Z" stroke="black" stroke-width="0.779916" stroke-miterlimit="10" stroke-linecap="round" stroke-linejoin="round"/>
<path d="M202.625 219.712C203.559 219.712 204.316 218.955 204.316 218.021C204.316 217.087 203.559 216.33 202.625 216.33C201.691 216.33 200.934 217.087 200.934 218.021C200.934 218.955 201.691 219.712 202.625 219.712Z" fill="black"/>
<path d="M196.424 214.075C197.315 212.733 199.396 211.821 201.858 211.821C203.811 211.821 205.509 212.411 206.57 213.324" stroke="black" stroke-width="1.16987" stroke-miterlimit="10" stroke-linecap="round" stroke-linejoin="round"/>
<path d="M221.789 219.712C222.723 219.712 223.48 218.955 223.48 218.021C223.48 217.087 222.723 216.33 221.789 216.33C220.855 216.33 220.098 217.087 220.098 218.021C220.098 218.955 220.855 219.712 221.789 219.712Z" stroke="black" stroke-width="0.779916" stroke-miterlimit="10" stroke-linecap="round" stroke-linejoin="round"/>
<path d="M221.789 219.712C222.723 219.712 223.48 218.955 223.48 218.021C223.48 217.087 222.723 216.33 221.789 216.33C220.855 216.33 220.098 217.087 220.098 218.021C220.098 218.955 220.855 219.712 221.789 219.712Z" fill="black"/>
<path d="M227.99 214.075C227.098 212.733 225.018 211.821 222.556 211.821C220.603 211.821 218.905 212.411 217.844 213.324" stroke="black" stroke-width="1.16987" stroke-miterlimit="10" stroke-linecap="round" stroke-linejoin="round"/>
<rect x="203.93" y="324.157" width="12.9505" height="12.9505" rx="0.842748" fill="#60BBE0"/>
<path d="M214.186 321.817C213.885 321.516 214.098 321 214.525 321H219.569C219.833 321 220.047 321.214 220.047 321.479V326.613C220.047 327.043 219.523 327.255 219.224 326.946L216.655 324.286L214.186 321.817Z" fill="#1D2D5A"/>
<rect x="202" y="330.655" width="8.39277" height="7.57577" rx="0.971478" fill="white"/>
</g>
<defs>
<linearGradient id="paint0_linear_199_2002" x1="211" y1="100.844" x2="216" y2="385" gradientUnits="userSpaceOnUse">
<stop stop-color="#FFCE4F"/>
<stop offset="0.0001" stop-color="#FFCE4F"/>
<stop offset="0.093" stop-color="#FFCE4F"/>
<stop offset="0.284" stop-color="#FFCE4F"/>
<stop offset="0.466" stop-color="#FFCE4F" stop-opacity="0.07"/>
<stop offset="0.633" stop-color="white" stop-opacity="0.221"/>
<stop offset="0.784" stop-color="white" stop-opacity="0.1"/>
<stop offset="0.911" stop-color="white" stop-opacity="0.026"/>
<stop offset="1" stop-color="white" stop-opacity="0"/>
</linearGradient>
<clipPath id="clip0_199_2002">
<rect width="418" height="477" fill="white"/>
</clipPath>
</defs>
</svg>
