<svg width="140" height="130" viewBox="0 0 140 130" fill="none" xmlns="http://www.w3.org/2000/svg">
<g clip-path="url(#clip0_480_4677)">
<rect width="140" height="130" fill="white"/>
<g clip-path="url(#clip1_480_4677)">
<path opacity="0.32" d="M95.0632 113H35.9368C34.8804 113 34 112.318 34 111.5C34 110.682 34.8804 110 35.9368 110H95.0632C96.1196 110 97 110.682 97 111.5C97 112.318 96.1196 113 95.0632 113Z" fill="#1C1C1C"/>
<path d="M140.878 127H5.12238C3.96472 127 3 126.318 3 125.5C3 124.682 3.96472 124 5.12238 124H140.878C142.035 124 143 124.682 143 125.5C143 126.345 142.035 127 140.878 127Z" fill="#E3E3E3"/>
<path d="M128 75H4V8.53847C4 5.46938 6.4659 3 9.53068 3H122.293C125.428 3 128 5.57521 128 8.71485V75Z" fill="#383939"/>
<path d="M6 69.8125V8.1875C6 6.41667 7.41176 5 9.17647 5H122.824C124.588 5 126 6.41667 126 8.1875V69.8125C126 71.5833 124.588 73 122.824 73H9.17647C7.44706 73 6 71.5479 6 69.8125Z" fill="#3A3A3A"/>
<path d="M128 75H4V8.53847C4 5.46938 6.4659 3 9.53068 3H122.293C125.428 3 128 5.57521 128 8.71485V75Z" stroke="#383939" stroke-width="1.098" stroke-miterlimit="10" stroke-linecap="round" stroke-linejoin="round"/>
<path d="M121 68V10H11V68H121Z" fill="white"/>
<rect x="58.0508" y="32.9153" width="12.8469" height="12.8469" rx="0.842748" fill="#60BBE0"/>
<path d="M68.2311 30.601C67.9296 30.2995 68.1432 29.7839 68.5696 29.7839H73.56C73.8244 29.7839 74.0387 29.9982 74.0387 30.2626V35.3426C74.0387 35.773 73.5148 35.9847 73.2158 35.6751L70.6737 33.0436L68.2311 30.601Z" fill="#1D2D5A"/>
<rect x="56.1367" y="39.3615" width="8.32562" height="7.51517" rx="0.971478" fill="white"/>
<path d="M122.258 92H9.5659C6.50113 92 4 89.4854 4 86.4042V75H128V86.2271C128 89.3792 125.428 92 122.258 92Z" fill="#D4E8DC"/>
<path d="M9.73928 89C8.22916 89 7 87.7602 7 86.2371V76H125V86.0599C125 87.6894 123.701 89 122.085 89H9.73928Z" fill="#EBF2EE"/>
<path d="M122.258 92H9.5659C6.50113 92 4 89.4854 4 86.4042V75H128V86.2271C128 89.3792 125.428 92 122.258 92Z" stroke="#383939" stroke-width="1.098" stroke-miterlimit="10" stroke-linecap="round" stroke-linejoin="round"/>
<path d="M84 105H46L51.6283 92H78.3717L84 105Z" fill="#CAD8D0"/>
<path d="M81 98L78.5508 92H52.4492L50 98H81Z" fill="#A1ADA6"/>
<path d="M84 105H46L51.6283 92H78.3717L84 105Z" stroke="#383939" stroke-width="1.098" stroke-miterlimit="10" stroke-linecap="round" stroke-linejoin="round"/>
<path d="M91 110H39L39.5342 108.344C40.1753 106.375 42.2767 105 44.6986 105H85.3014C87.7233 105 89.8603 106.375 90.4658 108.344L91 110Z" fill="#DAEDE2"/>
<path d="M91 110H39L39.5342 108.344C40.1753 106.375 42.2767 105 44.6986 105H85.3014C87.7233 105 89.8603 106.375 90.4658 108.344L91 110Z" stroke="#383939" stroke-width="1.098" stroke-miterlimit="10" stroke-linecap="round" stroke-linejoin="round"/>
<path d="M19.3838 125H109.617C110.933 125 112 123.881 112 122.5C112 121.119 110.933 120 109.617 120H19.3838C18.0679 120 17.0009 121.119 17.0009 122.5C16.9653 123.881 18.0323 125 19.3838 125Z" fill="#DAEDE2"/>
<path d="M19.3838 125H109.617C110.933 125 112 123.881 112 122.5C112 121.119 110.933 120 109.617 120H19.3838C18.0679 120 17.0009 121.119 17.0009 122.5C16.9653 123.881 18.0323 125 19.3838 125Z" stroke="#383939" stroke-width="1.098" stroke-miterlimit="10" stroke-linecap="round" stroke-linejoin="round"/>
<path d="M47 120H90V118.8C90 117.81 89.0484 117 87.8852 117H49.1148C47.9516 117 47 117.81 47 118.8V120Z" fill="#383939"/>
<path d="M38 120H46V118.8C46 117.81 44.9811 117 43.7358 117H40.2642C39.0189 117 38 117.81 38 118.8V120Z" fill="#383939"/>
<path d="M29 120H37V118.8C37 117.81 35.9811 117 34.7359 117H31.2641C30.0189 117 29 117.81 29 118.8V120Z" fill="#383939"/>
<path d="M100 120H108V118.8C108 117.81 106.981 117 105.736 117H102.264C101.019 117 100 117.81 100 118.8V120Z" fill="#383939"/>
<path d="M91 120H99V118.8C99 117.81 97.9811 117 96.7359 117H93.2641C92.0189 117 91 117.81 91 118.8V120Z" fill="#383939"/>
<path d="M21 120H28V118.8C28 117.81 27.1085 117 26.0189 117H22.9811C21.8915 117 21 117.81 21 118.8V120Z" fill="#383939"/>
<path d="M133 125C132.965 122.5 130.091 120 125 120C119.944 120 117.035 122.5 117 125H133Z" fill="#DAEDE2"/>
<path d="M133 125C132.965 122.5 130.091 120 125 120C119.944 120 117.035 122.5 117 125H133Z" stroke="#383939" stroke-width="1.098" stroke-miterlimit="10" stroke-linecap="round" stroke-linejoin="round"/>
<path opacity="0.16" d="M22 68H35.7997L66 10H52.2003L22 68Z" fill="#C2D3C9"/>
<path opacity="0.16" d="M47.1124 68L77 10H71.8876L42 68H47.1124Z" fill="#C2D3C9"/>
</g>
</g>
<defs>
<clipPath id="clip0_480_4677">
<rect width="140" height="130" fill="white"/>
</clipPath>
<clipPath id="clip1_480_4677">
<rect width="140" height="124" fill="white" transform="translate(3 3)"/>
</clipPath>
</defs>
</svg>
