<svg width="13" height="13" viewBox="0 0 13 13" fill="none" xmlns="http://www.w3.org/2000/svg">
<path opacity="0.15" d="M1.89648 11.7812C1.89648 11.889 2.38156 11.9923 3.24501 12.0685C4.10846 12.1447 5.27955 12.1875 6.50065 12.1875C7.72175 12.1875 8.89284 12.1447 9.75629 12.0685C10.6197 11.9923 11.1048 11.889 11.1048 11.7812C11.1048 11.6735 10.6197 11.5702 9.75629 11.494C8.89284 11.4178 7.72175 11.375 6.50065 11.375C5.27955 11.375 4.10846 11.4178 3.24501 11.494C2.38156 11.5702 1.89648 11.6735 1.89648 11.7812Z" fill="#45413C"/>
<path d="M5.14583 6.63541C4.65833 6.16687 4.23854 4.93729 3.91896 4.01916C3.90947 3.99302 3.89216 3.97043 3.86939 3.95447C3.84661 3.93851 3.81948 3.92995 3.79167 3.92995C3.76386 3.92995 3.73672 3.93851 3.71395 3.95447C3.69117 3.97043 3.67386 3.99302 3.66437 4.01916C3.34479 4.93729 2.925 6.16687 2.4375 6.63541H5.14583ZM7.85417 6.63541C8.34167 6.16687 8.76146 4.93729 9.08104 4.01916C9.09053 3.99302 9.10784 3.97043 9.13061 3.95447C9.15339 3.93851 9.18052 3.92995 9.20833 3.92995C9.23614 3.92995 9.26328 3.93851 9.28606 3.95447C9.30883 3.97043 9.32614 3.99302 9.33563 4.01916C9.65521 4.93729 10.075 6.16687 10.5625 6.63541H7.85417Z" fill="#EBCB00" stroke="#45413C" stroke-width="0.270833" stroke-linecap="round" stroke-linejoin="round"/>
<path d="M6.37605 3.17416C6.38541 3.14865 6.40238 3.12663 6.42466 3.11107C6.44694 3.09552 6.47346 3.08717 6.50063 3.08717C6.5278 3.08717 6.55432 3.09552 6.5766 3.11107C6.59888 3.12663 6.61585 3.14865 6.62521 3.17416C6.98813 4.0977 8.07688 6.63541 9.06271 6.63541C9.92126 6.63541 10.7825 5.42208 11.2131 4.70708C11.23 4.68259 11.2543 4.6642 11.2824 4.65462C11.3106 4.64505 11.341 4.64481 11.3693 4.65393C11.3976 4.66306 11.4222 4.68106 11.4394 4.70527C11.4567 4.72949 11.4656 4.75861 11.465 4.78833L11.2402 8.66666C11.2402 9.63895 9.11688 10.4271 6.50063 10.4271C3.88438 10.4271 1.76105 9.63895 1.76105 8.66666L1.52542 4.78833C1.52479 4.75861 1.53376 4.72949 1.551 4.70527C1.56824 4.68106 1.59282 4.66306 1.62111 4.65393C1.6494 4.64481 1.67987 4.64505 1.70801 4.65462C1.73615 4.6642 1.76045 4.68259 1.7773 4.70708C2.20792 5.41666 3.06917 6.63541 3.92771 6.63541C4.92438 6.63541 6.01313 4.0977 6.37605 3.17416Z" fill="#FFE500"/>
<path d="M3.35519 9.98291L7.79415 5.54395C7.3315 4.79201 6.93981 3.99866 6.62415 3.17416C6.61478 3.14865 6.59782 3.12663 6.57554 3.11107C6.55326 3.09552 6.52674 3.08717 6.49956 3.08717C6.47239 3.08717 6.44587 3.09552 6.42359 3.11107C6.40131 3.12663 6.38434 3.14865 6.37498 3.17416C6.01206 4.0977 4.92331 6.63541 3.93748 6.63541C3.07894 6.63541 2.21769 5.42208 1.78706 4.70708C1.77021 4.68259 1.74591 4.6642 1.71778 4.65462C1.68964 4.64505 1.65916 4.64481 1.63088 4.65393C1.60259 4.66306 1.578 4.68106 1.56076 4.70527C1.54352 4.72949 1.53455 4.75861 1.53519 4.78833L1.75998 8.66666C1.75998 9.18937 2.38019 9.65791 3.35519 9.98291Z" fill="#FFF48C"/>
<path d="M6.37605 3.17416C6.38541 3.14865 6.40238 3.12663 6.42466 3.11107C6.44694 3.09552 6.47346 3.08717 6.50063 3.08717C6.5278 3.08717 6.55432 3.09552 6.5766 3.11107C6.59888 3.12663 6.61585 3.14865 6.62521 3.17416C6.98813 4.0977 8.07688 6.63541 9.06271 6.63541C9.92126 6.63541 10.7825 5.42208 11.2131 4.70708C11.23 4.68259 11.2543 4.6642 11.2824 4.65462C11.3106 4.64505 11.341 4.64481 11.3693 4.65393C11.3976 4.66306 11.4222 4.68106 11.4394 4.70527C11.4567 4.72948 11.4656 4.75861 11.465 4.78833L11.2402 8.66666C11.2402 9.63895 9.11688 10.4271 6.50063 10.4271C3.88438 10.4271 1.76105 9.63895 1.76105 8.66666L1.52542 4.78833C1.52479 4.75861 1.53376 4.72948 1.551 4.70527C1.56824 4.68106 1.59282 4.66306 1.62111 4.65393C1.6494 4.64481 1.67987 4.64505 1.70801 4.65462C1.73615 4.6642 1.76045 4.68259 1.7773 4.70708C2.20792 5.41666 3.06917 6.63541 3.92771 6.63541C4.92438 6.63541 6.01313 4.0977 6.37605 3.17416Z" stroke="#45413C" stroke-width="0.270833" stroke-linecap="round" stroke-linejoin="round"/>
<path d="M7.44857 7.58334C7.44857 7.33194 7.3487 7.09083 7.17093 6.91306C6.99316 6.73529 6.75205 6.63542 6.50065 6.63542C6.24925 6.63542 6.00814 6.73529 5.83037 6.91306C5.6526 7.09083 5.55273 7.33194 5.55273 7.58334V8.12501C5.55273 8.37641 5.6526 8.61751 5.83037 8.79528C6.00814 8.97305 6.24925 9.07292 6.50065 9.07292C6.75205 9.07292 6.99316 8.97305 7.17093 8.79528C7.3487 8.61751 7.44857 8.37641 7.44857 8.12501V7.58334Z" fill="#60BBE0"/>
<path d="M6.50065 8.66667C6.24925 8.66667 6.00814 8.5668 5.83037 8.38903C5.6526 8.21126 5.55273 7.97015 5.55273 7.71875V8.125C5.55273 8.3764 5.6526 8.61751 5.83037 8.79528C6.00814 8.97305 6.24925 9.07292 6.50065 9.07292C6.75205 9.07292 6.99316 8.97305 7.17093 8.79528C7.3487 8.61751 7.44857 8.3764 7.44857 8.125V7.71875C7.44857 7.97015 7.3487 8.21126 7.17093 8.38903C6.99316 8.5668 6.75205 8.66667 6.50065 8.66667Z" fill="#389EC7"/>
<path d="M6.49981 6.63542C6.24841 6.63542 6.0073 6.73529 5.82953 6.91306C5.65177 7.09083 5.5519 7.33194 5.5519 7.58334V8.12501C5.55041 8.14755 5.55041 8.17017 5.5519 8.19271C5.5699 7.95579 5.67672 7.73441 5.85098 7.57288C6.02524 7.41136 6.25408 7.32161 6.49169 7.32161C6.72929 7.32161 6.95813 7.41136 7.1324 7.57288C7.30666 7.73441 7.41348 7.95579 7.43148 8.19271C7.43297 8.17017 7.43297 8.14755 7.43148 8.12501V7.58334C7.43152 7.33473 7.33388 7.09605 7.15961 6.91874C6.98534 6.74143 6.74839 6.63968 6.49981 6.63542Z" fill="#94D1EA"/>
<path d="M7.44857 7.58334C7.44857 7.33194 7.3487 7.09083 7.17093 6.91306C6.99316 6.73529 6.75205 6.63542 6.50065 6.63542C6.24925 6.63542 6.00814 6.73529 5.83037 6.91306C5.6526 7.09083 5.55273 7.33194 5.55273 7.58334V8.12501C5.55273 8.37641 5.6526 8.61751 5.83037 8.79528C6.00814 8.97305 6.24925 9.07292 6.50065 9.07292C6.75205 9.07292 6.99316 8.97305 7.17093 8.79528C7.3487 8.61751 7.44857 8.37641 7.44857 8.12501V7.58334Z" stroke="#45413C" stroke-width="0.270833" stroke-linecap="round" stroke-linejoin="round"/>
<path d="M9.07292 7.98959C9.07292 8.13325 9.12998 8.27102 9.23157 8.3726C9.33315 8.47419 9.47092 8.53126 9.61458 8.53126C9.75824 8.53126 9.89602 8.47419 9.9976 8.3726C10.0992 8.27102 10.1563 8.13325 10.1563 7.98959C10.1563 7.84593 10.0992 7.70815 9.9976 7.60657C9.89602 7.50499 9.75824 7.44792 9.61458 7.44792C9.47092 7.44792 9.33315 7.50499 9.23157 7.60657C9.12998 7.70815 9.07292 7.84593 9.07292 7.98959ZM2.84375 7.98959C2.84375 8.13325 2.90082 8.27102 3.0024 8.3726C3.10398 8.47419 3.24176 8.53126 3.38542 8.53126C3.52908 8.53126 3.66685 8.47419 3.76843 8.3726C3.87002 8.27102 3.92708 8.13325 3.92708 7.98959C3.92708 7.84593 3.87002 7.70815 3.76843 7.60657C3.66685 7.50499 3.52908 7.44792 3.38542 7.44792C3.24176 7.44792 3.10398 7.50499 3.0024 7.60657C2.90082 7.70815 2.84375 7.84593 2.84375 7.98959Z" fill="#60BBE0" stroke="#45413C" stroke-width="0.270833" stroke-linecap="round" stroke-linejoin="round"/>
<path d="M1.75977 10.0208C1.75977 10.9931 3.8831 11.7813 6.49935 11.7813C9.1156 11.7813 11.2389 10.9931 11.2389 10.0208V8.66667C11.2389 9.63896 9.1156 10.4271 6.49935 10.4271C3.8831 10.4271 1.75977 9.63896 1.75977 8.66667V10.0208Z" fill="#C0DCEB"/>
<path d="M6.49935 10.4271C3.8831 10.4271 1.75977 9.63896 1.75977 8.66667V9.34376C1.75977 10.316 3.8831 11.1042 6.49935 11.1042C9.1156 11.1042 11.2389 10.316 11.2389 9.34376V8.66667C11.2389 9.63896 9.1156 10.4271 6.49935 10.4271Z" fill="#E8F4FA"/>
<path d="M1.75977 10.0208C1.75977 10.9931 3.8831 11.7813 6.49935 11.7813C9.1156 11.7813 11.2389 10.9931 11.2389 10.0208V8.66667C11.2389 9.63896 9.1156 10.4271 6.49935 10.4271C3.8831 10.4271 1.75977 9.63896 1.75977 8.66667V10.0208Z" stroke="#45413C" stroke-width="0.270833" stroke-linecap="round" stroke-linejoin="round"/>
<path d="M3.11523 3.38541C3.11523 3.56499 3.18657 3.7372 3.31355 3.86418C3.44053 3.99116 3.61274 4.06249 3.79232 4.06249C3.97189 4.06249 4.14411 3.99116 4.27109 3.86418C4.39807 3.7372 4.4694 3.56499 4.4694 3.38541C4.4694 3.20584 4.39807 3.03362 4.27109 2.90664C4.14411 2.77966 3.97189 2.70833 3.79232 2.70833C3.61274 2.70833 3.44053 2.77966 3.31355 2.90664C3.18657 3.03362 3.11523 3.20584 3.11523 3.38541Z" fill="#60BBE0"/>
<path d="M3.31184 3.8648C3.18471 3.73766 3.11328 3.56523 3.11328 3.38543C3.11328 3.20563 3.18471 3.03319 3.31184 2.90605C3.43898 2.77891 3.61142 2.70749 3.79122 2.70749C3.97102 2.70749 4.14346 2.77891 4.27059 2.90605L3.31184 3.8648Z" fill="white" fill-opacity="0.33"/>
<path d="M3.11523 3.38541C3.11523 3.56499 3.18657 3.7372 3.31355 3.86418C3.44053 3.99116 3.61274 4.06249 3.79232 4.06249C3.97189 4.06249 4.14411 3.99116 4.27109 3.86418C4.39807 3.7372 4.4694 3.56499 4.4694 3.38541C4.4694 3.20584 4.39807 3.03362 4.27109 2.90664C4.14411 2.77966 3.97189 2.70833 3.79232 2.70833C3.61274 2.70833 3.44053 2.77966 3.31355 2.90664C3.18657 3.03362 3.11523 3.20584 3.11523 3.38541Z" stroke="#45413C" stroke-width="0.270833" stroke-linecap="round" stroke-linejoin="round"/>
<path d="M8.53125 3.38541C8.53125 3.56499 8.60258 3.7372 8.72956 3.86418C8.85654 3.99116 9.02876 4.06249 9.20833 4.06249C9.38791 4.06249 9.56013 3.99116 9.6871 3.86418C9.81408 3.7372 9.88542 3.56499 9.88542 3.38541C9.88542 3.20584 9.81408 3.03362 9.6871 2.90664C9.56013 2.77966 9.38791 2.70833 9.20833 2.70833C9.02876 2.70833 8.85654 2.77966 8.72956 2.90664C8.60258 3.03362 8.53125 3.20584 8.53125 3.38541Z" fill="#60BBE0"/>
<path d="M8.72786 3.8648C8.60072 3.73766 8.5293 3.56523 8.5293 3.38543C8.5293 3.2964 8.54683 3.20824 8.5809 3.12599C8.61497 3.04374 8.66491 2.969 8.72786 2.90605C8.79081 2.8431 8.86555 2.79316 8.9478 2.75909C9.03005 2.72502 9.11821 2.70749 9.20724 2.70749C9.38704 2.70749 9.55947 2.77891 9.68661 2.90605L8.72786 3.8648Z" fill="white" fill-opacity="0.33"/>
<path d="M8.53125 3.38541C8.53125 3.56499 8.60258 3.7372 8.72956 3.86418C8.85654 3.99116 9.02876 4.06249 9.20833 4.06249C9.38791 4.06249 9.56013 3.99116 9.6871 3.86418C9.81408 3.7372 9.88542 3.56499 9.88542 3.38541C9.88542 3.20584 9.81408 3.03362 9.6871 2.90664C9.56013 2.77966 9.38791 2.70833 9.20833 2.70833C9.02876 2.70833 8.85654 2.77966 8.72956 2.90664C8.60258 3.03362 8.53125 3.20584 8.53125 3.38541Z" stroke="#45413C" stroke-width="0.270833" stroke-linecap="round" stroke-linejoin="round"/>
<path d="M0.677734 3.92708C0.677734 4.03378 0.69875 4.13943 0.739582 4.23801C0.780414 4.33659 0.840263 4.42616 0.91571 4.5016C0.991158 4.57705 1.08073 4.6369 1.1793 4.67773C1.27788 4.71856 1.38354 4.73958 1.49023 4.73958C1.59693 4.73958 1.70259 4.71856 1.80116 4.67773C1.89974 4.6369 1.98931 4.57705 2.06476 4.5016C2.14021 4.42616 2.20005 4.33659 2.24089 4.23801C2.28172 4.13943 2.30273 4.03378 2.30273 3.92708C2.30273 3.82038 2.28172 3.71473 2.24089 3.61615C2.20005 3.51757 2.14021 3.428 2.06476 3.35255C1.98931 3.27711 1.89974 3.21726 1.80116 3.17643C1.70259 3.13559 1.59693 3.11458 1.49023 3.11458C1.38354 3.11458 1.27788 3.13559 1.1793 3.17643C1.08073 3.21726 0.991158 3.27711 0.91571 3.35255C0.840263 3.428 0.780414 3.51757 0.739582 3.61615C0.69875 3.71473 0.677734 3.82038 0.677734 3.92708Z" fill="#60BBE0"/>
<path d="M0.915332 4.50126C0.771812 4.34723 0.693678 4.14352 0.697392 3.93302C0.701106 3.72253 0.786377 3.5217 0.935242 3.37283C1.08411 3.22397 1.28494 3.1387 1.49543 3.13498C1.70593 3.13127 1.90964 3.2094 2.06367 3.35292L0.915332 4.50126Z" fill="white" fill-opacity="0.33"/>
<path d="M0.677734 3.92708C0.677734 4.03378 0.69875 4.13943 0.739582 4.23801C0.780414 4.33659 0.840263 4.42616 0.91571 4.5016C0.991158 4.57705 1.08073 4.6369 1.1793 4.67773C1.27788 4.71856 1.38354 4.73958 1.49023 4.73958C1.59693 4.73958 1.70259 4.71856 1.80116 4.67773C1.89974 4.6369 1.98931 4.57705 2.06476 4.5016C2.14021 4.42616 2.20005 4.33659 2.24089 4.23801C2.28172 4.13943 2.30273 4.03378 2.30273 3.92708C2.30273 3.82038 2.28172 3.71473 2.24089 3.61615C2.20005 3.51757 2.14021 3.428 2.06476 3.35255C1.98931 3.27711 1.89974 3.21726 1.80116 3.17643C1.70259 3.13559 1.59693 3.11458 1.49023 3.11458C1.38354 3.11458 1.27788 3.13559 1.1793 3.17643C1.08073 3.21726 0.991158 3.27711 0.91571 3.35255C0.840263 3.428 0.780414 3.51757 0.739582 3.61615C0.69875 3.71473 0.677734 3.82038 0.677734 3.92708Z" stroke="#45413C" stroke-width="0.270833" stroke-linecap="round" stroke-linejoin="round"/>
<path d="M5.6875 2.57292C5.6875 2.78841 5.7731 2.99507 5.92548 3.14745C6.07785 3.29982 6.28451 3.38542 6.5 3.38542C6.71549 3.38542 6.92215 3.29982 7.07452 3.14745C7.2269 2.99507 7.3125 2.78841 7.3125 2.57292C7.3125 2.35743 7.2269 2.15077 7.07452 1.9984C6.92215 1.84602 6.71549 1.76042 6.5 1.76042C6.28451 1.76042 6.07785 1.84602 5.92548 1.9984C5.7731 2.15077 5.6875 2.35743 5.6875 2.57292Z" fill="#60BBE0"/>
<path d="M5.9251 3.14708C5.78158 2.99306 5.70344 2.78935 5.70716 2.57885C5.71087 2.36836 5.79614 2.16753 5.94501 2.01866C6.09387 1.8698 6.29471 1.78453 6.5052 1.78081C6.71569 1.7771 6.91941 1.85523 7.07343 1.99875L5.9251 3.14708Z" fill="white" fill-opacity="0.33"/>
<path d="M5.6875 2.57292C5.6875 2.78841 5.7731 2.99507 5.92548 3.14745C6.07785 3.29982 6.28451 3.38542 6.5 3.38542C6.71549 3.38542 6.92215 3.29982 7.07452 3.14745C7.2269 2.99507 7.3125 2.78841 7.3125 2.57292C7.3125 2.35743 7.2269 2.15077 7.07452 1.9984C6.92215 1.84602 6.71549 1.76042 6.5 1.76042C6.28451 1.76042 6.07785 1.84602 5.92548 1.9984C5.7731 2.15077 5.6875 2.35743 5.6875 2.57292Z" stroke="#45413C" stroke-width="0.270833" stroke-linecap="round" stroke-linejoin="round"/>
<path d="M10.6973 3.92708C10.6973 4.14257 10.7829 4.34923 10.9352 4.5016C11.0876 4.65398 11.2943 4.73958 11.5098 4.73958C11.7253 4.73958 11.9319 4.65398 12.0843 4.5016C12.2367 4.34923 12.3223 4.14257 12.3223 3.92708C12.3223 3.71159 12.2367 3.50493 12.0843 3.35255C11.9319 3.20018 11.7253 3.11458 11.5098 3.11458C11.2943 3.11458 11.0876 3.20018 10.9352 3.35255C10.7829 3.50493 10.6973 3.71159 10.6973 3.92708Z" fill="#60BBE0"/>
<path d="M10.9363 4.50125C10.8565 4.42686 10.7925 4.33716 10.7481 4.2375C10.7037 4.13783 10.6798 4.03024 10.6779 3.92115C10.6759 3.81205 10.696 3.70369 10.7369 3.60252C10.7777 3.50135 10.8386 3.40944 10.9157 3.33229C10.9929 3.25514 11.0848 3.19431 11.1859 3.15345C11.2871 3.11258 11.3955 3.09252 11.5046 3.09444C11.6137 3.09637 11.7213 3.12024 11.8209 3.16465C11.9206 3.20906 12.0103 3.27309 12.0847 3.35292L10.9363 4.50125Z" fill="white" fill-opacity="0.33"/>
<path d="M10.6973 3.92708C10.6973 4.14257 10.7829 4.34923 10.9352 4.5016C11.0876 4.65398 11.2943 4.73958 11.5098 4.73958C11.7253 4.73958 11.9319 4.65398 12.0843 4.5016C12.2367 4.34923 12.3223 4.14257 12.3223 3.92708C12.3223 3.71159 12.2367 3.50493 12.0843 3.35255C11.9319 3.20018 11.7253 3.11458 11.5098 3.11458C11.2943 3.11458 11.0876 3.20018 10.9352 3.35255C10.7829 3.50493 10.6973 3.71159 10.6973 3.92708Z" stroke="#45413C" stroke-width="0.270833" stroke-linecap="round" stroke-linejoin="round"/>
</svg>
