<svg width="20" height="21" viewBox="0 0 20 21" fill="none" xmlns="http://www.w3.org/2000/svg">
<path d="M16.1068 5.23332L10.8818 2.41665C10.3318 2.11665 9.6651 2.11665 9.1151 2.41665L3.8901 5.23332C3.50677 5.44165 3.27344 5.84165 3.27344 6.29998C3.27344 6.74998 3.50677 7.15832 3.8901 7.36665L9.1151 10.1833C9.3901 10.3333 9.69844 10.4083 9.99844 10.4083C10.2984 10.4083 10.6068 10.3333 10.8818 10.1833L16.1068 7.36665C16.4901 7.15832 16.7234 6.75832 16.7234 6.29998C16.7234 5.84165 16.4901 5.44165 16.1068 5.23332Z" fill="#1D2D5A"/>
<path opacity="0.4" d="M8.25964 11.1583L3.39297 8.72501C3.01797 8.54168 2.58464 8.55834 2.23464 8.77501C1.8763 9.00001 1.66797 9.37501 1.66797 9.79168V14.3833C1.66797 15.175 2.10964 15.8917 2.81797 16.25L7.6763 18.6833C7.84297 18.7667 8.0263 18.8083 8.20964 18.8083C8.4263 18.8083 8.64297 18.75 8.83464 18.6333C9.19297 18.4167 9.4013 18.0333 9.4013 17.6167V13.025C9.40964 12.225 8.96797 11.5083 8.25964 11.1583Z" fill="#1D2D5A"/>
<path opacity="0.4" d="M17.7643 8.775C17.406 8.55833 16.9727 8.53333 16.606 8.72499L11.7477 11.1583C11.0393 11.5167 10.5977 12.225 10.5977 13.025V17.6167C10.5977 18.0333 10.806 18.4167 11.1643 18.6333C11.356 18.75 11.5727 18.8083 11.7893 18.8083C11.9727 18.8083 12.156 18.7667 12.3227 18.6833L17.181 16.25C17.8893 15.8917 18.331 15.1833 18.331 14.3833V9.79166C18.331 9.37499 18.1227 9 17.7643 8.775Z" fill="#1D2D5A"/>
</svg>
