<svg width="17" height="16" viewBox="0 0 17 16" fill="none" xmlns="http://www.w3.org/2000/svg">
<path d="M3.40237 2.96292L5.29106 5.45511L7.73247 2.96292H3.40237ZM9.31644 2.96292L11.7256 5.42189L13.5596 2.96289H9.31641L9.31644 2.96292ZM8.52444 2.98927L5.877 5.69145H11.1719L8.52444 2.98927ZM14.084 3.23633L12.252 5.69142H15.9531L14.084 3.23633ZM2.89453 3.25977L1.08891 5.69142H4.73828L2.89453 3.25977ZM1.06641 6.27539L7.57912 13.4131L4.97856 6.27533H1.06644L1.06641 6.27539ZM5.59962 6.27539L8.52441 14.3018L11.4492 6.27539H5.59969H5.59962ZM12.0702 6.27539L9.46981 13.4131L15.9825 6.27533H12.0703L12.0702 6.27539Z" fill="#F8F8F8"/>
</svg>
