<svg width="269" height="157" viewBox="0 0 269 157" fill="none" xmlns="http://www.w3.org/2000/svg">
<path d="M161.782 41.4755C157.63 44.0396 167.35 71.9527 171.843 71.3177C174.652 70.927 177.802 59.034 172.381 49.9006C169.548 45.0897 163.833 40.2056 161.782 41.4755Z" fill="white" fill-opacity="0.06"/>
<path d="M90.3087 18.5933C83.2266 21.597 75.2898 25.0404 72.0174 32.7573C66.7425 45.1631 78.8797 54.907 73.1164 67.1663C69.7707 74.2484 65.1063 72.2703 58.4883 80.5489C50.6248 90.415 46.0337 107.265 52.8959 120.501C58.122 130.612 67.9392 134.592 76.2911 137.987C79.1728 139.159 98.2454 146.632 116.39 140.38C120.737 138.89 122.495 136.741 126.207 137.108C135.194 138.036 136.537 150.026 144.743 151.98C151.629 153.616 159.639 147.291 164.695 140.942C165.696 139.672 166.599 138.402 167.356 137.181C171.752 128.707 175.293 118.914 176.221 109.097C176.441 106.63 176.514 104.188 176.392 101.746C175.928 95.4945 174.658 89.4137 170.824 83.8702C163.938 73.2471 153.461 64.9196 153.412 51.6835C153.119 49.681 152.924 47.6052 152.728 45.505C151.727 34.9552 150.872 23.6484 140.445 16.9082C126.647 8.06786 110.554 11.6089 96.6581 16.2977C94.3625 17.0059 92.2623 17.7629 90.3087 18.5933Z" fill="white" fill-opacity="0.18"/>
<path d="M145.907 130.074H93.0117L94.9898 121.6C96.0155 117.204 101.437 114.005 107.786 114.005H131.133C137.482 114.005 142.904 117.229 143.929 121.6L145.907 130.074Z" fill="#FFE34F"/>
<path d="M145.907 130.074H93.0117L94.9898 121.6C96.0155 117.204 101.437 114.005 107.786 114.005H131.133C137.482 114.005 142.904 117.229 143.929 121.6L145.907 130.074Z" stroke="#1D2D5A" stroke-width="1.46525" stroke-miterlimit="10" stroke-linecap="round" stroke-linejoin="round"/>
<path d="M138.51 123.627H131.867C129.327 123.627 127.276 121.576 127.276 119.036V108.511H111.647V119.036C111.647 121.576 109.595 123.627 107.056 123.627H100.413C90.6936 123.627 82.8301 131.491 82.8301 141.21V155.545H156.093V141.21C156.093 131.491 148.205 123.627 138.51 123.627Z" fill="#FBE3D5"/>
<path d="M119.168 113.346C123.646 113.346 127.276 111.214 127.276 108.584C127.276 105.954 123.646 103.822 119.168 103.822C114.69 103.822 111.061 105.954 111.061 108.584C111.061 111.214 114.69 113.346 119.168 113.346Z" fill="#D5B6A5"/>
<path d="M156.093 141.21V155.545H82.8301V141.21C82.8301 131.491 90.6936 123.627 100.413 123.627H107.056C107.227 123.627 107.397 123.627 107.568 123.603C109.376 128.511 114.113 132.028 119.657 132.028C125.2 132.028 129.913 128.536 131.721 123.627C131.769 123.627 131.818 123.627 131.892 123.627H138.51C148.205 123.627 156.093 131.491 156.093 141.21Z" fill="#60BBE0"/>
<path d="M112.623 142.09C105.76 142.09 100.168 136.497 100.168 129.635V123.579H139.217V129.635C139.217 136.497 133.625 142.09 126.762 142.09H112.623Z" fill="#FFE34F"/>
<path d="M138.51 123.627H131.867C129.327 123.627 127.276 121.576 127.276 119.036V108.511H111.647V119.036C111.647 121.576 109.595 123.627 107.056 123.627H100.413C90.6936 123.627 82.8301 131.491 82.8301 141.21V155.545H156.093V141.21C156.093 131.491 148.205 123.627 138.51 123.627Z" stroke="#1D2D5A" stroke-width="1.46525" stroke-miterlimit="10" stroke-linecap="round" stroke-linejoin="round"/>
<path d="M136.433 49.7302C136.164 46.0182 137.141 43.2098 138.875 42.5993C140.584 41.9887 142.587 43.6738 143.271 44.2599C149.742 49.6813 145.762 67.826 144.663 72.4904L136.433 49.7302Z" fill="#292D32"/>
<path d="M135.946 49.73C135.678 46.018 136.655 43.2096 138.389 42.5991C138.73 42.477 139.072 42.4526 139.414 42.477" stroke="#4E5A7D" stroke-width="1.46525" stroke-miterlimit="10" stroke-linecap="round" stroke-linejoin="round"/>
<path d="M139.901 42.4766C141.318 42.5987 142.71 43.7709 143.271 44.2593C149.743 49.6807 145.762 67.8254 144.663 72.4898L136.434 49.754" stroke="#7791B1" stroke-width="1.46525" stroke-miterlimit="10" stroke-linecap="round" stroke-linejoin="round"/>
<path d="M93.9414 74.1504V65.9206C93.9414 56.5674 102.22 58.9851 111.549 58.9851L128.814 59.6444C134.236 59.6444 137.508 51.5611 140.585 55.5173C140.488 52.6356 139.95 48.9725 138.265 45.1384C137.337 42.9894 133.454 34.8573 124.516 31.1209C121.488 29.851 118.973 29.5579 117.434 29.387C111.549 28.7276 109.131 27.6775 99.0209 30.4859C92.6227 32.2442 88.0316 35.4434 87.9583 36.8353C87.885 38.1052 90.9865 37.7878 93.5263 39.6926C97.6534 42.7696 91.8901 49.7051 91.0842 58.4966C90.7423 62.2575 91.0598 67.5324 93.9414 74.1504Z" fill="#292D32"/>
<path d="M139.411 48.2643C139.094 46.9944 138.459 45.6024 138.263 45.1384C137.335 42.9894 133.452 34.8573 124.514 31.1209C121.486 29.851 118.971 29.5579 117.432 29.387C111.547 28.7276 107.566 28.0927 97.456 30.9011C91.0578 32.6594 87.4435 34.1491 87.9563 36.8354C88.2738 38.5204 92.059 38.0564 94.2569 41.2311C97.1874 45.4803 91.8881 49.7051 91.0822 58.5211C90.7403 62.2819 91.0578 67.5568 93.9394 74.1748V65.945C93.9394 56.5918 102.218 59.0095 111.547 59.0095L128.812 59.6688C134.234 59.6688 137.506 51.5855 140.583 55.5417" stroke="#4E5A7D" stroke-width="1.46525" stroke-miterlimit="10" stroke-linecap="round" stroke-linejoin="round"/>
<path d="M139.73 54.4675C138.508 53.1488 136.677 52.5871 134.919 52.9534C130.547 53.8814 125.224 54.4187 119.46 54.4187C113.453 54.4187 107.909 53.8326 103.416 52.8313C101.657 52.4406 99.8014 52.9779 98.5804 54.2966C95.7231 57.3248 93.9648 61.4031 93.9648 65.8965V86.7519C93.9648 100.135 104.832 111.002 118.215 111.002H119.973C133.356 111.002 144.223 100.135 144.223 86.7519V65.8965C144.199 61.5007 142.489 57.4957 139.73 54.4675Z" fill="#FBE3D5"/>
<path d="M119.95 108.022H118.191C104.809 108.022 93.9414 97.1551 93.9414 83.7725V86.2878C93.9414 99.6704 104.809 110.538 118.191 110.538H119.95C133.332 110.538 144.2 99.6704 144.2 86.2878V83.7725C144.2 97.1551 133.332 108.022 119.95 108.022Z" fill="#D5B6A5"/>
<path d="M120.779 88.022C120.779 88.022 123.246 87.265 124.394 87.6313C125.224 84.0414 122.684 80.769 122.684 80.769" stroke="#4E5A7D" stroke-width="1.46525" stroke-miterlimit="10" stroke-linecap="round" stroke-linejoin="round"/>
<path d="M125.711 98.3766C124.294 99.3045 122.487 99.8662 120.485 99.8662C116.04 99.8662 112.426 97.0822 112.426 93.6633" stroke="#4E5A7D" stroke-width="1.46525" stroke-miterlimit="10" stroke-linecap="round" stroke-linejoin="round"/>
<path d="M111.548 75.6404C112.923 75.6404 114.038 74.2408 114.038 72.5145C114.038 70.7882 112.923 69.3887 111.548 69.3887C110.172 69.3887 109.057 70.7882 109.057 72.5145C109.057 74.2408 110.172 75.6404 111.548 75.6404Z" fill="#292D32"/>
<path d="M130.012 75.5183C131.388 75.5183 132.503 74.1188 132.503 72.3925C132.503 70.6662 131.388 69.2666 130.012 69.2666C128.637 69.2666 127.521 70.6662 127.521 72.3925C127.521 74.1188 128.637 75.5183 130.012 75.5183Z" fill="#292D32"/>
<path d="M139.73 54.4675C138.508 53.1488 136.677 52.5871 134.919 52.9534C130.547 53.8814 125.224 54.4187 119.46 54.4187C113.453 54.4187 107.909 53.8326 103.416 52.8313C101.657 52.4406 99.8014 52.9779 98.5804 54.2966C95.7231 57.3248 93.9648 61.4031 93.9648 65.8965V86.7519C93.9648 100.135 104.832 111.002 118.215 111.002H119.973C133.356 111.002 144.223 100.135 144.223 86.7519V65.8965C144.199 61.5007 142.489 57.4957 139.73 54.4675Z" stroke="#1D2D5A" stroke-width="1.46525" stroke-miterlimit="10" stroke-linecap="round" stroke-linejoin="round"/>
<path d="M138.266 44.7239C138.266 44.7239 143.296 44.7239 144.175 54.2724" stroke="#4E5A7D" stroke-width="0.976834" stroke-miterlimit="10" stroke-linecap="round" stroke-linejoin="round"/>
<path d="M110.107 32.9041C120.486 33.4413 130.181 38.6185 131.354 47.6298" stroke="#4E5A7D" stroke-width="0.976834" stroke-miterlimit="10" stroke-linecap="round" stroke-linejoin="round"/>
<path d="M103.025 33.6854C104.369 33.2702 106.078 32.8795 107.836 32.9039" stroke="#4E5A7D" stroke-width="0.976834" stroke-miterlimit="10" stroke-linecap="round" stroke-linejoin="round"/>
<path d="M110.963 38.4719C116.58 39.3755 123.857 40.2546 126.568 49.5101" stroke="#4E5A7D" stroke-width="0.976834" stroke-miterlimit="10" stroke-linecap="round" stroke-linejoin="round"/>
<path d="M118.777 102.748C118.777 102.748 120.169 103.578 122.685 102.748" stroke="#4E5A7D" stroke-width="1.46525" stroke-miterlimit="10" stroke-linecap="round" stroke-linejoin="round"/>
<path d="M107.519 89.9269C110.054 89.9269 112.11 87.8714 112.11 85.3357C112.11 82.8001 110.054 80.7446 107.519 80.7446C104.983 80.7446 102.928 82.8001 102.928 85.3357C102.928 87.8714 104.983 89.9269 107.519 89.9269Z" fill="#F5CFC4"/>
<path d="M131.743 89.9269C134.279 89.9269 136.335 87.8714 136.335 85.3357C136.335 82.8001 134.279 80.7446 131.743 80.7446C129.208 80.7446 127.152 82.8001 127.152 85.3357C127.152 87.8714 129.208 89.9269 131.743 89.9269Z" fill="#F5CFC4"/>
<path d="M93.2586 80.2804H93.747V67.4351H93.2586C91.6469 67.4351 90.3281 68.7538 90.3281 70.3656V77.3499C90.3281 78.9617 91.6469 80.2804 93.2586 80.2804Z" fill="#FEF0E3"/>
<path d="M93.2586 80.2804H93.747V67.4351H93.2586C91.6469 67.4351 90.3281 68.7538 90.3281 70.3656V77.3499C90.3281 78.9617 91.6469 80.2804 93.2586 80.2804Z" stroke="#1D2D5A" stroke-width="1.46525" stroke-miterlimit="10" stroke-linecap="round" stroke-linejoin="round"/>
<path d="M144.69 80.2804H144.201V67.4351H144.69C146.301 67.4351 147.62 68.7538 147.62 70.3656V77.3499C147.62 78.9617 146.301 80.2804 144.69 80.2804Z" fill="#FEF0E3"/>
<path d="M144.69 80.2804H144.201V67.4351H144.69C146.301 67.4351 147.62 68.7538 147.62 70.3656V77.3499C147.62 78.9617 146.301 80.2804 144.69 80.2804Z" stroke="#1D2D5A" stroke-width="1.46525" stroke-miterlimit="10" stroke-linecap="round" stroke-linejoin="round"/>
<path d="M126.764 140.136H112.624C106.836 140.136 102.123 135.422 102.123 129.635V119.866H137.265V129.635C137.265 135.447 132.576 140.136 126.764 140.136Z" fill="#FFE34F"/>
<path d="M137.265 119.866V129.635C137.265 135.422 132.551 140.136 126.764 140.136H112.624C106.836 140.136 102.123 135.422 102.123 129.635V119.866" stroke="#1D2D5A" stroke-width="1.46525" stroke-miterlimit="10" stroke-linecap="round" stroke-linejoin="round"/>
<path d="M131.697 123.627C129.89 128.536 125.152 132.028 119.633 132.028C114.09 132.028 109.352 128.512 107.545 123.603C109.84 123.359 111.648 121.405 111.648 119.036V118.182H127.277V119.036C127.277 121.503 129.231 123.53 131.697 123.627Z" fill="#FBE3D5"/>
<path d="M130.037 123.237C128.4 127.486 124.322 130.319 119.633 130.319C114.896 130.319 110.793 127.413 109.181 123.09C108.693 123.359 108.131 123.53 107.545 123.603C109.352 128.512 114.09 132.028 119.633 132.028C125.177 132.028 129.89 128.536 131.697 123.627C131.111 123.603 130.549 123.456 130.037 123.237Z" fill="#EDD4C6"/>
<path d="M127.276 118.157V119.012C127.276 121.137 128.717 122.944 130.695 123.457C131.207 123.603 131.501 124.165 131.281 124.653C129.205 129 124.785 132.004 119.656 132.004C114.479 132.004 110.035 128.951 107.983 124.555C107.763 124.091 108.008 123.53 108.52 123.383C110.352 122.773 111.671 121.063 111.671 119.012V118.157" stroke="#1D2D5A" stroke-width="1.46525" stroke-miterlimit="10" stroke-linecap="round" stroke-linejoin="round"/>
<path d="M107.08 122.041C108.399 127.755 113.503 132.029 119.632 132.029C125.762 132.029 130.866 127.755 132.185 122.041" stroke="#1D2D5A" stroke-width="1.46525" stroke-miterlimit="10" stroke-linecap="round" stroke-linejoin="round"/>
<path d="M110.594 135.862C111.673 135.862 112.548 135.359 112.548 134.739C112.548 134.118 111.673 133.615 110.594 133.615C109.515 133.615 108.641 134.118 108.641 134.739C108.641 135.359 109.515 135.862 110.594 135.862Z" fill="#4E5A7D"/>
<path d="M110.596 134.739V147.462" stroke="#1D2D5A" stroke-width="1.95367" stroke-miterlimit="10" stroke-linecap="round" stroke-linejoin="round"/>
<path d="M128.299 135.862C129.378 135.862 130.253 135.359 130.253 134.739C130.253 134.118 129.378 133.615 128.299 133.615C127.22 133.615 126.346 134.118 126.346 134.739C126.346 135.359 127.22 135.862 128.299 135.862Z" fill="#4E5A7D"/>
<path d="M128.301 134.739V144.043" stroke="#1D2D5A" stroke-width="1.95367" stroke-miterlimit="10" stroke-linecap="round" stroke-linejoin="round"/>
<path d="M111.307 150.832H109.842C108.914 150.832 108.23 149.977 108.45 149.074L109.085 146.241H112.064L112.699 149.074C112.919 149.977 112.235 150.832 111.307 150.832Z" fill="white"/>
<path d="M111.307 150.832H109.842C108.914 150.832 108.23 149.977 108.45 149.074L109.085 146.241H112.064L112.699 149.074C112.919 149.977 112.235 150.832 111.307 150.832Z" stroke="#1D2D5A" stroke-width="1.46525" stroke-miterlimit="10" stroke-linecap="round" stroke-linejoin="round"/>
<path d="M129.035 148.536H127.57C126.642 148.536 125.958 147.682 126.178 146.778L126.813 143.945H129.792L130.427 146.778C130.647 147.682 129.963 148.536 129.035 148.536Z" fill="white"/>
<path d="M129.035 148.536H127.57C126.642 148.536 125.958 147.682 126.178 146.778L126.813 143.945H129.792L130.427 146.778C130.647 147.682 129.963 148.536 129.035 148.536Z" stroke="#1D2D5A" stroke-width="1.46525" stroke-miterlimit="10" stroke-linecap="round" stroke-linejoin="round"/>
<path opacity="0.58" d="M117.51 122.626C117.51 122.626 118.291 122.699 119.17 123.603C119.17 123.603 120.196 122.626 121.075 122.626" stroke="#D5B6A5" stroke-width="1.46525" stroke-miterlimit="10" stroke-linecap="round" stroke-linejoin="round"/>
<path d="M120.486 48.4847C120.486 48.4847 119.949 45.4077 114.527 43.7227" stroke="#4E5A7D" stroke-width="0.976834" stroke-miterlimit="10" stroke-linecap="round" stroke-linejoin="round"/>
<path d="M97.75 146.241V155.545" stroke="#1D2D5A" stroke-width="1.46525" stroke-miterlimit="10" stroke-linecap="round" stroke-linejoin="round"/>
<path d="M140.611 146.241V155.545" stroke="#1D2D5A" stroke-width="1.46525" stroke-miterlimit="10" stroke-linecap="round" stroke-linejoin="round"/>
<path d="M49.0312 155.545H166.251" stroke="#4E5A7D" stroke-width="1.46525" stroke-miterlimit="10" stroke-linecap="round" stroke-linejoin="round"/>
<path d="M172.967 155.545H181.392" stroke="#4E5A7D" stroke-width="1.46525" stroke-miterlimit="10" stroke-linecap="round" stroke-linejoin="round"/>
<path d="M188.23 155.545H192.724" stroke="#4E5A7D" stroke-width="1.46525" stroke-miterlimit="10" stroke-linecap="round" stroke-linejoin="round"/>
<path d="M188.044 0.930916L263.789 0.477867C264.312 0.456696 264.834 0.538876 265.326 0.719697C265.817 0.900517 266.268 1.17643 266.652 1.53166C267.037 1.88689 267.348 2.31446 267.567 2.78991C267.786 3.26536 267.91 3.77936 267.93 4.30251C267.946 4.51997 267.946 4.73829 267.93 4.95575L264.211 39.7884C264.039 41.0223 263.436 42.1556 262.508 42.987C261.58 43.8184 260.388 44.294 259.143 44.3295L227.629 44.6772C222.528 50.7613 215.469 54.8812 207.663 56.3302C207.663 56.3302 214.922 49.6819 216.629 44.7404H183.398C182.343 44.7803 181.316 44.3999 180.541 43.6828C179.767 42.9656 179.309 41.9704 179.268 40.9158C179.252 40.6983 179.252 40.48 179.268 40.2625L182.977 5.51417C183.139 4.27257 183.738 3.12935 184.667 2.28947C185.595 1.44958 186.793 0.967943 188.044 0.930916Z" fill="white"/>
<path d="M206.041 57.141L207.284 55.9926C207.358 55.9399 213.795 49.9975 215.839 45.3194H183.388C182.798 45.346 182.209 45.2544 181.656 45.0499C181.102 44.8454 180.595 44.5323 180.164 44.1288C179.637 43.6389 179.235 43.0309 178.99 42.355C178.744 41.6791 178.663 40.9545 178.752 40.241L182.45 5.47156C182.626 4.10555 183.287 2.84812 184.312 1.9278C185.336 1.00748 186.657 0.485358 188.034 0.456323L263.779 0.00327461C264.37 -0.0192827 264.959 0.0748742 265.514 0.280361C266.068 0.485848 266.577 0.798623 267.011 1.20081C267.444 1.60301 267.794 2.08672 268.04 2.62428C268.287 3.16184 268.425 3.74271 268.447 4.33365C268.468 4.58256 268.468 4.8328 268.447 5.08171L264.738 39.9038C264.561 41.2688 263.9 42.525 262.875 43.4435C261.85 44.3621 260.53 44.882 259.154 44.9085L227.882 45.2457C222.688 51.3101 215.583 55.424 207.737 56.9092L206.041 57.141ZM217.388 44.2131L217.146 44.919C215.85 48.6594 211.572 53.2532 209.37 55.4552C216.37 53.7529 222.644 49.8627 227.282 44.3501L227.44 44.1604L259.196 43.8128C260.318 43.7899 261.395 43.3662 262.231 42.6183C263.068 41.8704 263.61 40.8477 263.758 39.7352L267.467 4.91313C267.482 4.72028 267.482 4.5265 267.467 4.33365C267.449 3.8797 267.342 3.43368 267.152 3.02111C266.962 2.60854 266.692 2.23752 266.358 1.92926C266.025 1.621 265.633 1.38156 265.207 1.22464C264.781 1.06772 264.328 0.996392 263.874 1.01474L188.119 1.4678C186.996 1.4932 185.919 1.91912 185.082 2.66875C184.246 3.41838 183.704 4.44233 183.556 5.55584L179.858 40.3253C179.848 40.5183 179.848 40.7117 179.858 40.9048C179.899 41.8215 180.301 42.6849 180.976 43.3066C181.651 43.9283 182.545 44.258 183.462 44.2237L217.388 44.2131Z" fill="#60BBE0"/>
<path d="M232.928 8.02148H198.77V9.0751H232.928V8.02148Z" fill="#60BBE0"/>
<path d="M207.466 17.1248H188.754V18.1784H207.466V17.1248Z" fill="#60BBE0"/>
<path d="M233.195 17.1248H214.135V18.1784H233.195V17.1248Z" fill="#60BBE0"/>
<path d="M235.247 26.2385H187.697V27.2921H235.247V26.2385Z" fill="#60BBE0"/>
<path d="M199.286 35.3525H186.938V36.4062H199.286V35.3525Z" fill="#60BBE0"/>
<path d="M249.488 26.6689L249.55 26.3129C249.766 25.0913 250.043 24.1174 250.381 23.3914C250.725 22.6654 251.144 22.079 251.639 21.6323C252.134 21.1855 252.706 20.7806 253.356 20.4176C253.843 20.1384 254.286 19.8487 254.685 19.5485C255.083 19.2483 255.416 18.9167 255.684 18.5537C255.953 18.1837 256.127 17.7719 256.205 17.3181C256.287 16.8365 256.243 16.4141 256.071 16.0511C255.9 15.6881 255.633 15.4089 255.27 15.2134C254.914 15.0179 254.498 14.9202 254.024 14.9202C253.564 14.9202 253.111 15.0214 252.665 15.2239C252.221 15.4193 251.834 15.7125 251.505 16.1035C251.177 16.4874 250.953 16.9656 250.833 17.538H246.498C246.774 16.1419 247.311 14.99 248.112 14.0825C248.913 13.168 249.884 12.4874 251.023 12.0406C252.163 11.5869 253.374 11.36 254.657 11.36C256.066 11.36 257.273 11.5904 258.278 12.0511C259.283 12.5049 260.02 13.1645 260.488 14.0302C260.955 14.8958 261.084 15.9394 260.874 17.1611C260.734 17.9778 260.471 18.7038 260.086 19.3391C259.709 19.9673 259.234 20.5258 258.662 21.0145C258.09 21.4961 257.438 21.9324 256.705 22.3234C256.089 22.6515 255.57 22.9935 255.148 23.3496C254.732 23.7056 254.396 24.1174 254.139 24.5852C253.888 25.0529 253.701 25.6288 253.576 26.3129L253.515 26.6689H249.488ZM250.441 33.3705C249.733 33.3705 249.169 33.1262 248.75 32.6375C248.34 32.1419 248.197 31.5485 248.323 30.8574C248.433 30.1733 248.778 29.5869 249.358 29.0983C249.945 28.6096 250.593 28.3653 251.301 28.3653C251.974 28.3653 252.523 28.6096 252.949 29.0983C253.375 29.5869 253.533 30.1733 253.423 30.8574C253.337 31.3182 253.14 31.7405 252.833 32.1244C252.535 32.5014 252.175 32.8051 251.753 33.0354C251.332 33.2588 250.895 33.3705 250.441 33.3705Z" fill="#60BBE0"/>
<path d="M235.455 112.453C235.58 111.082 234.398 110.219 232.673 110.219C231.788 110.22 230.917 110.448 230.141 110.88C229.365 111.312 228.708 111.935 228.231 112.691L223.43 109.943C225.485 106.89 228.936 104.871 233.914 104.871C239.119 104.871 242.643 107.106 242.283 111.321C241.821 116.668 236.204 117.457 235.933 120.615H229.912C230.301 116.161 235.235 115.029 235.455 112.453ZM228.635 126.111C228.743 125.096 229.231 124.163 230 123.504C230.768 122.845 231.757 122.512 232.761 122.574C235.022 122.574 236.483 124.063 236.307 126.111C236.188 127.132 235.692 128.07 234.921 128.737C234.149 129.404 233.157 129.751 232.144 129.708C229.876 129.708 228.459 128.099 228.635 126.111Z" fill="#60BBE0"/>
<path d="M13.1781 49.87C13.294 48.4898 12.1245 47.6574 10.3334 47.6574C9.43044 47.6596 8.5425 47.8884 7.75094 48.3228C6.95939 48.7573 6.28954 49.3835 5.8028 50.144L0.861328 47.3835C2.96857 44.3175 6.47711 42.2734 11.5556 42.2734C16.8237 42.2734 20.4586 44.5598 20.0899 48.7637C19.6263 54.1477 13.8946 54.9379 13.6207 58.1199H7.47805C7.91004 53.5998 12.9463 52.4935 13.1781 49.87ZM6.21371 63.5671C6.32299 62.5461 6.8224 61.6067 7.60768 60.9451C8.39297 60.2835 9.40345 59.9508 10.4282 60.0164C12.7462 60.0164 14.2318 61.5336 14.0526 63.5671C13.9295 64.5883 13.4287 65.5265 12.6488 66.1972C11.8689 66.8679 10.8663 67.2226 9.83817 67.1915C9.35292 67.2401 8.86292 67.1809 8.40325 67.018C7.94358 66.8551 7.52561 66.5926 7.17926 66.2492C6.83292 65.9059 6.56674 65.4902 6.39982 65.032C6.2329 64.5738 6.16935 64.0843 6.21371 63.5987V63.5671Z" fill="#60BBE0"/>
</svg>
