<svg width="34" height="35" viewBox="0 0 34 35" fill="none" xmlns="http://www.w3.org/2000/svg">
<rect width="34" height="34.1667" rx="17" fill="url(#paint0_linear_200_7325)"/>
<path d="M16.6885 24.2958C15.9684 24.2958 15.2837 24.1659 14.6344 23.9062C13.9969 23.6346 13.4479 23.2569 12.9875 22.7728C12.5389 22.277 12.2319 21.6926 12.0667 21.0197L14.174 20.276C14.3865 20.878 14.7111 21.3385 15.1479 21.6572C15.5847 21.9642 16.0983 22.1176 16.6885 22.1176C17.1608 22.1176 17.5681 22.0291 17.9104 21.852C18.2646 21.6749 18.542 21.4211 18.7427 21.0905C18.9434 20.7482 19.0437 20.3468 19.0437 19.8864C19.0437 19.426 18.9434 19.0364 18.7427 18.7176C18.5538 18.3871 18.2823 18.1333 17.9281 17.9562C17.574 17.7791 17.1549 17.6905 16.6708 17.6905C16.4465 17.6905 16.2104 17.7142 15.9625 17.7614C15.7264 17.8086 15.5139 17.8794 15.325 17.9739L14.776 16.8228L18.1937 12.927H12.8104V10.8905H20.9031V12.7853L17.4677 16.8051L17.5031 15.902C18.2941 15.9138 18.9847 16.085 19.575 16.4155C20.1653 16.7461 20.6257 17.2006 20.9563 17.7791C21.2868 18.3576 21.4521 19.0364 21.4521 19.8155C21.4521 20.6655 21.2455 21.4329 20.8323 22.1176C20.4191 22.7905 19.8524 23.3218 19.1323 23.7114C18.4122 24.101 17.5976 24.2958 16.6885 24.2958Z" fill="white"/>
<defs>
<linearGradient id="paint0_linear_200_7325" x1="17" y1="0" x2="17" y2="34.1667" gradientUnits="userSpaceOnUse">
<stop stop-color="#60BBE0"/>
<stop offset="1" stop-color="#2E92BB"/>
</linearGradient>
</defs>
</svg>
