<svg width="34" height="35" viewBox="0 0 34 35" fill="none" xmlns="http://www.w3.org/2000/svg">
<rect width="34" height="34.1667" rx="17" fill="url(#paint0_linear_200_7202)"/>
<path d="M12.3146 24.0833V22.2593L15.8917 18.5228C16.6 17.7791 17.1431 17.1888 17.5208 16.752C17.9104 16.3034 18.1819 15.9197 18.3354 15.601C18.4889 15.2822 18.5656 14.9576 18.5656 14.627C18.5656 14.0721 18.3885 13.6353 18.0344 13.3166C17.692 12.9978 17.2493 12.8385 16.7062 12.8385C16.1396 12.8385 15.6497 13.0037 15.2365 13.3343C14.8233 13.653 14.5222 14.1253 14.3333 14.751L12.226 14.0958C12.3677 13.3992 12.6569 12.7971 13.0937 12.2895C13.5306 11.7701 14.0618 11.3746 14.6875 11.103C15.325 10.8197 15.9979 10.678 16.7062 10.678C17.5562 10.678 18.3 10.8315 18.9375 11.1385C19.5868 11.4454 20.0885 11.8763 20.4427 12.4312C20.8087 12.986 20.9917 13.6353 20.9917 14.3791C20.9917 14.8513 20.9031 15.3176 20.726 15.778C20.549 16.2385 20.2833 16.7107 19.9292 17.1947C19.575 17.6669 19.1146 18.1982 18.5479 18.7885L15.449 22.0468H21.1687V24.0833H12.3146Z" fill="white"/>
<defs>
<linearGradient id="paint0_linear_200_7202" x1="17" y1="0" x2="17" y2="34.1667" gradientUnits="userSpaceOnUse">
<stop stop-color="#60BBE0"/>
<stop offset="1" stop-color="#2E92BB"/>
</linearGradient>
</defs>
</svg>
