<svg width="124" height="134" viewBox="0 0 124 134" fill="none" xmlns="http://www.w3.org/2000/svg">
<g style="mix-blend-mode:multiply" opacity="0.11">
<path d="M119.487 4.9968H7.83011C5.86187 4.9968 4.2666 6.53112 4.2666 8.42291V129.479C4.2666 131.371 5.86187 132.905 7.83011 132.905H119.487C121.455 132.905 123.05 131.371 123.05 129.479V8.42291C123.05 6.53112 121.455 4.9968 119.487 4.9968Z" fill="#161616"/>
<path d="M119.487 4.9968H7.83011C5.86187 4.9968 4.2666 6.53112 4.2666 8.42291V129.479C4.2666 131.371 5.86187 132.905 7.83011 132.905H119.487C121.455 132.905 123.05 131.371 123.05 129.479V8.42291C123.05 6.53112 121.455 4.9968 119.487 4.9968Z" stroke="#1E223B" stroke-miterlimit="10"/>
</g>
<path d="M116.22 2.71307H4.56351C2.59527 2.71307 1 4.2474 1 6.13918V127.195C1 129.087 2.59527 130.621 4.56351 130.621H116.22C118.188 130.621 119.784 129.087 119.784 127.195V6.13918C119.784 4.2474 118.188 2.71307 116.22 2.71307Z" fill="white"/>
<path d="M1 111.206H119.784V127.195C119.784 128.104 119.408 128.975 118.74 129.618C118.071 130.26 117.165 130.621 116.22 130.621H4.56351C3.61859 130.621 2.71226 130.26 2.04351 129.618C1.37535 128.975 1 128.104 1 127.195V111.206Z" fill="#EFEFEF"/>
<path d="M116.22 2.71307H4.56351C2.59527 2.71307 1 4.2474 1 6.13918V127.195C1 129.087 2.59527 130.621 4.56351 130.621H116.22C118.188 130.621 119.784 129.087 119.784 127.195V6.13918C119.784 4.2474 118.188 2.71307 116.22 2.71307Z" stroke="#1E223B" stroke-width="2" stroke-linecap="round" stroke-linejoin="round"/>
<path d="M4.2232 2.71307H116.56C116.984 2.71307 117.403 2.79359 117.794 2.94948C118.185 3.10479 118.541 3.3332 118.84 3.62099C119.139 3.90878 119.376 4.25083 119.538 4.62656C119.701 5.00286 119.784 5.406 119.784 5.81257V12.992H1V5.81257C1 5.406 1.08315 5.00286 1.24528 4.62656C1.40683 4.25083 1.6444 3.90878 1.94373 3.62099C2.24306 3.3332 2.59824 3.10479 2.98963 2.94948C3.38043 2.79359 3.79973 2.71307 4.2232 2.71307Z" fill="#363D56"/>
<path d="M4.2232 2.71307H116.56C116.984 2.71307 117.403 2.79359 117.794 2.94948C118.185 3.10479 118.541 3.3332 118.84 3.62099C119.139 3.90878 119.376 4.25083 119.538 4.62656C119.701 5.00286 119.784 5.406 119.784 5.81257V12.992H1V5.81257C1 5.406 1.08315 5.00286 1.24528 4.62656C1.40683 4.25083 1.6444 3.90878 1.94373 3.62099C2.24306 3.3332 2.59824 3.10479 2.98963 2.94948C3.38043 2.79359 3.79973 2.71307 4.2232 2.71307Z" stroke="#1E223B" stroke-width="2" stroke-linecap="round" stroke-linejoin="round"/>
<path d="M119.784 12.9915H1V17.5597H119.784V12.9915Z" fill="#424960"/>
<path d="M119.784 12.9915H1V17.5597H119.784V12.9915Z" stroke="#1E223B" stroke-width="2" stroke-linecap="round" stroke-linejoin="round"/>
<path d="M7.63234 9.56533C8.61646 9.56533 9.4141 8.79845 9.4141 7.85228C9.4141 6.9061 8.61646 6.13922 7.63234 6.13922C6.64822 6.13922 5.85059 6.9061 5.85059 7.85228C5.85059 8.79845 6.64822 9.56533 7.63234 9.56533Z" fill="#F73E39"/>
<path d="M7.63234 9.56533C8.61646 9.56533 9.4141 8.79845 9.4141 7.85228C9.4141 6.9061 8.61646 6.13922 7.63234 6.13922C6.64822 6.13922 5.85059 6.9061 5.85059 7.85228C5.85059 8.79845 6.64822 9.56533 7.63234 9.56533Z" stroke="#1E223B" stroke-width="2" stroke-linecap="round" stroke-linejoin="round"/>
<path d="M14.9185 9.56533C15.9026 9.56533 16.7002 8.79845 16.7002 7.85228C16.7002 6.9061 15.9026 6.13922 14.9185 6.13922C13.9344 6.13922 13.1367 6.9061 13.1367 7.85228C13.1367 8.79845 13.9344 9.56533 14.9185 9.56533Z" fill="#383838"/>
<path d="M14.9185 9.56533C15.9026 9.56533 16.7002 8.79845 16.7002 7.85228C16.7002 6.9061 15.9026 6.13922 14.9185 6.13922C13.9344 6.13922 13.1367 6.9061 13.1367 7.85228C13.1367 8.79845 13.9344 9.56533 14.9185 9.56533Z" stroke="#1E223B" stroke-width="2" stroke-linecap="round" stroke-linejoin="round"/>
<path d="M21.5864 9.56533C22.5706 9.56533 23.3682 8.79845 23.3682 7.85228C23.3682 6.9061 22.5706 6.13922 21.5864 6.13922C20.6023 6.13922 19.8047 6.9061 19.8047 7.85228C19.8047 8.79845 20.6023 9.56533 21.5864 9.56533Z" fill="#C6C6C6"/>
<path d="M21.5864 9.56533C22.5706 9.56533 23.3682 8.79845 23.3682 7.85228C23.3682 6.9061 22.5706 6.13922 21.5864 6.13922C20.6023 6.13922 19.8047 6.9061 19.8047 7.85228C19.8047 8.79845 20.6023 9.56533 21.5864 9.56533Z" stroke="#1E223B" stroke-width="2" stroke-linecap="round" stroke-linejoin="round"/>
<path opacity="0.28" d="M68.4104 6.13922H31.5874C30.6033 6.13922 29.8057 6.9061 29.8057 7.85228C29.8057 8.79845 30.6033 9.56533 31.5874 9.56533H68.4104C69.3945 9.56533 70.1921 8.79845 70.1921 7.85228C70.1921 6.9061 69.3945 6.13922 68.4104 6.13922Z" fill="#8289A3"/>
<g opacity="0.32">
<path opacity="0.32" d="M24.7218 41.1279C27.2542 41.1279 29.3068 39.1545 29.3068 36.7196C29.3068 34.2854 27.2542 32.3114 24.7218 32.3114C22.1893 32.3114 20.1367 34.2854 20.1367 36.7196C20.1367 39.1545 22.1893 41.1279 24.7218 41.1279Z" stroke="#1E223B" stroke-linecap="round" stroke-linejoin="round"/>
<path opacity="0.32" d="M24.7221 38.6089C25.8072 38.6089 26.6874 37.7632 26.6874 36.7194C26.6874 35.6762 25.8072 34.8299 24.7221 34.8299C23.6364 34.8299 22.7568 35.6762 22.7568 36.7194C22.7568 37.7632 23.6364 38.6089 24.7221 38.6089Z" stroke="#1E223B" stroke-linecap="round" stroke-linejoin="round"/>
<path opacity="0.32" d="M34.4216 37.1016L31.2578 36.2867V36.2947C31.2394 36.0309 31.2038 35.7683 31.1509 35.509L31.1545 35.5153L33.9911 33.941C34.2162 33.8148 34.3801 33.6087 34.4472 33.3666C34.5137 33.1244 34.4781 32.8669 34.3474 32.6505L33.2012 30.7422C33.137 30.6342 33.0509 30.54 32.9487 30.4646C32.8466 30.3893 32.7296 30.3339 32.6049 30.3013C32.4801 30.2693 32.3501 30.2614 32.2224 30.2773C32.0947 30.2933 31.9711 30.3339 31.8595 30.3961L29.0229 31.9704V31.9744C28.8174 31.802 28.6007 31.6421 28.3744 31.4959H28.3785L29.2261 28.4541C29.2938 28.212 29.2581 27.9539 29.1281 27.7369C28.998 27.5205 28.7836 27.3617 28.5318 27.2972L26.317 26.7262C26.0652 26.6611 25.7974 26.6953 25.5717 26.8204C25.346 26.946 25.1815 27.1522 25.1138 27.3943L24.2662 30.4355H24.2704C23.9984 30.4532 23.7276 30.4875 23.4597 30.5383H23.4639L21.8264 27.8117C21.6964 27.5947 21.4814 27.4359 21.2295 27.3714C20.9783 27.3063 20.7099 27.34 20.4842 27.4656L18.4987 28.5677C18.273 28.6928 18.1085 28.8995 18.0414 29.141C17.9737 29.3831 18.0093 29.6412 18.1394 29.8582L19.7768 32.5854L19.7834 32.5814C19.6028 32.7801 19.4353 32.9902 19.2821 33.2095V33.2015L16.1189 32.3867C15.9941 32.3541 15.8641 32.3461 15.7364 32.3621C15.6081 32.3787 15.4852 32.4187 15.3735 32.4809C15.2613 32.5431 15.1639 32.6254 15.0849 32.7242C15.0065 32.8224 14.9489 32.9349 14.9156 33.0548L14.3217 35.1835C14.254 35.4256 14.2896 35.6832 14.4197 35.9002C14.5503 36.1171 14.7647 36.2759 15.0166 36.341L18.1798 37.1558L18.1833 37.1438C18.2018 37.4105 18.2386 37.676 18.2926 37.9387L18.2855 37.9273L15.4489 39.5016C15.3373 39.5632 15.2393 39.646 15.1609 39.7442C15.0819 39.843 15.0243 39.955 14.991 40.0749C14.9578 40.1948 14.9494 40.3198 14.9661 40.4426C14.9833 40.566 15.0249 40.6842 15.0896 40.7921L16.2359 42.7004C16.3006 42.8078 16.3861 42.902 16.4883 42.9774C16.591 43.0527 16.708 43.1087 16.8322 43.1407C16.9569 43.1726 17.087 43.1806 17.2153 43.1647C17.3429 43.1487 17.4665 43.1081 17.5781 43.0465L20.4141 41.4722L20.4058 41.4579C20.6166 41.6355 20.8393 41.7993 21.0721 41.9495L21.0561 41.9455L20.2086 44.9873C20.1753 45.1067 20.1664 45.2317 20.1836 45.3551C20.2003 45.4779 20.2424 45.5966 20.3066 45.704C20.3713 45.8113 20.4574 45.9055 20.5596 45.9809C20.6617 46.0563 20.7788 46.1117 20.9035 46.1442L23.1176 46.7152C23.3694 46.7798 23.6373 46.7455 23.863 46.6205C24.0887 46.4954 24.2532 46.2887 24.3209 46.0472L25.172 43.0053L25.1559 43.0013C25.4351 42.9831 25.713 42.9477 25.9874 42.8957L25.9726 42.9043L27.61 45.6309C27.7401 45.8479 27.9551 46.006 28.2069 46.0706C28.4581 46.1357 28.7266 46.102 28.9523 45.9769L30.9377 44.8749C31.1634 44.7492 31.3279 44.5431 31.3951 44.301C31.4628 44.0589 31.4271 43.8013 31.2971 43.5844L29.6596 40.8572L29.6477 40.864C29.8307 40.6624 30.0005 40.45 30.1555 40.2285V40.2399L33.3187 41.0553C33.5706 41.1198 33.8384 41.0856 34.0641 40.9605C34.2898 40.8355 34.4543 40.6288 34.522 40.3872L35.1159 38.2579C35.1831 38.0158 35.148 37.7582 35.018 37.5413C34.8873 37.3243 34.6729 37.1661 34.4216 37.1016Z" stroke="#1E223B" stroke-linecap="round" stroke-linejoin="round"/>
</g>
<path opacity="0.32" d="M38.1201 34.69H93.9485" stroke="#1E223B" stroke-width="2" stroke-linecap="round" stroke-linejoin="round"/>
<path opacity="0.32" d="M38.1201 39.2584H73.7552" stroke="#1E223B" stroke-width="2" stroke-linecap="round" stroke-linejoin="round"/>
<path opacity="0.15" d="M21.4902 61.528H77.3186" stroke="#1E223B" stroke-width="2" stroke-linecap="round" stroke-linejoin="round"/>
<path opacity="0.32" d="M21.4902 66.477H57.1253" stroke="#1E223B" stroke-width="2" stroke-linecap="round" stroke-linejoin="round"/>
<path opacity="0.32" d="M49.998 71.4259H70.7852" stroke="#1E223B" stroke-width="2" stroke-linecap="round" stroke-linejoin="round"/>
<path opacity="0.26" d="M21.4902 71.4259H46.4348" stroke="#1E223B" stroke-width="2" stroke-linecap="round" stroke-linejoin="round"/>
<path opacity="0.15" d="M21.4902 76.3745H42.8713" stroke="#1E223B" stroke-width="2" stroke-linecap="round" stroke-linejoin="round"/>
<path d="M23.8659 85.7013C23.2358 85.7013 22.6317 85.9423 22.1863 86.3705C21.7403 86.7988 21.4902 87.3795 21.4902 87.9854C21.4902 88.5912 21.7403 89.1725 22.1863 89.6008C22.6317 90.029 23.2358 90.2694 23.8659 90.2694H71.7755V85.7013H23.8659Z" fill="#4AD3A5" stroke="#1E223B" stroke-miterlimit="10"/>
<path d="M98.6996 85.7013H23.8659C22.5539 85.7013 21.4902 86.724 21.4902 87.9854C21.4902 89.2467 22.5539 90.2694 23.8659 90.2694H98.6996C100.012 90.2694 101.075 89.2467 101.075 87.9854C101.075 86.724 100.012 85.7013 98.6996 85.7013Z" stroke="#1E223B" stroke-linecap="round" stroke-linejoin="round"/>
<path d="M64.8467 1V2.71305" stroke="#1E223B" stroke-width="2" stroke-linecap="round" stroke-linejoin="round"/>
</svg>
