<svg width="148" height="57" viewBox="0 0 148 57" fill="none" xmlns="http://www.w3.org/2000/svg">
<rect width="147.662" height="56.1217" fill="#0F235D"/>
<rect x="19.2832" y="21.4648" width="17.6956" height="17.6956" rx="0.880379" fill="#60BBE0"/>
<path d="M33.6826 18.6545C33.128 18.0999 33.5208 17.1516 34.3051 17.1516H40.4242C40.9104 17.1516 41.3045 17.5458 41.3045 18.032V24.2611C41.3045 25.0528 40.341 25.4422 39.791 24.8728L36.6696 21.6415L33.6826 18.6545Z" fill="white"/>
<path d="M71.9229 27.8809C71.9229 28.0636 71.9229 28.1854 71.9229 28.3376V36.5275H68.787V29.525V28.7334C68.8174 28.094 68.8174 27.4547 68.6043 26.8458C68.1476 25.4148 66.7167 24.2883 65.1335 24.2883C63.5503 24.2274 61.9976 25.293 61.4495 26.7849C61.3582 27.1198 61.2669 27.4547 61.2669 27.7896V36.5275H58.131C58.1614 36.1013 58.1919 27.9114 58.1005 27.5156C58.1005 27.3938 58.0701 27.272 58.0396 27.1502C57.8874 26.6327 57.6438 26.1455 57.3089 25.7193C56.6087 24.9277 55.5735 24.4101 54.5079 24.4406C53.4119 24.4101 52.3767 24.9277 51.6765 25.7193C51.1589 26.3282 50.9458 26.998 50.8544 27.7896C50.8544 27.7896 50.8544 27.7896 50.8544 27.82V36.5275H47.749V21.3351H50.8544V22.5834C51.92 21.8527 53.1988 21.4569 54.5079 21.4264C56.426 21.396 58.3745 22.2789 59.6228 23.7708C59.6837 23.8316 59.7141 23.8621 59.775 23.923C60.1708 23.4054 60.658 22.9183 61.206 22.5529C61.7845 22.1571 62.3934 21.8222 63.0632 21.6091C63.733 21.396 64.4332 21.3046 65.1335 21.3046C65.8033 21.3046 66.5035 21.396 67.1733 21.6091C67.8432 21.8222 68.4825 22.1571 69.0305 22.5529C70.1875 23.3445 71.0704 24.5014 71.5271 25.8411C71.7402 26.4804 71.8924 27.1807 71.9229 27.8809ZM84.2222 21.3351H87.3582V36.5275H84.2222V35.5228C83.5524 35.9795 82.7913 36.3144 81.9997 36.5275C81.543 36.6189 81.0863 36.6797 80.5992 36.7102C80.0816 36.7102 79.564 36.6493 79.0769 36.5275C77.646 36.1622 76.3368 35.3706 75.393 34.2745C74.7536 33.5134 74.2969 32.6305 74.0534 31.6562C73.9925 31.4126 73.9316 31.1691 73.9011 30.9255C73.8402 30.6819 73.8402 30.4384 73.8402 30.1948V27.7896C73.8402 27.546 73.8707 27.3025 73.9316 27.0589C73.962 26.8153 74.0229 26.5718 74.0838 26.3282C74.3578 25.3844 74.8145 24.5014 75.4539 23.7708C76.7326 22.2789 78.6811 21.396 80.5992 21.4264C81.9084 21.4264 83.1566 21.8527 84.2222 22.5834V21.3351ZM84.1309 30.8646C84.2831 30.3166 84.3136 27.82 84.1309 27.1502C84.0091 26.6327 83.7656 26.1455 83.4002 25.7193C82.7304 24.9277 81.6648 24.4101 80.5992 24.4406C79.5336 24.4101 78.4984 24.9277 77.7982 25.7193C77.4328 26.1455 77.1893 26.6327 77.0675 27.1502C77.0371 27.272 77.0066 27.3938 76.9762 27.5156C76.8848 27.9723 76.9153 29.9817 76.9762 30.4688C77.0066 30.5602 77.0066 30.6515 77.0371 30.7733C77.1893 31.3213 77.4328 31.8389 77.7982 32.2651C78.4984 33.0871 79.5336 33.5743 80.5992 33.5743C81.6648 33.5743 82.7304 33.0871 83.4002 32.2651C83.7656 31.8389 84.0091 31.3517 84.1309 30.8646ZM99.9506 21.3351H103.086V36.5275H99.9506V35.5228C99.2808 35.9795 98.5196 36.3144 97.728 36.5275C97.2713 36.6189 96.8146 36.6797 96.3275 36.7102C95.8099 36.7102 95.2924 36.6493 94.8052 36.5275C93.3743 36.1622 92.0651 35.3706 91.1213 34.2745C90.4819 33.5134 90.0252 32.6305 89.7817 31.6562C89.7208 31.4126 89.6599 31.1691 89.6295 30.9255C89.5686 30.6819 89.5686 30.4384 89.5686 30.1948V27.7896C89.5686 27.546 89.599 27.3025 89.6599 27.0589C89.6903 26.8153 89.7512 26.5718 89.8121 26.3282C90.0861 25.3844 90.5428 24.5014 91.1822 23.7708C92.4609 22.2789 94.4094 21.396 96.3275 21.4264C97.6367 21.4264 98.885 21.8527 99.9506 22.5834V21.3351ZM99.8592 30.8646C100.011 30.3166 100.042 27.82 99.8592 27.1502C99.7374 26.6327 99.4939 26.1455 99.1285 25.7193C98.4587 24.9277 97.3931 24.4101 96.3275 24.4406C95.2619 24.4101 94.2268 24.9277 93.5265 25.7193C93.1612 26.1455 92.9176 26.6327 92.7958 27.1502C92.7654 27.272 92.7349 27.3938 92.7045 27.5156C92.6131 27.9723 92.6436 29.9817 92.7045 30.4688C92.7349 30.5602 92.7349 30.6515 92.7654 30.7733C92.9176 31.3213 93.1612 31.8389 93.5265 32.2651C94.2268 33.0871 95.2619 33.5743 96.3275 33.5743C97.3931 33.5743 98.4587 33.0871 99.1285 32.2651C99.4939 31.8389 99.7374 31.3517 99.8592 30.8646ZM112.604 21.4264C113.121 21.4264 113.609 21.4873 114.096 21.5787V24.745C113.639 24.5319 113.121 24.4101 112.604 24.4101C111.538 24.4101 110.503 24.9277 109.803 25.7193C109.468 26.1455 109.194 26.6327 109.072 27.1502C109.042 27.3025 109.011 27.5156 108.981 27.7591V36.5275H105.875V21.3351H108.981V22.5834C110.046 21.8527 111.325 21.4569 112.604 21.4264ZM125.61 21.3351H128.716V35.4924C128.716 39.2981 125.61 42.4035 121.804 42.4035C120.83 42.4035 119.886 42.2513 118.973 41.9773C118.12 41.7033 117.298 41.3379 116.568 40.8508L118.273 38.2325C118.76 38.5674 119.308 38.8109 119.886 38.9936C120.526 39.1763 121.165 39.2981 121.804 39.2981C123.875 39.2981 125.549 37.654 125.58 35.6141V35.5228C124.91 35.9795 124.149 36.3144 123.357 36.5275C122.9 36.6189 122.444 36.6797 121.957 36.7102C121.439 36.7102 120.921 36.6493 120.434 36.5275C119.003 36.1622 117.694 35.3706 116.75 34.2745C116.142 33.5134 115.654 32.6305 115.411 31.6562C115.35 31.4126 115.289 31.1691 115.259 30.9255C115.228 30.6819 115.198 30.4384 115.198 30.1948V27.7896C115.228 27.546 115.228 27.3025 115.289 27.0589C115.319 26.8153 115.38 26.5718 115.441 26.3282C115.715 25.3844 116.172 24.5014 116.811 23.7708C118.09 22.2789 120.039 21.396 121.957 21.4264C123.266 21.4264 124.545 21.8527 125.58 22.5834V21.3351H125.61ZM125.61 30.1644V27.6983C125.58 27.5156 125.549 27.3329 125.519 27.1502C125.367 26.6327 125.123 26.1455 124.788 25.7193C124.088 24.9277 123.053 24.4101 121.957 24.4406C120.891 24.4101 119.856 24.9277 119.156 25.7193C118.821 26.1455 118.577 26.6327 118.425 27.1502C118.394 27.272 118.364 27.3938 118.334 27.5156C118.242 27.9723 118.273 29.9817 118.334 30.4688C118.364 30.5602 118.394 30.6515 118.394 30.7733C118.547 31.3213 118.79 31.8389 119.156 32.2651C119.856 33.0871 120.891 33.5743 121.957 33.5743C123.053 33.5743 124.088 33.0871 124.788 32.2651C125.123 31.8389 125.367 31.3517 125.519 30.8646C125.58 30.621 125.58 30.3775 125.61 30.1644Z" fill="white"/>
<rect x="16.6445" y="30.344" width="11.4679" height="10.3516" rx="1.01486" fill="#0F235D"/>
</svg>
