<svg width="16" height="16" viewBox="0 0 16 16" fill="none" xmlns="http://www.w3.org/2000/svg">
<path d="M2.90237 2.96292L4.79106 5.45511L7.23247 2.96292H2.90237ZM8.81644 2.96292L11.2256 5.42189L13.0596 2.96289H8.81641L8.81644 2.96292ZM8.02444 2.98927L5.377 5.69145H10.6719L8.02444 2.98927ZM13.584 3.23633L11.752 5.69142H15.4531L13.584 3.23633ZM2.39453 3.25977L0.588906 5.69142H4.23828L2.39453 3.25977ZM0.566406 6.27539L7.07912 13.4131L4.47856 6.27533H0.566437L0.566406 6.27539ZM5.09962 6.27539L8.02441 14.3018L10.9492 6.27539H5.09969H5.09962ZM11.5702 6.27539L8.96981 13.4131L15.4825 6.27533H11.5703L11.5702 6.27539Z" fill="#1D2D5A"/>
</svg>
