<svg width="152" height="150" viewBox="0 0 152 150" fill="none" xmlns="http://www.w3.org/2000/svg">
<g clip-path="url(#clip0_289_2741)">
<path d="M35.4386 149.945C54.4068 149.945 69.7835 140.338 69.7835 128.486C69.7835 116.635 54.4068 107.028 35.4386 107.028C16.4705 107.028 1.09375 116.635 1.09375 128.486C1.09375 140.338 16.4705 149.945 35.4386 149.945Z" fill="white"/>
<path d="M35.4386 149.945C54.4068 149.945 69.7835 140.338 69.7835 128.486C69.7835 116.635 54.4068 107.028 35.4386 107.028C16.4705 107.028 1.09375 116.635 1.09375 128.486C1.09375 140.338 16.4705 149.945 35.4386 149.945Z" stroke="#070808" stroke-width="1.71" stroke-miterlimit="10"/>
<path d="M32.6799 92.5271L27.6894 108.394C27.1381 110.147 27.0074 112.006 27.3078 113.819C27.6084 115.633 28.3316 117.35 29.419 118.832C30.5063 120.314 31.9273 121.518 33.5668 122.349C35.2065 123.18 37.0186 123.613 38.8565 123.613C41.8113 123.613 44.6568 122.495 46.8219 120.485C48.9872 118.474 50.3121 115.719 50.5308 112.773L51.983 93.1981L32.6799 92.5271Z" fill="#FBE3D5" stroke="#45413C" stroke-width="0.285" stroke-linecap="round" stroke-linejoin="round"/>
<path d="M27.6895 108.394C27.6895 108.394 37.8835 112.411 44.1986 108.927C50.5137 105.443 52.4737 99.1278 52.4737 99.1278L50.0782 93.248L31.1326 92.377L27.6895 108.394Z" fill="#F5CFC4"/>
<path d="M32.6799 92.5271L27.6894 108.394C27.1381 110.147 27.0074 112.006 27.3078 113.819C27.6084 115.633 28.3316 117.35 29.419 118.832C30.5063 120.314 31.9273 121.518 33.5668 122.349C35.2065 123.18 37.0186 123.613 38.8565 123.613C41.8113 123.613 44.6568 122.495 46.8219 120.485C48.9872 118.474 50.3121 115.719 50.5308 112.773L51.983 93.1981L32.6799 92.5271Z" stroke="#070808" stroke-width="1.71" stroke-miterlimit="10"/>
<path d="M40.9525 70.4663C40.9525 65.812 39.1037 61.3485 35.8126 58.0574C32.5218 54.7664 28.0582 52.9177 23.404 52.9177C18.7498 52.9177 14.2864 54.7664 10.9954 58.0574C7.70436 61.3485 5.85547 65.812 5.85547 70.4663C7.65753 72.6617 6.38019 75.3357 7.31991 77.4856C6.15474 80.1561 5.67283 83.0747 5.91746 85.9781C6.16232 88.8816 7.12635 91.6782 8.72236 94.1159C10.3184 96.5537 12.4962 98.5556 15.0594 99.9411C17.6225 101.327 20.4903 102.052 23.404 102.052C26.3177 102.052 29.1855 101.327 31.7487 99.9411C34.3118 98.5556 36.4899 96.5537 38.0859 94.1159C39.6817 91.6782 40.6457 88.8816 40.8906 85.9781C41.1354 83.0747 40.6533 80.1561 39.4881 77.4856C40.4562 75.2721 40.9548 72.882 40.9525 70.4663Z" fill="#724F3D"/>
<path d="M27.7959 93.013C18.1041 93.013 11.1378 89.5472 11.3252 79.856C11.5482 68.2723 21.2386 70.7677 21.2386 68.2712C21.2386 64.2081 19.7238 55.1949 20.1809 48.2246C11.5421 48.4336 3.11765 51.2128 1.12492 58.1885C-0.0806196 62.4076 3.74093 68.0852 6.60515 71.1448C7.36179 73.9827 3.1792 74.1107 7.32164 77.484C5.61012 81.4023 5.38846 85.8108 6.69814 89.8812C8.00781 93.9514 10.7585 97.4035 14.4338 99.5889C18.109 101.774 22.4558 102.542 26.6575 101.748C30.8591 100.955 34.6262 98.6545 37.2514 95.2794C34.7618 96.6355 30.8301 93.013 27.7959 93.013Z" fill="#A86C4D"/>
<path d="M40.9543 70.4661C40.9543 60.7743 32.5886 56.3486 24.8746 50.4815C15.6424 43.4585 -9.58045 53.6927 5.85717 70.4661C10.0955 75.071 0.922184 72.1406 7.32162 77.4854C6.15622 80.1559 5.67431 83.0745 5.91917 85.9779C6.16402 88.8814 7.12783 91.678 8.72384 94.1157C10.3198 96.5535 12.4977 98.5554 15.0611 99.9409C17.6242 101.326 20.492 102.052 23.4057 102.052C26.3194 102.052 29.1872 101.326 31.7504 99.9409C34.3135 98.5554 36.4914 96.5535 38.0874 94.1157C39.6834 91.678 40.6474 88.8814 40.8923 85.9779C41.1369 83.0745 40.655 80.1559 39.4898 77.4854C40.4576 75.2719 40.9563 72.8818 40.9543 70.4661Z" stroke="#070808" stroke-width="1.71" stroke-miterlimit="10"/>
<path d="M20.834 56.9924H64.4938V81.3306C64.4938 87.1204 62.194 92.6729 58.1 96.7667C54.0061 100.861 48.4536 103.161 42.6639 103.161C36.8744 103.161 31.3217 100.861 27.2278 96.7667C23.134 92.6729 20.834 87.1204 20.834 81.3306V56.9924Z" fill="#FBE3D5" stroke="#45413C" stroke-width="0.285" stroke-linecap="round" stroke-linejoin="round"/>
<path d="M24.6016 67.698C24.6016 67.698 30.2834 70.2056 40.7691 68.9997C50.5463 67.8751 58.5997 63.6655 58.5997 63.6655C58.5997 63.6655 64.209 67.124 64.209 69.1332C66.6487 68.2722 67.7967 56.3614 67.7967 56.3614L59.043 54.783C59.043 54.783 24.8879 61.958 24.6016 67.698Z" fill="#F5CFC4"/>
<path d="M45.6119 98.7115C27.553 100.719 21.5097 82.6094 21.5097 82.6094C21.3003 82.8993 21.1129 83.1916 20.9395 83.486C21.4747 88.8761 23.9943 93.8747 28.009 97.5107C32.0239 101.147 37.2468 103.16 42.6634 103.161C46.7091 103.162 50.6756 102.038 54.1198 99.9155C57.5641 97.793 60.3507 94.7551 62.1688 91.1409L62.7018 88.0916C62.7018 88.0916 61.3413 96.9639 45.6119 98.7115Z" fill="#F5CFC4"/>
<path d="M20.834 56.9924H64.4938V81.3306C64.4938 87.1204 62.194 92.6729 58.1 96.7667C54.0061 100.861 48.4536 103.161 42.6639 103.161C36.8744 103.161 31.3217 100.861 27.2278 96.7667C23.134 92.6729 20.834 87.1204 20.834 81.3306V56.9924Z" stroke="#070808" stroke-width="1.71" stroke-miterlimit="10"/>
<path d="M56.789 45.6517C56.789 45.6517 53.2656 52.3367 57.2967 58.5134C58.6405 60.5721 63.7965 60.8246 64.3422 65.9505C65.0003 72.1316 76.1195 53.8355 65.1252 46.477C63.0419 45.0828 57.4821 38.8943 56.789 45.6517Z" fill="#EFDD5C"/>
<path d="M56.789 45.6517C56.789 45.6517 53.2656 52.3367 57.2967 58.5134C58.6405 60.5721 63.7965 60.8246 64.3422 65.9505C65.0003 72.1316 76.1195 53.8355 65.1252 46.477C63.0419 45.0828 57.4821 38.8943 56.789 45.6517Z" fill="#724F3D"/>
<path d="M56.789 45.6516C56.789 45.6516 53.2656 52.3367 57.2967 58.5133C58.6405 60.5721 63.7965 60.8245 64.3422 65.9504C65.0003 72.1315 75.6719 54.432 65.1252 46.4769C63.124 44.9676 57.4821 38.8942 56.789 45.6516Z" stroke="#070808" stroke-width="1.71" stroke-linecap="round" stroke-linejoin="round"/>
<path d="M21.2385 68.2722C34.6756 68.0414 48.5816 65.6908 60.1359 57.1432C63.5186 54.6409 65.4003 47.467 61.8149 43.2257C47.6076 26.4196 25.6849 39.2209 21.2445 46.3892C16.6547 53.7988 14.9245 61.3567 21.2385 68.2722Z" fill="#A86C4D"/>
<path d="M62.8795 44.8774C62.4685 47.5909 61.1316 50.1014 59.3975 51.3844C49.1572 58.9597 37.0697 61.6671 25.0986 62.3464C23.408 62.4541 21.7275 62.0157 20.3052 61.0956C18.8829 60.1755 17.794 58.8225 17.199 57.2365C17.1923 57.2185 17.1859 57.2004 17.1794 57.1824C14.9271 59.6849 15.1113 65.015 21.238 68.2724C34.6751 68.0416 48.5812 65.6909 60.1354 57.1433C63.1103 54.943 64.9224 49.1316 62.8795 44.8774Z" fill="#724F3D"/>
<path d="M20.8303 68.0173C21.8497 69.0148 49.7695 66.8735 60.1359 57.1432C63.2039 54.2636 65.4002 47.467 61.8148 43.2257C47.6075 26.4196 25.6848 39.2209 21.2444 46.3892C19.7887 48.7392 18.3747 51.3432 17.498 54.031" stroke="#070808" stroke-width="1.71" stroke-linecap="round" stroke-linejoin="round"/>
<path d="M61.4656 70.8786C61.4656 70.8786 59.6133 68.4272 56.3535 68.5509" stroke="#070808" stroke-width="1.71" stroke-miterlimit="10" stroke-linecap="round"/>
<path d="M58.5217 76.0725C59.1644 76.0297 59.6245 75.0755 59.5489 73.9411C59.4735 72.8067 58.891 71.9218 58.2483 71.9646C57.6054 72.0074 57.1456 72.9617 57.221 74.0961C57.2966 75.2305 57.8788 76.1153 58.5217 76.0725Z" fill="#070808"/>
<path d="M50.1776 73.6284L54.4989 80.4986L49.8418 81.6629" stroke="#070808" stroke-width="1.71" stroke-linecap="round" stroke-linejoin="round"/>
<path d="M35.5898 73.419C35.5898 73.419 37.3553 70.9045 40.6174 70.9141" stroke="#070808" stroke-width="1.71" stroke-miterlimit="10" stroke-linecap="round"/>
<path d="M40.5156 78.1655C41.1469 78.0378 41.4758 77.0307 41.2504 75.9166C41.0247 74.8022 40.3298 74.0026 39.6983 74.1304C39.067 74.2584 38.7381 75.2652 38.9637 76.3795C39.1894 77.4939 39.8841 78.2935 40.5156 78.1655Z" fill="#070808"/>
<path d="M44.3398 90.019C44.3398 90.019 48.7659 84.0477 55.061 87.4123" stroke="#070808" stroke-width="1.71" stroke-linecap="round" stroke-linejoin="round"/>
<path d="M56.7897 45.6516C56.7897 45.6516 55.2896 53.5949 43.3223 54.2358" stroke="#070808" stroke-width="1.71" stroke-linecap="round" stroke-linejoin="round"/>
<path d="M24.0606 80.1062C18.3348 82.35 13.8944 76.7752 14.0019 74.303C14.6983 58.2867 24.5654 68.9044 24.5654 68.9044" fill="#FBE3D5"/>
<path d="M24.0606 80.1062C18.3348 82.35 13.8944 76.7752 14.0019 74.303C14.6983 58.2867 24.5654 68.9044 24.5654 68.9044" stroke="#45413C" stroke-width="0.285" stroke-linecap="round" stroke-linejoin="round"/>
<path d="M24.0608 80.1062C16.938 83.6173 12.2226 73.8399 13.7216 70.0018C17.5385 60.2326 24.5657 68.9044 24.5657 68.9044" stroke="#070808" stroke-width="1.71" stroke-miterlimit="10" stroke-linecap="round"/>
<path d="M140.782 1.16748H99.2071C93.7995 1.16748 89.416 5.55122 89.416 10.9585V38.5833C89.416 43.9908 93.7995 48.3744 99.2071 48.3744H140.782C146.19 48.3744 150.573 43.9908 150.573 38.5833V10.9585C150.573 5.55122 146.19 1.16748 140.782 1.16748Z" fill="white" fill-opacity="0.25"/>
<path d="M140.782 1.16748H99.2071C93.7995 1.16748 89.416 5.55122 89.416 10.9585V38.5833C89.416 43.9908 93.7995 48.3744 99.2071 48.3744H140.782C146.19 48.3744 150.573 43.9908 150.573 38.5833V10.9585C150.573 5.55122 146.19 1.16748 140.782 1.16748Z" stroke="white" stroke-opacity="0.28" stroke-width="1.71" stroke-miterlimit="10"/>
<path d="M91.692 64.4927C94.5799 64.4927 96.9211 62.1516 96.9211 59.2635C96.9211 56.3757 94.5799 54.0344 91.692 54.0344C88.8039 54.0344 86.4629 56.3757 86.4629 59.2635C86.4629 62.1516 88.8039 64.4927 91.692 64.4927Z" stroke="white" stroke-width="1.71" stroke-miterlimit="10"/>
<path d="M82.5049 72.1515C84.2896 72.1515 85.7364 70.7046 85.7364 68.92C85.7364 67.1353 84.2896 65.6885 82.5049 65.6885C80.7203 65.6885 79.2734 67.1353 79.2734 68.92C79.2734 70.7046 80.7203 72.1515 82.5049 72.1515Z" stroke="white" stroke-width="1.71" stroke-miterlimit="10"/>
<path d="M120.431 92.8895C120.436 92.2695 120.634 91.6653 121 91.1552C121.335 90.6515 121.752 90.2023 122.234 89.824C122.69 89.4743 123.104 89.0759 123.467 88.6366C123.815 88.2595 124.016 87.7779 124.036 87.2738C124.048 87.0622 124.008 86.8505 123.919 86.6565C123.829 86.4629 123.693 86.2921 123.521 86.1588C123.102 85.8756 122.595 85.7375 122.084 85.7672C120.883 85.7672 120.032 86.3799 119.531 87.6046L117 86.2005C117.397 85.2188 118.116 84.3888 119.049 83.8365C119.993 83.2773 121.083 82.9876 122.191 83.0012C123.414 82.9759 124.608 83.3588 125.57 84.0849C126.037 84.4373 126.41 84.8918 126.658 85.4107C126.906 85.9296 127.022 86.4978 126.996 87.0684C127.001 87.626 126.873 88.177 126.621 88.6789C126.391 89.1451 126.087 89.5737 125.72 89.9491C125.369 90.2999 125.019 90.6306 124.669 90.9409C124.336 91.2315 124.034 91.553 123.768 91.901C123.535 92.1842 123.403 92.5321 123.392 92.8929L120.431 92.8895ZM123.197 97.4939C122.899 97.7781 122.508 97.9541 122.091 97.9922C121.674 98.0303 121.256 97.9282 120.908 97.703C120.56 97.478 120.304 97.1439 120.184 96.7576C120.063 96.3712 120.085 95.9565 120.246 95.5843C120.407 95.2118 120.698 94.9046 121.068 94.7151C121.438 94.5253 121.864 94.465 122.275 94.5441C122.686 94.6232 123.056 94.837 123.322 95.1489C123.588 95.4608 123.733 95.8518 123.733 96.2551C123.736 96.4858 123.69 96.7148 123.599 96.928C123.506 97.141 123.37 97.3336 123.198 97.4942L123.197 97.4939Z" fill="white" fill-opacity="0.53"/>
<path d="M55.1203 18.5277C55.1259 17.7422 55.3637 16.9767 55.803 16.3305C56.2058 15.6922 56.7053 15.1229 57.2836 14.6438C57.8314 14.2006 58.3282 13.696 58.7644 13.14C59.1816 12.662 59.4228 12.0519 59.4466 11.4139C59.461 11.1457 59.4127 10.8777 59.3053 10.6322C59.1979 10.3867 59.0344 10.1705 58.8288 10.0018C58.3256 9.64235 57.7174 9.46712 57.1033 9.50483C55.6609 9.50483 54.6395 10.2806 54.0388 11.8325L51 10.0541C51.4768 8.8104 52.3406 7.759 53.4595 7.05942C54.5931 6.35116 55.9013 5.98415 57.232 6.00151C58.6998 5.96923 60.133 6.45451 61.288 7.37463C62.4293 8.28985 62.9999 9.54904 62.9999 11.1527C63.0055 11.8585 62.8513 12.5565 62.5492 13.1926C62.2739 13.7829 61.909 14.3254 61.4678 14.8009C61.0468 15.2455 60.6264 15.664 60.206 16.0563C59.8066 16.4241 59.4442 16.8315 59.1242 17.2723C58.8451 17.6307 58.6869 18.0709 58.6739 18.5277H55.1203ZM58.4423 24.3598C58.0852 24.7192 57.6164 24.9419 57.1156 24.9902C56.615 25.0382 56.1134 24.9088 55.6962 24.6235C55.279 24.3384 54.9718 23.9152 54.827 23.4261C54.6825 22.937 54.7093 22.4122 54.9026 21.9407C55.096 21.4693 55.4443 21.0803 55.8882 20.8405C56.3322 20.6004 56.8442 20.5239 57.3375 20.624C57.8306 20.7241 58.2743 20.9948 58.5932 21.3898C58.9121 21.7847 59.0863 22.2798 59.0863 22.7906C59.09 23.0827 59.035 23.373 58.9241 23.6426C58.8133 23.9125 58.6493 24.1566 58.4423 24.3598Z" fill="white" fill-opacity="0.53"/>
<path d="M117.807 28.5058C117.814 27.5962 118.091 26.7098 118.604 25.9617C119.073 25.2226 119.656 24.5633 120.331 24.0086C120.97 23.4954 121.55 22.9112 122.058 22.2673C122.545 21.7139 122.827 21.0075 122.854 20.2688C122.871 19.9581 122.815 19.6478 122.69 19.3636C122.564 19.0793 122.374 18.829 122.134 18.6336C121.546 18.2175 120.837 18.0146 120.121 18.0582C118.438 18.0582 117.246 18.9565 116.545 20.7534L113 18.6943C113.556 17.2542 114.564 16.0367 115.869 15.2267C117.192 14.4066 118.718 13.9816 120.271 14.0018C121.983 13.9644 123.655 14.5263 125.003 15.5917C126.334 16.6514 127 18.1094 127 19.9663C127.006 20.7836 126.827 21.5917 126.474 22.3283C126.153 23.0117 125.727 23.6399 125.212 24.1905C124.721 24.7053 124.231 25.1899 123.74 25.6441C123.274 26.07 122.852 26.5418 122.478 27.0522C122.153 27.4671 121.968 27.9769 121.953 28.5058H117.807ZM121.683 35.2587C121.266 35.6749 120.719 35.9327 120.135 35.9887C119.551 36.0442 118.966 35.8944 118.479 35.564C117.992 35.2339 117.634 34.7439 117.465 34.1776C117.296 33.6113 117.327 33.0035 117.553 32.4577C117.779 31.9118 118.185 31.4614 118.703 31.1837C119.221 30.9057 119.818 30.8172 120.394 30.9331C120.969 31.049 121.487 31.3624 121.859 31.8197C122.231 32.2771 122.434 32.8503 122.434 33.4417C122.438 33.78 122.374 34.1161 122.245 34.4283C122.115 34.7408 121.924 35.0235 121.683 35.2587Z" fill="white"/>
</g>
<defs>
<clipPath id="clip0_289_2741">
<rect width="152" height="150" fill="white"/>
</clipPath>
</defs>
</svg>
