<svg width="59" height="59" viewBox="0 0 59 59" fill="none" xmlns="http://www.w3.org/2000/svg">
<rect y="29.4961" width="41.7138" height="41.7138" rx="10" transform="rotate(-45 0 29.4961)" fill="#60BBE0"/>
<path d="M25.4521 35.1641C24.6214 35.1641 23.8934 34.9401 23.2681 34.4921C22.6428 34.0441 22.1528 33.4141 21.7981 32.6021C21.4528 31.7901 21.2801 30.8474 21.2801 29.7741C21.2801 28.6914 21.4528 27.7488 21.7981 26.9461C22.1434 26.1434 22.6288 25.5181 23.2541 25.0701C23.8794 24.6221 24.6074 24.3981 25.4381 24.3981C26.2874 24.3981 27.0201 24.6221 27.6361 25.0701C28.2614 25.5181 28.7514 26.1481 29.1061 26.9601C29.4608 27.7628 29.6381 28.7008 29.6381 29.7741C29.6381 30.8474 29.4608 31.7901 29.1061 32.6021C28.7608 33.4048 28.2754 34.0348 27.6501 34.4921C27.0248 34.9401 26.2921 35.1641 25.4521 35.1641ZM25.4661 33.4281C25.9421 33.4281 26.3481 33.2834 26.6841 32.9941C27.0201 32.6954 27.2768 32.2754 27.4541 31.7341C27.6408 31.1834 27.7341 30.5301 27.7341 29.7741C27.7341 29.0181 27.6408 28.3694 27.4541 27.8281C27.2768 27.2774 27.0154 26.8574 26.6701 26.5681C26.3341 26.2788 25.9234 26.1341 25.4381 26.1341C24.9714 26.1341 24.5701 26.2788 24.2341 26.5681C23.8981 26.8574 23.6368 27.2774 23.4501 27.8281C23.2728 28.3694 23.1841 29.0181 23.1841 29.7741C23.1841 30.5208 23.2728 31.1694 23.4501 31.7201C23.6368 32.2614 23.8981 32.6814 24.2341 32.9801C24.5794 33.2788 24.9901 33.4281 25.4661 33.4281ZM30.7722 34.9961V33.5541L33.6002 30.6001C34.1602 30.0121 34.5895 29.5454 34.8882 29.2001C35.1962 28.8454 35.4109 28.5421 35.5322 28.2901C35.6535 28.0381 35.7142 27.7814 35.7142 27.5201C35.7142 27.0814 35.5742 26.7361 35.2942 26.4841C35.0235 26.2321 34.6735 26.1061 34.2442 26.1061C33.7962 26.1061 33.4089 26.2368 33.0822 26.4981C32.7555 26.7501 32.5175 27.1234 32.3682 27.6181L30.7022 27.1001C30.8142 26.5494 31.0429 26.0734 31.3882 25.6721C31.7335 25.2614 32.1535 24.9488 32.6482 24.7341C33.1522 24.5101 33.6842 24.3981 34.2442 24.3981C34.9162 24.3981 35.5042 24.5194 36.0082 24.7621C36.5215 25.0048 36.9182 25.3454 37.1982 25.7841C37.4875 26.2228 37.6322 26.7361 37.6322 27.3241C37.6322 27.6974 37.5622 28.0661 37.4222 28.4301C37.2822 28.7941 37.0722 29.1674 36.7922 29.5501C36.5122 29.9234 36.1482 30.3434 35.7002 30.8101L33.2502 33.3861H37.7722V34.9961H30.7722Z" fill="white"/>
</svg>
