<svg width="59" height="59" viewBox="0 0 59 59" fill="none" xmlns="http://www.w3.org/2000/svg">
<rect y="29.4961" width="41.7138" height="41.7138" rx="10" transform="rotate(-45 0 29.4961)" fill="#60BBE0"/>
<path d="M26.4521 35.1641C25.6214 35.1641 24.8934 34.9401 24.2681 34.4921C23.6428 34.0441 23.1528 33.4141 22.7981 32.6021C22.4528 31.7901 22.2801 30.8474 22.2801 29.7741C22.2801 28.6914 22.4528 27.7488 22.7981 26.9461C23.1434 26.1434 23.6288 25.5181 24.2541 25.0701C24.8794 24.6221 25.6074 24.3981 26.4381 24.3981C27.2874 24.3981 28.0201 24.6221 28.6361 25.0701C29.2614 25.5181 29.7514 26.1481 30.1061 26.9601C30.4608 27.7628 30.6381 28.7008 30.6381 29.7741C30.6381 30.8474 30.4608 31.7901 30.1061 32.6021C29.7608 33.4048 29.2754 34.0348 28.6501 34.4921C28.0248 34.9401 27.2921 35.1641 26.4521 35.1641ZM26.4661 33.4281C26.9421 33.4281 27.3481 33.2834 27.6841 32.9941C28.0201 32.6954 28.2768 32.2754 28.4541 31.7341C28.6408 31.1834 28.7341 30.5301 28.7341 29.7741C28.7341 29.0181 28.6408 28.3694 28.4541 27.8281C28.2768 27.2774 28.0154 26.8574 27.6701 26.5681C27.3341 26.2788 26.9234 26.1341 26.4381 26.1341C25.9714 26.1341 25.5701 26.2788 25.2341 26.5681C24.8981 26.8574 24.6368 27.2774 24.4501 27.8281C24.2728 28.3694 24.1841 29.0181 24.1841 29.7741C24.1841 30.5208 24.2728 31.1694 24.4501 31.7201C24.6368 32.2614 24.8981 32.6814 25.2341 32.9801C25.5794 33.2788 25.9901 33.4281 26.4661 33.4281ZM33.5502 34.9961V26.1901H31.5342V24.5661H35.4542V34.9961H33.5502Z" fill="white"/>
</svg>
