<svg width="59" height="59" viewBox="0 0 59 59" fill="none" xmlns="http://www.w3.org/2000/svg">
<rect y="29.4961" width="41.7138" height="41.7138" rx="10" transform="rotate(-45 0 29.4961)" fill="#60BBE0"/>
<path d="M24.9521 35.1641C24.1214 35.1641 23.3934 34.9401 22.7681 34.4921C22.1428 34.0441 21.6528 33.4141 21.2981 32.6021C20.9528 31.7901 20.7801 30.8474 20.7801 29.7741C20.7801 28.6914 20.9528 27.7488 21.2981 26.9461C21.6434 26.1434 22.1288 25.5181 22.7541 25.0701C23.3794 24.6221 24.1074 24.3981 24.9381 24.3981C25.7874 24.3981 26.5201 24.6221 27.1361 25.0701C27.7614 25.5181 28.2514 26.1481 28.6061 26.9601C28.9608 27.7628 29.1381 28.7008 29.1381 29.7741C29.1381 30.8474 28.9608 31.7901 28.6061 32.6021C28.2608 33.4048 27.7754 34.0348 27.1501 34.4921C26.5248 34.9401 25.7921 35.1641 24.9521 35.1641ZM24.9661 33.4281C25.4421 33.4281 25.8481 33.2834 26.1841 32.9941C26.5201 32.6954 26.7768 32.2754 26.9541 31.7341C27.1408 31.1834 27.2341 30.5301 27.2341 29.7741C27.2341 29.0181 27.1408 28.3694 26.9541 27.8281C26.7768 27.2774 26.5154 26.8574 26.1701 26.5681C25.8341 26.2788 25.4234 26.1341 24.9381 26.1341C24.4714 26.1341 24.0701 26.2788 23.7341 26.5681C23.3981 26.8574 23.1368 27.2774 22.9501 27.8281C22.7728 28.3694 22.6841 29.0181 22.6841 29.7741C22.6841 30.5208 22.7728 31.1694 22.9501 31.7201C23.1368 32.2614 23.3981 32.6814 23.7341 32.9801C24.0794 33.2788 24.4901 33.4281 24.9661 33.4281ZM33.7302 35.1641C33.1609 35.1641 32.6195 35.0614 32.1062 34.8561C31.6022 34.6414 31.1682 34.3428 30.8042 33.9601C30.4495 33.5681 30.2069 33.1061 30.0762 32.5741L31.7422 31.9861C31.9102 32.4621 32.1669 32.8261 32.5122 33.0781C32.8575 33.3208 33.2635 33.4421 33.7302 33.4421C34.1035 33.4421 34.4255 33.3721 34.6962 33.2321C34.9762 33.0921 35.1955 32.8914 35.3542 32.6301C35.5129 32.3594 35.5922 32.0421 35.5922 31.6781C35.5922 31.3141 35.5129 31.0061 35.3542 30.7541C35.2049 30.4928 34.9902 30.2921 34.7102 30.1521C34.4302 30.0121 34.0989 29.9421 33.7162 29.9421C33.5389 29.9421 33.3522 29.9608 33.1562 29.9981C32.9695 30.0354 32.8015 30.0914 32.6522 30.1661L32.2182 29.2561L34.9202 26.1761H30.6642V24.5661H37.0622V26.0641L34.3462 29.2421L34.3742 28.5281C34.9995 28.5374 35.5455 28.6728 36.0122 28.9341C36.4789 29.1954 36.8429 29.5548 37.1042 30.0121C37.3655 30.4694 37.4962 31.0061 37.4962 31.6221C37.4962 32.2941 37.3329 32.9008 37.0062 33.4421C36.6795 33.9741 36.2315 34.3941 35.6622 34.7021C35.0929 35.0101 34.4489 35.1641 33.7302 35.1641Z" fill="white"/>
</svg>
