<svg width="424" height="246" viewBox="0 0 424 246" fill="none" xmlns="http://www.w3.org/2000/svg">
<g clip-path="url(#clip0_678_3749)">
<path d="M267.049 245.678C353.232 245.678 423.098 239.14 423.098 231.075C423.098 223.011 353.232 216.473 267.049 216.473C180.866 216.473 111 223.011 111 231.075C111 239.14 180.866 245.678 267.049 245.678Z" fill="#5F5F5F" fill-opacity="0.12"/>
<path d="M329.006 213.234C333.582 213.234 337.284 209.532 337.284 204.956V192.308C337.284 187.732 333.582 184.03 329.006 184.03C324.43 184.03 320.728 187.732 320.728 192.308V204.956C320.728 209.532 324.43 213.234 329.006 213.234Z" stroke="#4D4D61" stroke-width="1.5425" stroke-miterlimit="10" stroke-linecap="round" stroke-linejoin="round"/>
<path d="M329.006 213.234C333.582 213.234 337.284 209.532 337.284 204.956V192.308C337.284 187.732 333.582 184.03 329.006 184.03C324.43 184.03 320.728 187.732 320.728 192.308V204.956C320.728 209.532 324.43 213.234 329.006 213.234Z" fill="#4D4D61"/>
<path d="M323.041 207.938V195.29C323.041 190.714 326.743 187.012 331.319 187.012C333.325 187.012 335.124 187.731 336.564 188.863C335.278 185.983 332.399 183.978 329.006 183.978C324.43 183.978 320.728 187.68 320.728 192.256V204.905C320.728 207.527 321.91 209.841 323.813 211.332C323.298 210.355 323.041 209.172 323.041 207.938Z" fill="#56566D"/>
<path d="M328.903 187.372C331.43 187.372 333.479 186.635 333.479 185.726C333.479 184.818 331.43 184.081 328.903 184.081C326.376 184.081 324.327 184.818 324.327 185.726C324.327 186.635 326.376 187.372 328.903 187.372Z" fill="#4D4D61"/>
<path d="M329.006 185.726C330.702 185.726 332.091 184.338 332.091 182.641V168.399C332.091 166.959 330.908 165.777 329.468 165.777H328.594C327.155 165.777 325.972 166.959 325.972 168.399V182.641C325.921 184.338 327.309 185.726 329.006 185.726Z" fill="#4D4D61"/>
<path d="M329.006 185.726C330.702 185.726 332.091 184.338 332.091 182.641V168.348C332.091 166.908 330.96 165.777 329.52 165.777H328.543C327.103 165.777 325.972 166.908 325.972 168.348V182.641C325.921 184.338 327.309 185.726 329.006 185.726Z" stroke="#4D4D61" stroke-width="1.5425" stroke-miterlimit="10" stroke-linecap="round" stroke-linejoin="round"/>
<path d="M264.221 59.7558H255.428C253.783 59.7558 252.446 58.419 252.446 56.7737C252.446 55.1284 253.783 53.7915 255.428 53.7915H259.13C262.061 53.7915 264.426 51.4264 264.426 48.4956C264.426 45.5649 262.061 43.1997 259.13 43.1997H247.51C247.047 43.1997 246.636 42.7884 246.636 42.3257C246.636 41.8629 247.047 41.4516 247.51 41.4516H248.796C249.31 41.4516 249.721 41.0402 249.721 40.5261C249.721 40.0119 249.31 39.6006 248.796 39.6006H239.695C239.078 39.6006 238.564 40.1147 238.564 40.7317C238.564 41.3487 239.078 41.8629 239.695 41.8629H243.243C244.271 41.8629 245.145 42.737 245.145 43.7653C245.145 44.7936 244.271 45.6677 243.243 45.6677H241.546C239.129 45.6677 237.124 47.6216 237.124 50.0896C237.124 52.5575 239.078 54.5114 241.546 54.5114H245.145C245.968 54.5114 246.636 55.1798 246.636 56.0024C246.636 56.8251 245.968 57.4935 245.145 57.4935H243.757C242.163 57.4935 240.877 58.7789 240.877 60.3729C240.877 61.9668 242.163 63.2522 243.757 63.2522H262.524C263.552 63.2522 264.426 64.1262 264.375 65.1546L264.323 66.5943H268.077V63.6121C267.974 61.4526 266.277 59.7558 264.221 59.7558ZM252.035 48.5985C252.035 48.1357 252.395 47.7244 252.909 47.7244H257.999C258.462 47.7244 258.873 48.0843 258.873 48.5985C258.873 49.0612 258.513 49.4725 257.999 49.4725H252.909C252.395 49.4211 252.035 49.0612 252.035 48.5985Z" fill="#E5E5E5"/>
<path d="M236.97 39.395H235.428C234.862 39.395 234.399 38.9323 234.399 38.3667C234.399 37.8011 234.862 37.3384 235.428 37.3384H236.97C237.536 37.3384 237.999 37.8011 237.999 38.3667C237.999 38.9323 237.536 39.395 236.97 39.395Z" fill="#E5E5E5"/>
<path d="M360.73 155.133L358.57 151.586C358.108 150.814 358.365 149.786 359.136 149.272C359.907 148.809 360.935 149.066 361.45 149.838L363.609 153.385C364.072 154.157 363.815 155.185 363.044 155.699C362.221 156.213 361.193 155.956 360.73 155.133Z" fill="#4D4D61"/>
<path d="M364.842 153.798L361.346 151.587C360.575 151.072 360.318 150.044 360.832 149.273C361.346 148.502 362.374 148.245 363.146 148.759L366.642 150.97C367.413 151.484 367.67 152.512 367.156 153.283C366.693 154.055 365.665 154.26 364.842 153.798Z" fill="#4D4D61"/>
<path d="M367.671 151.02L363.557 150.455C362.632 150.352 362.015 149.478 362.118 148.552C362.22 147.627 363.095 147.01 364.02 147.113L368.133 147.678C369.059 147.781 369.676 148.655 369.573 149.581C369.419 150.506 368.596 151.123 367.671 151.02Z" fill="#4D4D61"/>
<path d="M369.11 147.627L364.997 148.193C364.071 148.347 363.249 147.678 363.094 146.753C362.94 145.827 363.609 145.005 364.534 144.85L368.647 144.285C369.573 144.131 370.396 144.799 370.55 145.725C370.653 146.65 370.036 147.473 369.11 147.627Z" fill="#4D4D61"/>
<path d="M369.727 144.13L365.768 145.364C364.894 145.622 363.969 145.159 363.66 144.233C363.403 143.359 363.866 142.434 364.791 142.125L368.75 140.891C369.625 140.634 370.55 141.097 370.859 142.022C371.064 142.948 370.601 143.873 369.727 144.13Z" fill="#4D4D61"/>
<path d="M369.83 140.531L365.974 142.022C365.1 142.331 364.123 141.919 363.815 141.045C363.506 140.171 363.918 139.194 364.792 138.886L368.648 137.395C369.522 137.086 370.499 137.498 370.807 138.372C371.116 139.246 370.705 140.171 369.83 140.531Z" fill="#4D4D61"/>
<path d="M369.727 136.932L366.025 138.835C365.202 139.246 364.174 138.937 363.762 138.115C363.351 137.292 363.66 136.264 364.482 135.852L368.184 133.95C369.007 133.539 370.035 133.847 370.447 134.67C370.858 135.492 370.549 136.521 369.727 136.932Z" fill="#4D4D61"/>
<path d="M369.419 134.516L365.717 136.418C364.895 136.829 363.866 136.521 363.455 135.698C363.044 134.876 363.352 133.847 364.175 133.436L367.877 131.533C368.699 131.122 369.728 131.431 370.139 132.253C370.55 133.076 370.242 134.104 369.419 134.516Z" fill="#4D4D61"/>
<path d="M270.7 69.731C266.947 69.731 263.913 72.7645 263.913 76.5179C263.913 80.2713 266.947 83.3049 270.7 83.3049C274.453 83.3049 277.487 80.2713 277.487 76.5179C277.487 72.7645 274.453 69.731 270.7 69.731ZM270.7 80.6827C268.438 80.6827 266.587 78.8317 266.587 76.5694C266.587 74.307 268.438 72.456 270.7 72.456C272.962 72.456 274.813 74.307 274.813 76.5694C274.813 78.8317 272.962 80.6827 270.7 80.6827Z" stroke="#4D4D61" stroke-width="1.5425" stroke-miterlimit="10" stroke-linecap="round" stroke-linejoin="round"/>
<path d="M276.304 72.9702H275.584H270.443C268.9 72.9702 267.872 74.6155 268.643 76.0038C269.723 78.0604 271.934 79.5001 274.453 79.5001H275.122V87.2126H282.166V78.7803C282.114 75.5925 279.492 72.9702 276.304 72.9702Z" fill="#F7E3CB"/>
<path d="M276.304 72.9702H275.584H273.373C276.612 72.9702 279.235 75.5925 279.235 78.8317V87.264H282.165V78.8317C282.114 75.5925 279.492 72.9702 276.304 72.9702Z" fill="#EDD6BC"/>
<path d="M276.304 72.9702H275.584H269.671C268.592 72.9702 267.872 73.9985 268.18 74.9755C269.054 77.5977 271.522 79.5001 274.402 79.5001H275.07V87.2126H282.114V78.7803C282.114 75.5925 279.492 72.9702 276.304 72.9702Z" stroke="#4D4D61" stroke-width="1.5425" stroke-miterlimit="10" stroke-linecap="round" stroke-linejoin="round"/>
<path d="M256.508 86.2354H266.38C268.539 86.2354 270.339 84.4873 270.339 82.2764V66.9028H252.549V82.2764C252.549 84.4359 254.297 86.2354 256.508 86.2354Z" fill="#FFD680"/>
<path d="M252.549 80.6823H254.863C258.05 80.6823 260.57 78.1115 260.57 74.9751V72.7642L261.752 73.6897" stroke="#4D4D61" stroke-width="1.02833" stroke-miterlimit="10" stroke-linecap="round" stroke-linejoin="round"/>
<path d="M265.147 66.8511V82.2246C265.147 84.3841 263.398 86.1837 261.188 86.1837H266.329C268.489 86.1837 270.288 84.4355 270.288 82.2246V66.8511H265.147Z" fill="#EABD6C"/>
<path d="M256.508 86.2354H266.38C268.539 86.2354 270.339 84.4873 270.339 82.2764V66.9028H252.549V82.2764C252.549 84.4359 254.297 86.2354 256.508 86.2354Z" stroke="#4D4D61" stroke-width="1.5425" stroke-miterlimit="10" stroke-linecap="round" stroke-linejoin="round"/>
<path d="M300.315 87.7783L302.886 93.0742L306.691 90.452L300.315 87.7783Z" fill="#CA4361"/>
<path d="M300.315 87.7783L302.886 93.0742L306.691 90.452L300.315 87.7783Z" stroke="#4D4D61" stroke-width="1.02833" stroke-miterlimit="10" stroke-linecap="round" stroke-linejoin="round"/>
<path d="M309.052 208.669L316.085 204.301L286.76 157.084L279.728 161.452L309.052 208.669Z" fill="#F7E3CB"/>
<path d="M309.052 208.669L316.085 204.301L286.76 157.084L279.728 161.452L309.052 208.669Z" stroke="#4D4D61" stroke-width="1.5425" stroke-miterlimit="10" stroke-linecap="round" stroke-linejoin="round"/>
<path d="M203.086 194.776L257.536 150.969L262.781 157.293L208.33 201.152L203.086 194.776Z" fill="#F7E3CB"/>
<path d="M209.052 189.994L214.039 196.575L218.975 192.719L213.988 185.983L209.052 189.994Z" fill="#EDD6BC"/>
<path d="M203.086 194.776L257.536 150.969L262.781 157.293L208.33 201.152L203.086 194.776Z" stroke="#4D4D61" stroke-width="1.5425" stroke-miterlimit="10" stroke-linecap="round" stroke-linejoin="round"/>
<path d="M320.264 87.7776L316.357 83.253C314.712 81.3506 311.832 81.1449 309.93 82.7388C307.976 84.3841 307.77 87.3149 309.416 89.2173L313.323 93.7419C319.493 100.889 318.722 111.738 311.524 117.908C304.377 124.078 293.528 123.306 287.358 116.108C284.684 112.972 283.193 109.013 283.193 104.899V86.2866H274.041V104.951C274.041 111.275 276.303 117.342 280.417 122.124C289.929 133.127 306.536 134.361 317.539 124.849C328.543 115.44 329.725 98.7808 320.264 87.7776Z" stroke="#4D4D61" stroke-width="1.5425" stroke-miterlimit="10" stroke-linecap="round" stroke-linejoin="round"/>
<path d="M305.508 90.4518C305.508 90.4518 311.421 96.3647 315.226 101.712C318.979 107.008 321.755 114.052 321.755 115.44C323.915 116.828 324.481 117.6 324.84 117.24C325.2 116.88 325.2 114.823 325.2 113.024C325.2 111.173 308.49 88.4466 305.508 90.4518Z" fill="#CA4361"/>
<path d="M305.508 90.4518C305.508 90.4518 311.421 96.3647 315.226 101.712C318.979 107.008 321.755 114.052 321.755 115.44C323.915 116.828 324.481 117.6 324.84 117.24C325.2 116.88 325.2 114.823 325.2 113.024C325.2 111.173 308.49 88.4466 305.508 90.4518Z" stroke="#4D4D61" stroke-width="1.02833" stroke-miterlimit="10" stroke-linecap="round" stroke-linejoin="round"/>
<path d="M323.504 209.841L283.348 222.027C282.628 222.233 281.857 221.821 281.599 221.101L281.548 220.999C281.342 220.279 281.754 219.507 282.474 219.25L322.63 207.065C323.35 206.859 324.121 207.27 324.378 207.99L324.429 208.093C324.635 208.864 324.224 209.635 323.504 209.841Z" fill="#595D5C"/>
<path d="M323.504 209.841L283.348 222.027C282.628 222.233 281.857 221.821 281.599 221.101L281.548 220.999C281.342 220.279 281.754 219.507 282.474 219.25L322.63 207.065C323.35 206.859 324.121 207.27 324.378 207.99L324.429 208.093C324.635 208.864 324.224 209.635 323.504 209.841Z" stroke="#4D4D61" stroke-width="1.5425" stroke-miterlimit="10" stroke-linecap="round" stroke-linejoin="round"/>
<path d="M317.077 199.506L316.923 199.558C316.048 201.1 314.197 202.488 311.832 203.208C310.084 203.722 308.336 203.825 306.896 203.465C305.611 203.157 304.274 203.105 302.989 203.465L287.152 207.887C285.25 208.401 283.759 209.841 282.988 211.846L281.291 216.268C280.725 217.759 282.011 219.456 283.399 219.044L322.27 207.219L320.625 201.871C320.11 200.175 318.516 199.146 317.077 199.506Z" fill="#9B8462"/>
<path d="M282.988 211.897L282.73 212.617C284.067 213.645 285.867 214.057 287.666 213.543L311.935 206.139C314.249 205.419 315.688 203.362 315.74 201.048C314.763 201.974 313.426 202.745 311.884 203.208C310.135 203.722 308.387 203.825 306.948 203.465C305.662 203.156 304.325 203.105 303.04 203.465L287.204 207.887C285.25 208.401 283.759 209.841 282.988 211.897Z" fill="#E1C885"/>
<path d="M317.077 199.506L316.923 199.558C316.048 201.1 314.197 202.488 311.832 203.208C310.084 203.722 308.336 203.825 306.896 203.465C305.611 203.157 304.274 203.105 302.989 203.465L287.152 207.887C285.25 208.401 283.759 209.841 282.988 211.846L281.291 216.268C280.725 217.759 282.011 219.456 283.399 219.044L322.27 207.219L320.625 201.871C320.11 200.175 318.516 199.146 317.077 199.506Z" stroke="#4D4D61" stroke-width="1.5425" stroke-miterlimit="10" stroke-linecap="round" stroke-linejoin="round"/>
<path d="M302.988 208.092L305.713 203.259L303.657 203.311L302.988 208.092Z" stroke="#4D4D61" stroke-width="1.5425" stroke-miterlimit="10" stroke-linecap="round" stroke-linejoin="round"/>
<path d="M295.328 77.1351C317.232 90.8119 332.297 112.87 337.335 137.858H344.431C340.42 112.355 325.972 89.6293 304.429 75.1299" fill="#F7E3CB"/>
<path d="M338.055 164.492L343.763 160.79H314.918L320.625 164.492C325.973 167.936 332.759 167.936 338.055 164.492Z" stroke="#4D4D61" stroke-width="1.5425" stroke-miterlimit="10" stroke-linecap="round" stroke-linejoin="round"/>
<path d="M338.055 164.492L343.763 160.79H314.918L320.625 164.492C325.973 167.936 332.759 167.936 338.055 164.492Z" fill="#4D4D61"/>
<path d="M302.783 75.9012C308.696 73.4332 312.912 67.5717 312.912 60.7333V55.1804H314.044C317.951 55.1804 321.139 51.9925 321.139 48.0849C321.139 44.1772 318.414 40.5267 314.455 40.5267L312.552 40.6809L312.861 31.9401C312.861 22.8394 305.508 15.4868 296.408 15.4868C287.307 15.4868 279.954 22.8394 279.954 31.9401V40.938H275.07C273.579 40.938 272.345 42.172 272.345 43.6631C272.345 47.6736 275.584 50.9642 279.646 50.9642H280.006V60.7333C280.006 69.4227 286.793 76.5696 295.328 77.1352" fill="#F7E3CB"/>
<path d="M355.176 150.866H299.698C299.492 150.866 299.338 150.866 299.132 150.918C294.865 151.226 291.523 154.98 291.831 159.401C292.088 163.36 295.379 166.6 299.39 166.805C300.983 166.857 302.474 166.497 303.708 165.777C308.953 162.743 314.814 160.892 320.933 160.892H355.176C357.902 160.892 360.112 158.682 360.112 155.956C360.164 153.129 357.902 150.866 355.176 150.866Z" fill="#CA4361"/>
<path d="M300.366 162.126C300.058 157.705 303.4 154.003 307.668 153.643C307.822 153.643 308.027 153.591 308.233 153.591H359.65C358.827 151.946 357.182 150.866 355.228 150.866H299.698C299.492 150.866 299.338 150.866 299.132 150.918C294.865 151.226 291.523 154.98 291.831 159.401C292.088 163.36 295.379 166.6 299.39 166.805C300.315 166.857 301.189 166.754 302.012 166.497C301.086 165.211 300.469 163.72 300.366 162.126Z" fill="#D35375"/>
<path d="M355.176 150.866H299.698C299.492 150.866 299.338 150.866 299.132 150.918C294.865 151.226 291.523 154.98 291.831 159.401C292.088 163.36 295.379 166.6 299.39 166.805C300.983 166.857 302.474 166.497 303.708 165.777C308.953 162.743 314.814 160.892 320.933 160.892H355.176C357.902 160.892 360.112 158.682 360.112 155.956C360.164 153.129 357.902 150.866 355.176 150.866Z" stroke="#4D4D61" stroke-width="1.5425" stroke-miterlimit="10" stroke-linecap="round" stroke-linejoin="round"/>
<path d="M348.791 217.648L350.192 214.111L334.895 208.052L333.494 211.59L348.791 217.648Z" fill="#4D4D61"/>
<path d="M310.65 217.604L309.262 214.108L322.784 208.761C323.761 208.401 324.841 208.864 325.252 209.84C325.612 210.817 325.149 211.897 324.173 212.308L310.65 217.604Z" fill="#4D4D61"/>
<path d="M320.933 49.5244L318.568 62.1728C317.591 67.2631 312.912 70.7594 307.77 70.1424H307.719L313.786 44.5884L320.933 49.5244Z" fill="#A3886C"/>
<path d="M320.933 49.5244L318.568 62.1728C317.591 67.2631 312.912 70.7594 307.77 70.1424H307.719L313.786 44.5884L320.933 49.5244Z" stroke="#4D4D61" stroke-width="1.5425" stroke-miterlimit="10" stroke-linecap="round" stroke-linejoin="round"/>
<path d="M279.955 51.838V50.6554C279.955 49.0101 278.515 47.7761 276.921 48.0846L275.019 48.753L279.955 51.838Z" fill="#EDD6BC"/>
<path d="M313.786 40.9377H312.861V32.1455C308.902 38.2641 302.732 46.3365 302.732 46.3365V56.8254V57.391C302.732 65.4634 296.202 71.9933 288.129 71.9933H284.376C287.358 75.1811 291.626 77.1864 296.356 77.1864C305.457 77.1864 312.809 69.8338 312.809 60.7331V55.1801H313.94C318.002 55.1801 321.242 51.7866 321.036 47.7247C320.933 43.8685 317.591 40.9377 313.786 40.9377Z" fill="#EDD6BC"/>
<path d="M304.429 75.13C309.467 72.3021 312.912 66.9547 312.912 60.7333V55.1804H314.044C317.951 55.1804 321.139 51.9925 321.139 48.0849C321.139 44.1772 318.414 40.5267 314.455 40.5267L312.552 40.6809L312.861 31.9401C312.861 22.8394 305.508 15.4868 296.408 15.4868C287.307 15.4868 279.954 22.8394 279.954 31.9401V40.938H275.07C273.579 40.938 272.345 42.172 272.345 43.6631C272.345 47.6736 275.584 50.9642 279.646 50.9642H280.006V60.7333C280.006 69.4227 286.793 76.5696 295.328 77.1352" stroke="#4D4D61" stroke-width="1.5425" stroke-miterlimit="10" stroke-linecap="round" stroke-linejoin="round"/>
<path d="M286.382 38.3667C286.95 38.3667 287.41 37.906 287.41 37.3384C287.41 36.7702 286.95 36.3101 286.382 36.3101C285.814 36.3101 285.354 36.7702 285.354 37.3384C285.354 37.906 285.814 38.3667 286.382 38.3667Z" stroke="#4D4D61" stroke-width="1.02833" stroke-miterlimit="10"/>
<path d="M296.098 47.8276V56.1571C296.098 61.453 291.779 65.772 286.483 65.772C282.884 65.772 280.005 62.8412 280.005 59.2935" stroke="#4D4D61" stroke-width="1.02833" stroke-miterlimit="10" stroke-linecap="round" stroke-linejoin="round"/>
<path d="M295.174 47.3652L297.025 48.3422" stroke="#4D4D61" stroke-width="1.02833" stroke-miterlimit="10" stroke-linecap="round" stroke-linejoin="round"/>
<path d="M288.49 27.6719L286.639 31.271L293.888 35.6929L294.351 32.6079L288.49 27.6719Z" fill="#B0977A"/>
<path d="M288.489 27.6719L287.924 28.803C289.929 29.3686 291.42 31.1168 291.42 33.2763C291.42 33.5848 291.369 33.8933 291.317 34.1504L293.888 35.7443L294.351 32.6593L288.489 27.6719Z" fill="#A3886C"/>
<path d="M288.49 27.6719L286.639 31.271L293.888 35.6929L294.351 32.6079L288.49 27.6719Z" stroke="#4D4D61" stroke-width="1.02833" stroke-miterlimit="10" stroke-linecap="round" stroke-linejoin="round"/>
<path d="M323.813 22.8906C325.561 23.9703 326.332 24.2788 328.029 24.2788C325.098 20.1655 324.378 12.0931 320.008 7.00287C318.054 4.68913 315.843 2.16973 311.627 0.884314C304.377 -1.27518 297.539 1.14139 296.665 1.60414C291.369 4.43205 286.073 10.9105 287.615 16.4635C287.77 17.0805 287.256 17.4918 287.615 17.9546C293.426 13.5328 302.578 14.8696 306.897 20.8339C310.342 25.5642 309.416 33.2767 306.074 37.6985C305.097 38.6754 304.686 41.9661 303.246 45.2568L307.102 42.8916C311.061 40.475 317.026 41.1949 320.316 44.4855C320.882 45.4624 321.242 46.4908 321.396 47.5191C321.807 47.262 322.322 46.9535 322.939 46.4393C326.743 43.2515 327.412 38.4184 327.566 37.1844C328.697 29.8832 324.635 23.8161 323.813 22.8906Z" fill="#B0977A"/>
<path d="M328.081 24.3299C325.15 20.2166 324.43 12.1442 320.06 7.05395C318.363 5.04871 316.46 2.83781 313.17 1.50098C316.769 5.66571 318.98 11.1159 318.98 17.0802C318.98 26.438 313.581 34.5104 305.714 38.418C304.995 39.8063 304.532 42.5828 303.298 45.3592L307.154 42.9941C311.113 40.5775 317.077 41.2973 320.368 44.588C320.934 45.5649 321.294 46.5932 321.448 47.6216C321.859 47.3645 322.373 47.056 322.99 46.5418C326.795 43.354 327.464 38.5209 327.618 37.2869C328.646 29.9343 324.533 23.8157 323.762 22.9417C325.613 24.0214 326.384 24.3299 328.081 24.3299Z" fill="#A3886C"/>
<path d="M323.813 22.8906C325.561 23.9703 326.332 24.2788 328.029 24.2788C325.098 20.1655 324.378 12.0931 320.008 7.00287C318.054 4.68913 315.843 2.16973 311.627 0.884314C304.377 -1.27518 297.539 1.14139 296.665 1.60414C291.369 4.43205 286.073 10.9105 287.615 16.4635C287.77 17.0805 287.256 17.4919 287.615 17.9546C293.426 13.5328 302.578 14.8696 306.897 20.8339C310.342 25.5642 309.416 33.2767 306.074 37.6985C305.097 38.6754 304.686 41.9661 303.246 45.2568L309.056 41.7604C312.912 39.3953 318.003 40.6293 320.316 44.5369C320.882 45.5138 321.242 46.5422 321.396 47.5705C321.807 47.3134 322.322 47.0049 322.939 46.4908C326.743 43.3029 327.412 38.4698 327.566 37.2358C328.697 29.8832 324.635 23.8161 323.813 22.8906Z" stroke="#4D4D61" stroke-width="1.5425" stroke-miterlimit="10" stroke-linecap="round" stroke-linejoin="round"/>
<path d="M310.752 45.6162L316.871 49.9866" stroke="#4D4D61" stroke-width="1.02833" stroke-miterlimit="10" stroke-linecap="round" stroke-linejoin="round"/>
<path d="M316.1 44.5884L311.729 50.7069" stroke="#4D4D61" stroke-width="1.02833" stroke-miterlimit="10" stroke-linecap="round" stroke-linejoin="round"/>
<path d="M281.137 49.0101L281.702 49.5242C281.702 49.5242 282.73 48.4445 284.067 49.0101C283.707 48.2902 280.725 47.9303 281.137 49.0101Z" stroke="#4D4D61" stroke-width="1.02833" stroke-miterlimit="10" stroke-linecap="round" stroke-linejoin="round"/>
<path d="M295.328 77.1351C317.232 90.8119 332.297 112.87 337.335 137.858H344.431C340.42 112.355 325.972 89.6293 304.429 75.1299" stroke="#4D4D61" stroke-width="1.5425" stroke-miterlimit="10" stroke-linecap="round" stroke-linejoin="round"/>
<path d="M269.446 149.192L300.947 199.903L311.474 193.364L279.973 142.653L269.446 149.192Z" fill="#475C80"/>
<path opacity="0.57" d="M275.687 159.607L298.361 195.753C299.801 194.827 304.171 196.832 303.246 195.393L282.525 164.389C281.599 162.949 277.64 159.196 276.149 160.121L275.687 159.607Z" fill="#6987AF"/>
<path d="M274.71 157.653C274.71 157.653 284.428 154.619 287.77 155.236C284.376 148.706 283.142 147.421 283.142 147.421L270.134 151.637L274.71 157.653Z" fill="#4D4D61"/>
<path d="M269.446 149.192L300.947 199.903L311.474 193.364L279.973 142.653L269.446 149.192Z" stroke="#4D4D61" stroke-width="1.5425" stroke-miterlimit="10" stroke-linecap="round" stroke-linejoin="round"/>
<path d="M250.647 153.231L211.005 185.932L218.872 195.496L255.069 165.623C266.689 156.008 281.343 150.763 296.408 150.763H341.294C344.688 150.763 347.464 147.987 347.464 144.593V138.423H291.934C276.869 138.372 262.267 143.616 250.647 153.231Z" fill="#475C80"/>
<path opacity="0.57" d="M213.473 183.875L216.969 188.76L258.359 151.689L256.251 149.066C254.297 150.352 252.446 151.74 250.647 153.231L213.473 183.875Z" fill="#6987AF"/>
<path opacity="0.57" d="M282.988 141.56L329.314 142.177C331.731 142.177 339.855 140.737 339.855 138.32H292.037C287.101 138.32 271.574 140.737 265.866 143.822C264.375 144.645 276.047 141.56 282.988 141.56Z" fill="#6987AF"/>
<path d="M250.647 153.231L211.005 185.932L218.872 195.496L255.069 165.623C266.689 156.008 281.343 150.763 296.408 150.763H341.294C344.688 150.763 347.464 147.987 347.464 144.593V138.423H291.934C276.869 138.372 262.267 143.616 250.647 153.231Z" stroke="#4D4D61" stroke-width="1.5425" stroke-miterlimit="10" stroke-linecap="round" stroke-linejoin="round"/>
<path d="M347.516 137.858C343.968 114.72 331.988 93.5882 314.147 78.626L302.887 86.4413C318.877 99.5011 329.932 117.703 334.148 137.858H347.516Z" fill="#E5E5E5"/>
<path d="M334.148 137.857H339.804C335.433 116.571 323.916 97.2898 307.309 83.356L302.887 86.4409C318.877 99.4493 329.932 117.702 334.148 137.857Z" fill="white"/>
<path d="M347.516 137.858C343.968 114.72 331.988 93.5882 314.147 78.626L302.887 86.4413C318.877 99.5011 329.932 117.703 334.148 137.858H347.516Z" stroke="#4D4D61" stroke-width="1.5425" stroke-miterlimit="10" stroke-linecap="round" stroke-linejoin="round"/>
<path d="M265.352 102.174C265.352 102.174 261.084 105.722 261.444 98.4207C261.599 95.0787 265.969 95.1815 265.969 95.1815L266.432 98.3179L265.352 102.174Z" fill="#B0977A"/>
<path d="M265.352 102.174C265.352 102.174 261.084 105.722 261.444 98.4207C261.599 95.0787 265.969 95.1815 265.969 95.1815L266.432 98.3179L265.352 102.174Z" stroke="#4D4D61" stroke-width="1.5425" stroke-miterlimit="10" stroke-linecap="round" stroke-linejoin="round"/>
<path d="M277.948 94.2563C275.892 97.1356 272.704 98.9866 269.156 99.3465C266.482 99.6036 266.534 93.4336 262.369 100.735C260.724 101.609 258.77 99.8606 257.896 98.8323C257.639 98.5238 257.639 98.0611 257.947 97.804C258.718 97.1356 260.158 95.5417 260.827 92.7652C261.289 90.0915 262.163 88.1377 264.271 89.2688C266.122 90.2458 277.64 88.8575 277.948 94.2563Z" fill="#EDD6BC"/>
<path d="M277.948 94.2563C275.892 97.1356 272.704 98.9866 269.156 99.3465C266.482 99.6036 266.534 93.4336 262.369 100.735C260.724 101.609 258.821 99.8607 257.896 98.8837C257.587 98.5752 257.639 98.0611 257.947 97.804C258.77 97.0842 260.158 95.5417 260.775 92.7652C261.238 90.0915 262.112 88.1377 264.22 89.2688C266.122 90.2458 277.64 88.8575 277.948 94.2563Z" stroke="#4D4D61" stroke-width="1.5425" stroke-miterlimit="10" stroke-linecap="round" stroke-linejoin="round"/>
<path d="M279.441 100.324C279.441 100.324 277.949 96.0048 273.939 93.9482C273.528 95.5421 271.471 97.136 269.466 97.7016L270.597 99.6554C271.471 101.249 270.751 103.255 269.054 103.82C267.563 104.334 265.969 103.614 265.352 102.175L262.833 94.5137C262.833 94.5137 267.769 92.7142 269.26 91.1717C270.288 90.1433 272.705 86.2871 272.705 86.2871C272.705 86.2871 277.178 87.3669 280.212 90.4004C282.731 92.9198 284.994 97.1874 284.994 97.1874L279.441 100.324Z" fill="#EDD6BC"/>
<path d="M268.334 103.614L265.815 95.9534C265.815 95.9534 270.751 94.1538 272.242 92.6113C273.27 91.583 275.687 87.7268 275.687 87.7268C275.687 87.7268 276.355 87.881 277.384 88.2923C274.967 86.8527 272.653 86.2871 272.653 86.2871C272.653 86.2871 270.237 90.1433 269.208 91.1717C267.666 92.6628 262.781 94.5138 262.781 94.5138L265.301 102.175C265.815 103.46 267.152 104.18 268.488 103.923C268.437 103.82 268.386 103.717 268.334 103.614Z" fill="#F7E3CB"/>
<path d="M276.921 95.3877C276.87 95.5934 276.767 95.799 276.664 96.0047C278.618 98.0613 279.441 100.324 279.441 100.324L281.189 99.3468C280.315 98.0099 278.926 96.416 276.921 95.3877Z" fill="#F7E3CB"/>
<path d="M279.441 100.324C279.441 100.324 277.949 96.0048 273.939 93.9482C273.528 95.5421 271.471 97.136 269.466 97.7016L270.597 99.6554C271.471 101.249 270.751 103.255 269.054 103.82C267.563 104.334 265.969 103.614 265.352 102.175L262.833 94.5137C262.833 94.5137 267.769 92.7142 269.26 91.1717C270.288 90.1433 272.705 86.2871 272.705 86.2871C272.705 86.2871 277.178 87.3669 280.212 90.4004C282.731 92.9198 284.994 97.1874 284.994 97.1874L279.441 100.324Z" stroke="#4D4D61" stroke-width="1.5425" stroke-miterlimit="10" stroke-linecap="round" stroke-linejoin="round"/>
<path d="M265.351 100.735L266.894 100.272C266.894 100.272 267.665 101.043 267.665 101.763C267.665 102.483 265.865 103.048 265.865 103.048C265.865 103.048 264.683 101.352 265.351 100.735Z" stroke="#4D4D61" stroke-width="1.02833" stroke-miterlimit="10" stroke-linecap="round" stroke-linejoin="round"/>
<path d="M259.337 96.4677L260.571 97.496C260.571 97.496 260.365 98.5758 259.748 98.9357C259.182 99.2956 257.691 98.1645 257.691 98.1645C257.691 98.1645 258.463 96.262 259.337 96.4677Z" stroke="#4D4D61" stroke-width="1.02833" stroke-miterlimit="10" stroke-linecap="round" stroke-linejoin="round"/>
<path d="M285.868 96.056L298.979 121.199C300.881 124.849 304.018 127.677 307.874 129.22C316.666 132.716 326.641 128.397 330.137 119.605C333.634 110.813 329.315 100.838 320.522 97.3415L314.969 95.1306C312.604 94.2051 311.473 91.48 312.399 89.1662C313.324 86.8525 315.998 85.7213 318.363 86.6468L323.916 88.8577C337.438 94.2051 344.02 109.527 338.672 122.998C333.325 136.521 318.003 143.102 304.532 137.755C298.67 135.441 293.837 131.071 290.907 125.466L278.001 100.735L285.868 96.056Z" fill="#E5E5E5"/>
<path d="M289.415 102.843L285.867 96.0562L277.949 100.735L281.446 107.419L289.415 102.843Z" fill="#E5E5E5"/>
<path d="M277.949 100.734L290.855 125.466C291.317 126.34 291.832 127.214 292.397 128.037C292.089 126.237 293.94 130.093 293.94 130.093L280.777 98.9863L277.949 100.734Z" fill="white"/>
<path d="M289.415 102.843L285.867 96.0562L277.949 100.735L281.446 107.419L289.415 102.843Z" stroke="#4D4D61" stroke-width="1.5425" stroke-miterlimit="10" stroke-linecap="round" stroke-linejoin="round"/>
<path d="M313.066 92.097C313.992 89.7832 316.665 88.6521 319.03 89.5776L324.583 91.7885C332.502 94.9249 338.055 101.506 340.214 109.167C338.774 100.324 332.862 92.4055 323.966 88.8577L318.414 86.6468C316.048 85.7213 313.426 86.8525 312.449 89.1662C311.884 90.5545 312.038 92.097 312.809 93.2796C312.809 92.8682 312.912 92.5083 313.066 92.097Z" fill="white"/>
<path d="M286.536 97.3416L297.282 121.867C300.007 126.803 303.349 130.659 307.154 132.151C315.946 135.647 327.206 131.328 330.702 122.536C332.193 118.731 332.245 114.72 331.114 111.121C331.474 113.898 331.165 116.828 330.034 119.605C326.538 128.397 316.563 132.716 307.771 129.22C303.966 127.677 300.778 124.849 298.876 121.199L285.867 96.0562" fill="white"/>
<path d="M285.868 96.056L298.979 121.199C300.881 124.849 304.018 127.677 307.874 129.22C316.666 132.716 326.641 128.397 330.137 119.605C333.634 110.813 329.315 100.838 320.522 97.3415L314.969 95.1306C312.604 94.2051 311.473 91.48 312.399 89.1662C313.324 86.8525 315.998 85.7213 318.363 86.6468L323.916 88.8577C337.438 94.2051 344.02 109.527 338.672 122.998C333.325 136.521 318.003 143.102 304.532 137.755C298.67 135.441 293.837 131.071 290.907 125.466L278.001 100.735L285.868 96.056Z" stroke="#4D4D61" stroke-width="1.5425" stroke-miterlimit="10" stroke-linecap="round" stroke-linejoin="round"/>
<path d="M314.353 77.1865L306.075 91.5318L296.717 85.3618L310.548 75.644L314.353 77.1865Z" fill="#E5E5E5"/>
<path d="M307.411 77.8545L296.717 85.3613L300.933 88.1378C300.984 88.0864 301.036 88.0864 301.087 88.035C305.766 85.4641 308.44 81.0937 307.411 77.8545Z" fill="white"/>
<path d="M314.353 77.1865L306.075 91.5318L296.717 85.3618L310.548 75.644L314.353 77.1865Z" stroke="#4D4D61" stroke-width="1.5425" stroke-miterlimit="10" stroke-linecap="round" stroke-linejoin="round"/>
<path d="M302.937 227.888C308.503 227.888 313.015 223.376 313.015 217.81C313.015 212.244 308.503 207.732 302.937 207.732C297.371 207.732 292.859 212.244 292.859 217.81C292.859 223.376 297.371 227.888 302.937 227.888Z" fill="#56566D"/>
<path opacity="0.44" d="M297.128 222.849C297.128 217.296 301.652 212.771 307.205 212.771C309.056 212.771 310.804 213.285 312.295 214.159C310.804 210.406 307.154 207.732 302.886 207.732C297.333 207.732 292.809 212.257 292.809 217.81C292.809 221.512 294.814 224.751 297.796 226.499C297.385 225.368 297.128 224.134 297.128 222.849Z" fill="#66667C"/>
<path d="M302.937 227.888C308.503 227.888 313.015 223.376 313.015 217.81C313.015 212.244 308.503 207.732 302.937 207.732C297.371 207.732 292.859 212.244 292.859 217.81C292.859 223.376 297.371 227.888 302.937 227.888Z" stroke="#4D4D61" stroke-width="1.5425" stroke-miterlimit="10" stroke-linecap="round" stroke-linejoin="round"/>
<path d="M302.937 222.798C305.691 222.798 307.924 220.565 307.924 217.81C307.924 215.055 305.691 212.823 302.937 212.823C300.182 212.823 297.949 215.055 297.949 217.81C297.949 220.565 300.182 222.798 302.937 222.798Z" stroke="#4D4D61" stroke-width="1.5425" stroke-miterlimit="10" stroke-linecap="round" stroke-linejoin="round"/>
<path d="M302.937 222.798C305.691 222.798 307.924 220.565 307.924 217.81C307.924 215.055 305.691 212.823 302.937 212.823C300.182 212.823 297.949 215.055 297.949 217.81C297.949 220.565 300.182 222.798 302.937 222.798Z" fill="#4D4D61"/>
<path d="M314.66 212.823C312.963 212.823 311.421 212.103 310.238 210.869C308.387 208.915 305.816 207.733 302.937 207.733C300.109 207.733 297.59 208.864 295.739 210.766C294.453 212.052 292.808 212.823 291.008 212.823H290.957C292.911 208.144 297.538 204.854 302.937 204.854C308.336 204.854 312.963 208.144 314.917 212.823H314.66Z" fill="#CA4361"/>
<path d="M299.801 205.213C295.79 206.19 292.551 209.069 290.957 212.823H291.008C292.757 212.823 294.402 212.154 295.585 210.92C296.613 209.841 298.721 208.966 300.418 208.452C301.909 207.99 302.012 205.83 300.52 205.316C300.366 205.213 300.058 205.162 299.801 205.213Z" fill="#D35375"/>
<path d="M314.66 212.823C312.963 212.823 311.421 212.103 310.238 210.869C308.387 208.915 305.816 207.733 302.937 207.733C300.109 207.733 297.59 208.864 295.739 210.766C294.453 212.052 292.808 212.823 291.008 212.823H290.957C292.911 208.144 297.538 204.854 302.937 204.854C308.336 204.854 312.963 208.144 314.917 212.823H314.66Z" stroke="#4D4D61" stroke-width="1.5425" stroke-miterlimit="10" stroke-linecap="round" stroke-linejoin="round"/>
<path d="M356.976 227.888C362.542 227.888 367.054 223.376 367.054 217.81C367.054 212.244 362.542 207.732 356.976 207.732C351.41 207.732 346.898 212.244 346.898 217.81C346.898 223.376 351.41 227.888 356.976 227.888Z" fill="#56566D"/>
<path opacity="0.44" d="M351.526 222.849C351.526 217.296 356.051 212.771 361.604 212.771C363.455 212.771 365.203 213.285 366.694 214.159C365.203 210.406 361.552 207.732 357.285 207.732C351.732 207.732 347.207 212.257 347.207 217.81C347.207 221.512 349.212 224.751 352.194 226.499C351.783 225.368 351.526 224.134 351.526 222.849Z" fill="#66667C"/>
<path d="M356.976 227.888C362.542 227.888 367.054 223.376 367.054 217.81C367.054 212.244 362.542 207.732 356.976 207.732C351.41 207.732 346.898 212.244 346.898 217.81C346.898 223.376 351.41 227.888 356.976 227.888Z" stroke="#4D4D61" stroke-width="1.5425" stroke-miterlimit="10" stroke-linecap="round" stroke-linejoin="round"/>
<path d="M175.218 134.721H168.226V230.716H175.218V134.721Z" stroke="#4D4D61" stroke-width="1.5425" stroke-miterlimit="10" stroke-linecap="round" stroke-linejoin="round"/>
<path d="M175.218 134.721H168.226V230.716H175.218V134.721Z" fill="#4D4D61"/>
<path d="M356.977 222.798C359.731 222.798 361.964 220.565 361.964 217.81C361.964 215.055 359.731 212.823 356.977 212.823C354.222 212.823 351.989 215.055 351.989 217.81C351.989 220.565 354.222 222.798 356.977 222.798Z" stroke="#4D4D61" stroke-width="1.5425" stroke-miterlimit="10" stroke-linecap="round" stroke-linejoin="round"/>
<path d="M368.699 212.823C367.002 212.823 365.46 212.103 364.277 210.869C362.426 208.915 359.855 207.733 356.976 207.733C354.148 207.733 351.629 208.864 349.778 210.766C348.492 212.052 346.847 212.823 345.048 212.823H344.996C346.95 208.144 351.577 204.854 356.976 204.854C362.375 204.854 367.002 208.144 368.956 212.823H368.699Z" fill="#CA4361"/>
<path d="M356.977 222.798C359.731 222.798 361.964 220.565 361.964 217.81C361.964 215.055 359.731 212.823 356.977 212.823C354.222 212.823 351.989 215.055 351.989 217.81C351.989 220.565 354.222 222.798 356.977 222.798Z" fill="#4D4D61"/>
<path d="M368.699 212.823C367.002 212.823 365.46 212.103 364.277 210.869C362.426 208.915 359.855 207.733 356.976 207.733C354.148 207.733 351.629 208.864 349.778 210.766C348.492 212.052 346.847 212.823 345.048 212.823H344.996C346.95 208.144 351.577 204.854 356.976 204.854C362.375 204.854 367.002 208.144 368.956 212.823H368.699Z" stroke="#4D4D61" stroke-width="1.5425" stroke-miterlimit="10" stroke-linecap="round" stroke-linejoin="round"/>
<path d="M286.485 125.158H135.526C134.292 125.158 133.315 124.181 133.315 122.947V118.782C133.315 117.548 134.292 116.571 135.526 116.571H286.485C287.719 116.571 288.696 117.548 288.696 118.782V122.947C288.696 124.181 287.719 125.158 286.485 125.158Z" fill="#B98C78"/>
<path d="M190.9 121.302C168.945 121.302 149.201 122.793 135.679 125.158H246.173C232.599 122.793 212.855 121.302 190.9 121.302Z" fill="#C9A08F"/>
<path d="M286.485 125.158H135.526C134.292 125.158 133.315 124.181 133.315 122.947V118.782C133.315 117.548 134.292 116.571 135.526 116.571H286.485C287.719 116.571 288.696 117.548 288.696 118.782V122.947C288.696 124.181 287.719 125.158 286.485 125.158Z" stroke="#4D4D61" stroke-width="1.5425" stroke-miterlimit="10" stroke-linecap="round" stroke-linejoin="round"/>
<path d="M270.184 136.161H151.772C148.738 136.161 146.271 133.693 146.271 130.66C146.271 127.626 148.738 125.158 151.772 125.158H270.184C273.218 125.158 275.686 127.626 275.686 130.66C275.686 133.693 273.218 136.161 270.184 136.161Z" stroke="#4D4D61" stroke-width="1.5425" stroke-miterlimit="10" stroke-linecap="round" stroke-linejoin="round"/>
<path d="M270.184 136.161H151.772C148.738 136.161 146.271 133.693 146.271 130.66C146.271 127.626 148.738 125.158 151.772 125.158H270.184C273.218 125.158 275.686 127.626 275.686 130.66C275.686 133.693 273.218 136.161 270.184 136.161Z" fill="#4D4D61"/>
<path d="M195.579 133.59C178.663 133.59 164.164 134.67 157.788 136.161H233.37C226.995 134.619 212.495 133.59 195.579 133.59Z" fill="#575770"/>
<path d="M197.689 108.19C199.535 108.19 201.031 106.693 201.031 104.848C201.031 103.002 199.535 101.506 197.689 101.506C195.843 101.506 194.347 103.002 194.347 104.848C194.347 106.693 195.843 108.19 197.689 108.19Z" fill="#83ABBA"/>
<path d="M197.689 108.19C199.535 108.19 201.031 106.693 201.031 104.848C201.031 103.002 199.535 101.506 197.689 101.506C195.843 101.506 194.347 103.002 194.347 104.848C194.347 106.693 195.843 108.19 197.689 108.19Z" stroke="#4D4D61" stroke-width="1.5425" stroke-miterlimit="10" stroke-linecap="round" stroke-linejoin="round"/>
<path d="M196.711 103.511L196.968 103.46L184.371 33.4819L184.114 33.5334C181.697 33.9961 180.052 36.3098 180.515 38.7264L191.518 99.9121C191.929 102.329 194.243 103.923 196.711 103.511Z" fill="#92B4C3"/>
<path d="M191.312 98.8326C191.312 90.863 190.592 82.225 188.998 73.33C187.353 64.0236 184.936 55.2828 182.057 47.5703L191.312 98.8326Z" fill="#ACD3E5"/>
<path d="M196.711 103.511L196.968 103.46L184.371 33.4819L184.114 33.5334C181.697 33.9961 180.052 36.3098 180.515 38.7264L191.518 99.9121C191.929 102.329 194.243 103.923 196.711 103.511Z" stroke="#4D4D61" stroke-width="1.5425" stroke-miterlimit="10" stroke-linecap="round" stroke-linejoin="round"/>
<path d="M257.382 135.133H250.39V231.127H257.382V135.133Z" stroke="#4D4D61" stroke-width="1.5425" stroke-miterlimit="10" stroke-linecap="round" stroke-linejoin="round"/>
<path d="M257.382 135.133H250.39V231.127H257.382V135.133Z" fill="#4D4D61"/>
<path d="M204.167 112.972H268.438C271.574 112.972 274.145 110.401 274.145 107.265V104.848H198.46V107.265C198.46 110.401 201.031 112.972 204.167 112.972Z" fill="#92B4C3"/>
<path d="M268.438 111.173H204.167C201.031 111.173 198.46 108.602 198.46 105.465V107.265C198.46 110.401 201.031 112.972 204.167 112.972H268.438C271.574 112.972 274.145 110.401 274.145 107.265V105.465C274.145 108.602 271.574 111.173 268.438 111.173Z" fill="#83ABBA"/>
<path d="M204.167 112.972H268.438C271.574 112.972 274.145 110.401 274.145 107.265V104.848H198.46V107.265C198.46 110.401 201.031 112.972 204.167 112.972Z" stroke="#4D4D61" stroke-width="1.5425" stroke-miterlimit="10" stroke-linecap="round" stroke-linejoin="round"/>
<path d="M207.97 116.529H264.631V112.93H207.97V116.529Z" stroke="#4D4D61" stroke-width="1.5425" stroke-miterlimit="10" stroke-linecap="round" stroke-linejoin="round"/>
<path d="M207.97 116.529H264.631V112.93H207.97V116.529Z" fill="#4D4D61"/>
<path d="M236.404 108.839H241.495V107.142H236.404V108.839Z" stroke="#4D4D61" stroke-width="1.02833" stroke-miterlimit="10" stroke-linecap="round" stroke-linejoin="round"/>
<path d="M229.149 108.839H234.24V107.142H229.149V108.839Z" stroke="#4D4D61" stroke-width="1.02833" stroke-miterlimit="10" stroke-linecap="round" stroke-linejoin="round"/>
<path d="M205.092 108.911C205.604 108.911 206.018 108.497 206.018 107.985C206.018 107.474 205.604 107.06 205.092 107.06C204.581 107.06 204.167 107.474 204.167 107.985C204.167 108.497 204.581 108.911 205.092 108.911Z" stroke="#4D4D61" stroke-width="1.02833" stroke-miterlimit="10" stroke-linecap="round" stroke-linejoin="round"/>
<path d="M386.336 78.4715C387.107 72.5586 382.891 67.1604 376.927 66.5948C371.219 66.0292 366.181 70.2449 365.409 75.9521L358.365 128.346C358.057 130.711 359.702 132.871 362.067 133.179L368.289 134.001C370.654 134.31 372.813 132.665 373.122 130.299L374.15 122.587C376.053 108.448 379.549 94.4626 385.513 81.5056C385.873 80.5801 386.182 79.5513 386.336 78.4715Z" fill="#CA4361"/>
<path d="M372.042 122.587L371.013 130.299C370.756 132.099 369.419 133.538 367.723 133.898L368.288 133.95C370.653 134.258 372.813 132.613 373.121 130.248L374.15 122.535C376.052 108.396 379.548 94.4106 385.513 81.4536C385.924 80.5281 386.233 79.4998 386.387 78.4714C387.158 72.5585 382.942 67.1598 376.978 66.5942C376.309 66.5428 375.589 66.5428 374.972 66.5942C380.937 67.2112 385.153 72.6099 384.382 78.4714C384.227 79.5512 383.919 80.5281 383.508 81.4536" fill="#D35375"/>
<path d="M365.409 75.952L359.959 116.571C364.689 103.049 369.265 88.4976 369.265 77.186C369.265 69.5249 378.572 66.9541 381.143 69.5249C379.446 66.3885 374.047 66.08 371.116 67.7768C367.929 69.5764 365.718 73.4326 365.409 75.952Z" fill="#D35375"/>
<path d="M386.336 78.4715C387.107 72.5586 382.891 67.1604 376.927 66.5948C371.219 66.0292 366.181 70.2449 365.409 75.9521L358.365 128.346C358.057 130.711 359.702 132.871 362.067 133.179L368.289 134.001C370.654 134.31 372.813 132.665 373.122 130.299L374.15 122.587C376.053 108.448 379.549 94.4626 385.513 81.5056C385.873 80.5801 386.182 79.5513 386.336 78.4715Z" stroke="#4D4D61" stroke-width="1.5425" stroke-miterlimit="10" stroke-linecap="round" stroke-linejoin="round"/>
<path d="M209.977 211.486L174.706 188.76C174.037 188.348 173.883 187.474 174.294 186.857L174.346 186.755C174.757 186.086 175.631 185.932 176.248 186.343L211.52 209.069C212.188 209.48 212.342 210.355 211.931 210.972L211.88 211.075C211.52 211.692 210.646 211.897 209.977 211.486Z" fill="#595D5C"/>
<path d="M209.977 211.486L174.706 188.76C174.037 188.348 173.883 187.474 174.294 186.857L174.346 186.755C174.757 186.086 175.631 185.932 176.248 186.343L211.52 209.069C212.188 209.48 212.342 210.355 211.931 210.972L211.88 211.075C211.52 211.692 210.646 211.897 209.977 211.486Z" stroke="#4D4D61" stroke-width="1.5425" stroke-miterlimit="10" stroke-linecap="round" stroke-linejoin="round"/>
<path d="M213.731 199.917L213.577 199.815C211.828 200.123 209.566 199.609 207.509 198.272C205.967 197.295 204.784 195.958 204.116 194.673C203.499 193.49 202.676 192.411 201.597 191.691L187.971 182.487C186.377 181.407 184.269 181.202 182.264 181.87L177.842 183.413C176.351 183.927 175.888 186.035 177.071 186.806L211.211 208.812L214.245 204.082C215.17 202.591 214.965 200.74 213.731 199.917Z" fill="#9B8462"/>
<path opacity="0.74" d="M182.264 181.87L181.544 182.127C181.595 183.824 182.469 185.469 184.012 186.498L205.35 200.226C207.355 201.511 209.926 201.305 211.674 199.866C210.337 199.712 208.898 199.197 207.509 198.323C205.967 197.346 204.784 196.01 204.116 194.724C203.499 193.542 202.676 192.462 201.596 191.742L187.971 182.538C186.377 181.356 184.269 181.15 182.264 181.87Z" fill="#E1C885"/>
<path d="M213.731 199.917L213.577 199.815C211.828 200.123 209.566 199.609 207.509 198.272C205.967 197.295 204.784 195.958 204.116 194.673C203.499 193.49 202.676 192.411 201.597 191.691L187.971 182.487C186.377 181.407 184.269 181.202 182.264 181.87L177.842 183.413C176.351 183.927 175.888 186.035 177.071 186.806L211.211 208.812L214.245 204.082C215.17 202.591 214.965 200.74 213.731 199.917Z" stroke="#4D4D61" stroke-width="1.5425" stroke-miterlimit="10" stroke-linecap="round" stroke-linejoin="round"/>
<path d="M198.1 194.673L203.498 193.645L202.11 192.102L198.1 194.673Z" stroke="#4D4D61" stroke-width="1.5425" stroke-miterlimit="10" stroke-linecap="round" stroke-linejoin="round"/>
<path d="M212.906 180.328L208.639 184.544L219.076 197.655L224.218 193.387L212.906 180.328Z" fill="#92B4C3"/>
<path d="M212.598 180.637L208.639 184.544L214.294 191.64C215.22 190.303 215.786 188.709 215.786 187.012C215.786 184.442 214.552 182.128 212.598 180.637Z" fill="#9EC0CC"/>
<path d="M212.906 180.328L208.639 184.544L219.076 197.655L224.218 193.387L212.906 180.328Z" stroke="#4D4D61" stroke-width="1.5425" stroke-miterlimit="10" stroke-linecap="round" stroke-linejoin="round"/>
<path d="M297.127 197.09L300.366 202.18L315.38 194.674L312.295 188.761L297.127 197.09Z" fill="#92B4C3"/>
<path d="M297.127 197.09L300.366 202.18L315.38 194.674L312.295 188.761L297.127 197.09Z" fill="#92B4C3"/>
<path d="M302.937 197.707C302.937 196.575 302.32 195.599 301.292 194.776L297.127 197.09L299.955 201.511C301.754 200.637 302.937 199.249 302.937 197.707Z" fill="#9EC0CC"/>
<path d="M297.127 197.09L300.366 202.18L315.38 194.674L312.295 188.761L297.127 197.09Z" stroke="#4D4D61" stroke-width="1.5425" stroke-miterlimit="10" stroke-linecap="round" stroke-linejoin="round"/>
<path d="M255.223 74.5639C255.45 74.5639 255.634 74.2646 255.634 73.8955C255.634 73.5263 255.45 73.2271 255.223 73.2271C254.996 73.2271 254.812 73.5263 254.812 73.8955C254.812 74.2646 254.996 74.5639 255.223 74.5639Z" stroke="#4D4D61" stroke-width="1.02833" stroke-miterlimit="10" stroke-linecap="round" stroke-linejoin="round"/>
<path d="M212.907 110.505H210.337C209.668 110.505 209.103 109.939 209.103 109.271V107.728C209.103 107.06 209.668 106.494 210.337 106.494H212.907C213.576 106.494 214.141 107.06 214.141 107.728V109.271C214.141 109.939 213.576 110.505 212.907 110.505Z" fill="#4D4D61"/>
<path d="M123.909 26.7261H50.0912C47.6849 26.7261 45.7344 28.6807 45.7344 31.092V77.3081C45.7344 79.7194 47.6849 81.674 50.0912 81.674H123.909C126.316 81.674 128.266 79.7194 128.266 77.3081V31.092C128.266 28.6807 126.316 26.7261 123.909 26.7261Z" fill="white"/>
<path d="M78.9094 94.7261H5.09125C2.6849 94.7261 0.734375 96.6807 0.734375 99.092V145.308C0.734375 147.719 2.6849 149.674 5.09125 149.674H78.9094C81.3158 149.674 83.2663 147.719 83.2663 145.308V99.092C83.2663 96.6807 81.3158 94.7261 78.9094 94.7261Z" fill="white"/>
<path opacity="0.8" d="M128.265 70.0288V75.4328C128.265 76.9579 127.661 78.4208 126.585 79.4998C125.509 80.5782 124.051 81.1857 122.529 81.1869H51.493C49.971 81.1857 48.5118 80.5782 47.4362 79.4998C46.3606 78.4208 45.7568 76.9579 45.7568 75.4328V70.0288C45.7568 71.5533 46.3612 73.0156 47.4368 74.0934C48.5124 75.1712 49.9716 75.7769 51.493 75.7769H122.529C124.05 75.7769 125.509 75.1712 126.585 74.0934C127.661 73.0156 128.265 71.5533 128.265 70.0288Z" fill="#DFF5F7"/>
<path opacity="0.8" d="M83.2651 138.029V143.433C83.2651 144.958 82.6607 146.421 81.5851 147.5C80.5095 148.578 79.0509 149.186 77.5289 149.187H6.49299C4.97104 149.186 3.51185 148.578 2.43625 147.5C1.36064 146.421 0.756836 144.958 0.756836 143.433V138.029C0.756836 139.553 1.36124 141.016 2.43684 142.093C3.51245 143.171 4.97164 143.777 6.49299 143.777H77.5289C79.0503 143.777 80.5089 143.171 81.5851 142.093C82.6607 141.016 83.2651 139.553 83.2651 138.029Z" fill="#DFF5F7"/>
<path d="M123.826 82.4013H50.1738C48.8034 82.3995 47.4892 81.8538 46.519 80.8827C45.5494 79.9122 45.003 78.5959 45 77.2227V31.1786C45.003 29.8048 45.5494 28.4885 46.519 27.518C47.4892 26.5469 48.8034 26.0012 50.1738 26H123.826C125.197 26.0012 126.511 26.5469 127.481 27.518C128.451 28.4885 128.997 29.8048 129 31.1786V77.2345C128.993 78.606 128.446 79.9188 127.477 80.8868C126.507 81.8549 125.195 82.3995 123.826 82.4013ZM50.1738 27.4593C49.1917 27.4593 48.2505 27.8496 47.5555 28.5442C46.8606 29.2395 46.4699 30.1826 46.4681 31.1668V77.2227C46.4699 78.2068 46.8606 79.1506 47.5549 79.8464C48.2499 80.5428 49.1917 80.9343 50.1738 80.9361H123.826C124.808 80.9343 125.75 80.5428 126.445 79.8464C127.139 79.1506 127.53 78.2068 127.532 77.2227V31.1786C127.53 30.1945 127.139 29.2513 126.444 28.5561C125.75 27.8615 124.808 27.4711 123.826 27.4711L50.1738 27.4593Z" fill="#181828"/>
<path d="M78.8262 150.401H5.17379C3.80339 150.4 2.48922 149.854 1.51899 148.883C0.54935 147.912 0.00295983 146.596 0 145.223V99.1786C0.00295983 97.8048 0.54935 96.4885 1.51899 95.518C2.48922 94.5469 3.80339 94.0012 5.17379 94H78.8262C80.1966 94.0012 81.5108 94.5469 82.481 95.518C83.4507 96.4885 83.997 97.8048 84 99.1786V145.235C83.9935 146.606 83.4459 147.919 82.4769 148.887C81.5072 149.855 80.1948 150.4 78.8262 150.401ZM5.17379 95.4593C4.19172 95.4593 3.25049 95.8496 2.55552 96.5442C1.86055 97.2395 1.46986 98.1826 1.46808 99.1668V145.223C1.46986 146.207 1.86056 147.151 2.55493 147.846C3.2499 148.543 4.19172 148.934 5.17379 148.936H78.8262C79.8083 148.934 80.7501 148.543 81.4451 147.846C82.1395 147.151 82.5301 146.207 82.5319 145.223V99.1786C82.5301 98.1945 82.1394 97.2513 81.4445 96.5561C80.7495 95.8615 79.8083 95.4711 78.8262 95.4711L5.17379 95.4593Z" fill="#181828"/>
<path d="M121.375 36.3055H45.7517C45.6055 36.3055 45.4658 36.2474 45.3622 36.1441C45.2592 36.0403 45.2012 35.9003 45.2012 35.7538C45.2012 35.6079 45.2592 35.4673 45.3622 35.3641C45.4658 35.2603 45.6055 35.2021 45.7517 35.2021H121.375C121.521 35.2021 121.661 35.2603 121.764 35.3641C121.868 35.4673 121.926 35.6079 121.926 35.7538C121.926 35.9003 121.868 36.0403 121.764 36.1441C121.661 36.2474 121.521 36.3055 121.375 36.3055Z" fill="#181828"/>
<path d="M76.3754 104.305H0.751696C0.60548 104.305 0.465774 104.247 0.36218 104.144C0.259177 104.04 0.201172 103.9 0.201172 103.754C0.201172 103.608 0.259177 103.467 0.36218 103.364C0.465774 103.26 0.60548 103.202 0.751696 103.202H76.3754C76.521 103.202 76.6613 103.26 76.7643 103.364C76.8679 103.467 76.9259 103.608 76.9259 103.754C76.9259 103.9 76.8679 104.04 76.7643 104.144C76.6613 104.247 76.521 104.305 76.3754 104.305Z" fill="#181828"/>
<path d="M52.2696 33.0014C53.0149 33.0014 53.6193 32.3957 53.6193 31.6489C53.6193 30.9021 53.0149 30.2964 52.2696 30.2964C51.5243 30.2964 50.9199 30.9021 50.9199 31.6489C50.9199 32.3957 51.5243 33.0014 52.2696 33.0014Z" fill="#F1665D"/>
<path d="M7.2696 101.001C8.01489 101.001 8.61929 100.396 8.61929 99.6489C8.61929 98.9021 8.01489 98.2964 7.2696 98.2964C6.52432 98.2964 5.91992 98.9021 5.91992 99.6489C5.91992 100.396 6.52432 101.001 7.2696 101.001Z" fill="#F1665D"/>
<path d="M57.2589 32.9594C58.0041 32.9594 58.6085 32.3543 58.6085 31.6069C58.6085 30.86 58.0041 30.2544 57.2589 30.2544C56.5136 30.2544 55.9092 30.86 55.9092 31.6069C55.9092 32.3543 56.5136 32.9594 57.2589 32.9594Z" fill="#F7BD3B"/>
<path d="M12.2589 100.959C13.0041 100.959 13.6085 100.354 13.6085 99.6069C13.6085 98.86 13.0041 98.2544 12.2589 98.2544C11.5136 98.2544 10.9092 98.86 10.9092 99.6069C10.9092 100.354 11.5136 100.959 12.2589 100.959Z" fill="#F7BD3B"/>
<path d="M62.2442 32.911C62.9895 32.911 63.5939 32.306 63.5939 31.5586C63.5939 30.8117 62.9895 30.2061 62.2442 30.2061C61.4989 30.2061 60.8945 30.8117 60.8945 31.5586C60.8945 32.306 61.4989 32.911 62.2442 32.911Z" fill="#56C643"/>
<path d="M17.2442 100.911C17.9895 100.911 18.5939 100.306 18.5939 99.5586C18.5939 98.8117 17.9895 98.2061 17.2442 98.2061C16.4989 98.2061 15.8945 98.8117 15.8945 99.5586C15.8945 100.306 16.4989 100.911 17.2442 100.911Z" fill="#56C643"/>
<path d="M52.0555 33.2494H51.872C51.4352 33.199 51.0356 32.9771 50.7603 32.6325C50.4857 32.2884 50.3572 31.8489 50.404 31.4105C50.4229 31.1946 50.4851 30.9846 50.5869 30.793C50.6887 30.6014 50.8278 30.4317 50.9959 30.2953C51.2031 30.1315 51.4464 30.02 51.7057 29.9696C51.9644 29.9198 52.232 29.9316 52.4853 30.0058C52.7381 30.0799 52.9701 30.2134 53.1619 30.3949C53.3531 30.577 53.4988 30.8025 53.5858 31.0516C53.6728 31.3013 53.6994 31.5683 53.6627 31.8299C53.6266 32.0915 53.5284 32.3412 53.3762 32.5571C53.2241 32.7731 53.0228 32.9498 52.789 33.0726C52.5552 33.1948 52.2959 33.2595 52.0319 33.2613L52.0555 33.2494ZM52.0555 30.5444C51.7998 30.5456 51.5536 30.6405 51.3629 30.8108C51.1723 30.981 51.0498 31.2153 51.0196 31.4698C50.9965 31.675 51.0344 31.8821 51.1285 32.066C51.2232 32.2493 51.3695 32.4005 51.55 32.5008C51.73 32.601 51.936 32.6449 52.1408 32.6283C52.3462 32.6111 52.5421 32.5334 52.7032 32.4047C52.8642 32.2765 52.9843 32.1027 53.0471 31.9064C53.1098 31.71 53.1134 31.4989 53.0566 31.3007C52.9997 31.102 52.8861 30.9246 52.7286 30.7912C52.5717 30.6577 52.3788 30.5741 52.1739 30.5503L52.0555 30.5444Z" fill="#181828"/>
<path d="M7.05554 101.249H6.87204C6.43516 101.199 6.03559 100.977 5.76033 100.632C5.48566 100.288 5.3572 99.8489 5.40396 99.4105C5.42291 99.1946 5.48506 98.9846 5.58688 98.793C5.6887 98.6014 5.82781 98.4317 5.99593 98.2953C6.20312 98.1315 6.44642 98.02 6.7057 97.9696C6.96439 97.9198 7.23196 97.9316 7.48532 98.0058C7.73809 98.0799 7.97013 98.2134 8.16193 98.3949C8.35314 98.577 8.49876 98.8025 8.58578 99.0516C8.6728 99.3013 8.69944 99.5683 8.66274 99.8299C8.62663 100.091 8.52836 100.341 8.37622 100.557C8.22409 100.773 8.02282 100.95 7.789 101.073C7.55517 101.195 7.29589 101.259 7.03187 101.261L7.05554 101.249ZM7.05554 98.5444C6.79981 98.5456 6.55356 98.6405 6.36294 98.8108C6.17233 98.981 6.04979 99.2153 6.0196 99.4698C5.99652 99.675 6.03441 99.8821 6.12853 100.066C6.22324 100.249 6.36946 100.401 6.55001 100.501C6.72997 100.601 6.93597 100.645 7.14079 100.628C7.34621 100.611 7.54215 100.533 7.70316 100.405C7.86418 100.277 7.98434 100.103 8.04709 99.9064C8.10984 99.71 8.11339 99.4989 8.05656 99.3007C7.99974 99.102 7.88608 98.9246 7.72861 98.7912C7.57174 98.6577 7.37876 98.5741 7.17394 98.5503L7.05554 98.5444Z" fill="#181828"/>
<path d="M57.0471 33.2074H56.8577C56.4332 33.1422 56.0502 32.9144 55.7892 32.5727C55.5287 32.231 55.4097 31.8009 55.4577 31.3732C55.5062 30.9455 55.7175 30.5528 56.0479 30.2776C56.3782 30.0029 56.802 29.8665 57.2306 29.8974C57.4473 29.9217 57.6568 29.9887 57.8474 30.0943C58.0386 30.1999 58.2068 30.3423 58.3423 30.5131C58.4779 30.6839 58.5791 30.8797 58.6389 31.0897C58.6993 31.2997 58.7176 31.5197 58.6928 31.7363C58.6454 32.1408 58.4512 32.5134 58.1482 32.7844C57.8451 33.0555 57.4532 33.2062 57.0471 33.2074ZM57.0471 30.5024C56.8458 30.5024 56.6487 30.5611 56.48 30.6709C56.3113 30.7806 56.1781 30.9372 56.0958 31.1211C56.0141 31.3056 55.9869 31.5097 56.0183 31.709C56.0496 31.9077 56.1372 32.094 56.2722 32.244C56.4066 32.3941 56.5812 32.5021 56.7754 32.5543C56.9701 32.6071 57.175 32.6023 57.3668 32.5406C57.5586 32.4784 57.7279 32.3627 57.8551 32.2061C57.9824 32.0495 58.0611 31.8597 58.083 31.6592C58.1132 31.3851 58.0345 31.1104 57.864 30.8939C57.7794 30.7866 57.6734 30.697 57.5538 30.6311C57.4337 30.5647 57.3016 30.5232 57.1655 30.5083H57.0471V30.5024Z" fill="#181828"/>
<path d="M12.0471 101.207H11.8577C11.4332 101.142 11.0502 100.914 10.7892 100.573C10.5287 100.231 10.4097 99.8009 10.4577 99.3732C10.5062 98.9455 10.7175 98.5528 11.0479 98.2776C11.3782 98.0029 11.802 97.8665 12.2306 97.8974C12.4473 97.9217 12.6568 97.9887 12.8474 98.0943C13.0386 98.1999 13.2068 98.3423 13.3423 98.5131C13.4779 98.6839 13.5791 98.8797 13.6389 99.0897C13.6993 99.2997 13.7176 99.5197 13.6928 99.7363C13.6454 100.141 13.4512 100.513 13.1482 100.784C12.8451 101.056 12.4532 101.206 12.0471 101.207ZM12.0471 98.5024C11.8458 98.5024 11.6487 98.5611 11.48 98.6709C11.3113 98.7806 11.1781 98.9372 11.0958 99.1211C11.0141 99.3056 10.9869 99.5097 11.0183 99.709C11.0496 99.9077 11.1372 100.094 11.2722 100.244C11.4066 100.394 11.5812 100.502 11.7754 100.554C11.9701 100.607 12.175 100.602 12.3668 100.541C12.5586 100.478 12.7279 100.363 12.8551 100.206C12.9824 100.049 13.0611 99.8597 13.083 99.6592C13.1132 99.3851 13.0345 99.1104 12.864 98.8939C12.7794 98.7866 12.6734 98.697 12.5538 98.6311C12.4337 98.5647 12.3016 98.5232 12.1655 98.5083H12.0471V98.5024Z" fill="#181828"/>
<path d="M62.0311 33.1667C61.9701 33.1726 61.9086 33.1726 61.8476 33.1667C61.6321 33.1465 61.4225 33.0842 61.2313 32.9822C61.0407 32.8802 60.8714 32.7414 60.7347 32.5735C60.5973 32.4027 60.4955 32.2057 60.4346 31.9951C60.3736 31.7845 60.3552 31.5639 60.3795 31.3456C60.3996 31.1296 60.4624 30.9202 60.5642 30.7286C60.666 30.5376 60.8039 30.368 60.9715 30.2304C61.316 29.9575 61.7541 29.8317 62.1909 29.8804C62.6278 29.9314 63.0274 30.1527 63.3026 30.4973C63.5773 30.8414 63.7058 31.2809 63.659 31.7193C63.6122 32.1535 63.4003 32.5533 63.067 32.8345C62.7693 33.0599 62.404 33.1768 62.0311 33.1667ZM62.0311 30.4617C61.776 30.4617 61.5291 30.556 61.3391 30.7269C61.1491 30.8977 61.0289 31.1332 61.0011 31.3871C60.9727 31.6612 61.0532 31.9358 61.2248 32.1511C61.3965 32.3665 61.6457 32.5053 61.9186 32.5379C62.0542 32.5539 62.1909 32.542 62.3223 32.5047C62.4532 32.4667 62.5757 32.4038 62.6823 32.3184C62.8421 32.1897 62.9605 32.0159 63.0226 31.8195C63.0848 31.6238 63.0872 31.4132 63.0303 31.2157C62.9735 31.0175 62.8592 30.8414 62.703 30.7079C62.5461 30.575 62.3537 30.4914 62.1495 30.4676L62.0311 30.4617Z" fill="#181828"/>
<path d="M17.0311 101.167C16.9701 101.173 16.9086 101.173 16.8476 101.167C16.6321 101.147 16.4225 101.084 16.2313 100.982C16.0407 100.88 15.8714 100.741 15.7347 100.573C15.5973 100.403 15.4955 100.206 15.4346 99.9951C15.3736 99.7845 15.3552 99.5639 15.3795 99.3456C15.3996 99.1296 15.4624 98.9202 15.5642 98.7286C15.666 98.5376 15.8039 98.368 15.9715 98.2304C16.316 97.9575 16.7541 97.8317 17.1909 97.8804C17.6278 97.9314 18.0274 98.1527 18.3026 98.4973C18.5773 98.8414 18.7058 99.2809 18.659 99.7193C18.6122 100.154 18.4003 100.553 18.067 100.834C17.7693 101.06 17.404 101.177 17.0311 101.167ZM17.0311 98.4617C16.776 98.4617 16.5291 98.556 16.3391 98.7269C16.1491 98.8977 16.0289 99.1332 16.0011 99.3871C15.9727 99.6612 16.0532 99.9358 16.2248 100.151C16.3965 100.366 16.6457 100.505 16.9186 100.538C17.0542 100.554 17.1909 100.542 17.3223 100.505C17.4532 100.467 17.5757 100.404 17.6823 100.318C17.8421 100.19 17.9605 100.016 18.0226 99.8195C18.0848 99.6238 18.0872 99.4132 18.0303 99.2157C17.9735 99.0175 17.8592 98.8414 17.703 98.7079C17.5461 98.575 17.3537 98.4914 17.1495 98.4676L17.0311 98.4617Z" fill="#181828"/>
<path d="M79.3099 48.7335C79.1986 48.7335 79.0915 48.6896 79.0128 48.6101C78.934 48.5312 78.8896 48.4245 78.8896 48.3124C78.8896 48.2008 78.934 48.0941 79.0128 48.0146C79.0915 47.9357 79.1986 47.8912 79.3099 47.8912L111.276 47.6064C111.387 47.6064 111.493 47.6503 111.571 47.7281C111.65 47.8058 111.695 47.9114 111.696 48.0217C111.696 48.1344 111.652 48.2418 111.574 48.3218C111.495 48.4019 111.388 48.4476 111.276 48.4488L79.3099 48.7335Z" fill="#181828"/>
<path d="M34.3099 116.734C34.1986 116.734 34.0915 116.69 34.0128 116.61C33.934 116.531 33.8896 116.424 33.8896 116.312C33.8896 116.201 33.934 116.094 34.0128 116.015C34.0915 115.936 34.1986 115.891 34.3099 115.891L66.2761 115.606C66.3868 115.606 66.4928 115.65 66.5715 115.728C66.6496 115.806 66.6946 115.911 66.6964 116.022C66.6964 116.134 66.652 116.242 66.5739 116.322C66.4951 116.402 66.388 116.448 66.2761 116.449L34.3099 116.734Z" fill="#181828"/>
<path d="M79.31 51.5728C79.1999 51.5716 79.0951 51.5277 79.0163 51.45C78.9382 51.3729 78.8926 51.2679 78.8897 51.1576C78.8891 51.103 78.8991 51.0478 78.9193 50.9968C78.94 50.9458 78.9702 50.8995 79.0087 50.8604C79.0477 50.8212 79.0933 50.7898 79.1442 50.769C79.1945 50.7477 79.249 50.7364 79.304 50.7364L102.101 50.4517C102.16 50.4445 102.22 50.4505 102.276 50.4683C102.333 50.4861 102.385 50.5157 102.43 50.5549C102.474 50.5946 102.51 50.6433 102.534 50.6973C102.558 50.7518 102.571 50.8106 102.571 50.8699C102.571 50.9298 102.558 50.9885 102.534 51.0425C102.51 51.0971 102.474 51.1457 102.43 51.1849C102.385 51.2246 102.333 51.2543 102.276 51.2721C102.22 51.2899 102.16 51.2952 102.101 51.2881L79.304 51.5728H79.31Z" fill="#181828"/>
<path d="M34.31 119.573C34.1999 119.572 34.0951 119.528 34.0163 119.45C33.9382 119.373 33.8926 119.268 33.8897 119.158C33.8891 119.103 33.8991 119.048 33.9193 118.997C33.94 118.946 33.9702 118.9 34.0087 118.86C34.0477 118.821 34.0933 118.79 34.1442 118.769C34.1945 118.748 34.249 118.736 34.304 118.736L57.1007 118.452C57.1599 118.445 57.2196 118.45 57.2759 118.468C57.3327 118.486 57.3848 118.516 57.4298 118.555C57.4742 118.595 57.5097 118.643 57.534 118.697C57.5582 118.752 57.5707 118.811 57.5707 118.87C57.5707 118.93 57.5582 118.989 57.534 119.042C57.5097 119.097 57.4742 119.146 57.4298 119.185C57.3848 119.225 57.3327 119.254 57.2759 119.272C57.2196 119.29 57.1599 119.295 57.1007 119.288L34.304 119.573H34.31Z" fill="#181828"/>
<path d="M79.3099 54.421C79.1986 54.421 79.0915 54.3765 79.0128 54.2976C78.934 54.2187 78.8896 54.112 78.8896 53.9998C78.8896 53.8883 78.934 53.781 79.0128 53.7021C79.0915 53.6232 79.1986 53.5787 79.3099 53.5787L91.8063 53.2939C91.917 53.2957 92.023 53.3396 92.1017 53.4167C92.1811 53.4939 92.2278 53.5988 92.2326 53.7092C92.2343 53.7643 92.2249 53.8189 92.2047 53.8705C92.1852 53.9221 92.1556 53.969 92.1177 54.0087C92.0792 54.0485 92.0342 54.0799 91.9833 54.1019C91.933 54.1238 91.8791 54.1357 91.8241 54.1363L79.3277 54.421H79.3099Z" fill="#181828"/>
<path d="M34.3099 122.421C34.1986 122.421 34.0915 122.377 34.0128 122.298C33.934 122.219 33.8896 122.112 33.8896 122C33.8896 121.888 33.934 121.781 34.0128 121.702C34.0915 121.623 34.1986 121.579 34.3099 121.579L46.8063 121.294C46.917 121.296 47.023 121.34 47.1017 121.417C47.1811 121.494 47.2278 121.599 47.2326 121.709C47.2343 121.764 47.2249 121.819 47.2047 121.871C47.1852 121.922 47.1556 121.969 47.1177 122.009C47.0792 122.048 47.0342 122.08 46.9833 122.102C46.933 122.124 46.8791 122.136 46.8241 122.136L34.3277 122.421H34.3099Z" fill="#181828"/>
<path d="M79.3099 59.2662C79.1986 59.2662 79.0915 59.2217 79.0128 59.1429C78.934 59.064 78.8896 58.9572 78.8896 58.8451C78.8896 58.7335 78.934 58.6262 79.0128 58.5473C79.0915 58.4684 79.1986 58.4239 79.3099 58.4239L111.276 58.1392C111.387 58.1392 111.493 58.1831 111.571 58.2608C111.65 58.3385 111.695 58.4441 111.696 58.5544C111.696 58.6665 111.652 58.7745 111.574 58.8546C111.495 58.9346 111.388 58.9803 111.276 58.9815L79.3099 59.2662Z" fill="#181828"/>
<path d="M34.3099 127.266C34.1986 127.266 34.0915 127.222 34.0128 127.143C33.934 127.064 33.8896 126.957 33.8896 126.845C33.8896 126.734 33.934 126.626 34.0128 126.547C34.0915 126.468 34.1986 126.424 34.3099 126.424L66.2761 126.139C66.3868 126.139 66.4928 126.183 66.5715 126.261C66.6496 126.338 66.6946 126.444 66.6964 126.554C66.6964 126.667 66.652 126.774 66.5739 126.855C66.4951 126.935 66.388 126.98 66.2761 126.982L34.3099 127.266Z" fill="#181828"/>
<path d="M79.31 62.1094C79.1999 62.1082 79.0951 62.0638 79.0163 61.9866C78.9382 61.9089 78.8926 61.8045 78.8897 61.6942C78.8891 61.639 78.8991 61.5844 78.9193 61.5334C78.94 61.4824 78.9702 61.4362 79.0087 61.397C79.0477 61.3578 79.0933 61.3264 79.1442 61.3051C79.1945 61.2843 79.249 61.273 79.304 61.273L102.101 60.9883C102.16 60.9812 102.22 60.9871 102.276 61.0049C102.333 61.0227 102.385 61.0524 102.43 61.0915C102.474 61.1312 102.51 61.1799 102.534 61.2339C102.558 61.2884 102.571 61.3472 102.571 61.4065C102.571 61.4658 102.558 61.5251 102.534 61.5791C102.51 61.6337 102.474 61.6817 102.43 61.7215C102.385 61.7612 102.333 61.7909 102.276 61.8087C102.22 61.8265 102.16 61.8318 102.101 61.8247L79.304 62.1094H79.31Z" fill="#181828"/>
<path d="M34.31 130.109C34.1999 130.108 34.0951 130.064 34.0163 129.987C33.9382 129.909 33.8926 129.805 33.8897 129.694C33.8891 129.639 33.8991 129.584 33.9193 129.533C33.94 129.482 33.9702 129.436 34.0087 129.397C34.0477 129.358 34.0933 129.326 34.1442 129.305C34.1945 129.284 34.249 129.273 34.304 129.273L57.1007 128.988C57.1599 128.981 57.2196 128.987 57.2759 129.005C57.3327 129.023 57.3848 129.052 57.4298 129.092C57.4742 129.131 57.5097 129.18 57.534 129.234C57.5582 129.288 57.5707 129.347 57.5707 129.406C57.5707 129.466 57.5582 129.525 57.534 129.579C57.5097 129.634 57.4742 129.682 57.4298 129.721C57.3848 129.761 57.3327 129.791 57.2759 129.809C57.2196 129.826 57.1599 129.832 57.1007 129.825L34.304 130.109H34.31Z" fill="#181828"/>
<path d="M79.3099 64.9557C79.1986 64.9557 79.0915 64.9112 79.0128 64.8323C78.934 64.7534 78.8896 64.646 78.8896 64.5345C78.8896 64.423 78.934 64.3156 79.0128 64.2367C79.0915 64.1578 79.1986 64.1133 79.3099 64.1133L91.8063 63.8286C91.917 63.8298 92.023 63.8737 92.1017 63.9514C92.1811 64.0285 92.2278 64.1329 92.2326 64.2439C92.2343 64.299 92.2249 64.3536 92.2047 64.4052C92.1852 64.4562 92.1556 64.5031 92.1177 64.5428C92.0792 64.5826 92.0342 64.6146 91.9833 64.6365C91.933 64.6585 91.8791 64.6704 91.8241 64.671L79.3277 64.9557H79.3099Z" fill="#181828"/>
<path d="M34.3099 132.956C34.1986 132.956 34.0915 132.911 34.0128 132.832C33.934 132.753 33.8896 132.646 33.8896 132.535C33.8896 132.423 33.934 132.316 34.0128 132.237C34.0915 132.158 34.1986 132.113 34.3099 132.113L46.8063 131.829C46.917 131.83 47.023 131.874 47.1017 131.951C47.1811 132.029 47.2278 132.133 47.2326 132.244C47.2343 132.299 47.2249 132.354 47.2047 132.405C47.1852 132.456 47.1556 132.503 47.1177 132.543C47.0792 132.583 47.0342 132.615 46.9833 132.637C46.933 132.658 46.8791 132.67 46.8241 132.671L34.3277 132.956H34.3099Z" fill="#181828"/>
<path d="M71.9028 43.9946L71.4216 47.8498C71.3902 48.1001 71.5672 48.3285 71.817 48.3599L71.8229 48.3605C72.0727 48.392 72.3006 48.2146 72.332 47.9643L72.8133 44.1085C72.8441 43.8581 72.6671 43.6298 72.4172 43.5989L72.4113 43.5977C72.1615 43.5669 71.9336 43.7442 71.9028 43.9946Z" fill="#8C7F93"/>
<path d="M26.9028 111.995L26.4216 115.85C26.3902 116.1 26.5672 116.328 26.817 116.36L26.8229 116.361C27.0727 116.392 27.3006 116.215 27.332 115.964L27.8133 112.108C27.8441 111.858 27.6671 111.63 27.4172 111.599L27.4113 111.598C27.1615 111.567 26.9336 111.744 26.9028 111.995Z" fill="#8C7F93"/>
<path d="M73.4673 46.6757L72.986 50.5315C72.9547 50.7819 73.1316 51.0102 73.3815 51.0411L73.3874 51.0423C73.6372 51.0731 73.8651 50.8958 73.8965 50.6454L74.3777 46.7902C74.4085 46.5399 74.2315 46.3115 73.9817 46.2801L73.9758 46.2795C73.726 46.248 73.4981 46.4254 73.4673 46.6757Z" fill="#8C7F93"/>
<path d="M28.4673 114.676L27.986 118.532C27.9547 118.782 28.1316 119.01 28.3815 119.041L28.3874 119.042C28.6372 119.073 28.8651 118.896 28.8965 118.645L29.3777 114.79C29.4085 114.54 29.2315 114.312 28.9817 114.28L28.9758 114.279C28.726 114.248 28.4981 114.425 28.4673 114.676Z" fill="#8C7F93"/>
<path d="M69.8706 61.836L69.5948 64.0493C69.577 64.1922 69.6783 64.3227 69.8209 64.3405L69.8268 64.3417C69.9695 64.3595 70.0997 64.2581 70.1175 64.1151L70.3939 61.9019C70.4117 61.7583 70.3105 61.6284 70.1678 61.61L70.1619 61.6094C70.0192 61.5917 69.889 61.6931 69.8706 61.836Z" fill="#8C7F93"/>
<path d="M24.8706 129.836L24.5948 132.049C24.577 132.192 24.6783 132.323 24.8209 132.341L24.8268 132.342C24.9695 132.36 25.0997 132.258 25.1175 132.115L25.3939 129.902C25.4117 129.758 25.3105 129.628 25.1678 129.61L25.1619 129.609C25.0192 129.592 24.889 129.693 24.8706 129.836Z" fill="#8C7F93"/>
<path d="M75.6231 50.892V45.8083C75.6249 45.4773 75.561 45.1493 75.4361 44.8426C75.3112 44.5359 75.1271 44.2577 74.8944 44.0222C74.6624 43.7867 74.3859 43.5998 74.0811 43.4717C73.7762 43.3436 73.4494 43.2771 73.1191 43.2754L55.4667 43.2398C54.7989 43.2368 54.1573 43.499 53.6819 43.9694C53.2071 44.4398 52.9378 45.0799 52.9331 45.749L52.8916 67.1457C52.8887 67.8148 53.1503 68.4578 53.6197 68.9342C54.0892 69.4099 54.7279 69.6798 55.3956 69.6845L73.0481 69.7201C73.7158 69.7231 74.3575 69.4609 74.8329 68.9905C75.3076 68.5201 75.577 67.88 75.5817 67.2109V62.7085" fill="#BDECFF"/>
<path d="M30.6231 118.892V113.808C30.6249 113.477 30.561 113.149 30.4361 112.843C30.3112 112.536 30.1271 112.258 29.8944 112.022C29.6624 111.787 29.3859 111.6 29.0811 111.472C28.7762 111.344 28.4494 111.277 28.1191 111.275L10.4667 111.24C9.79894 111.237 9.15725 111.499 8.68191 111.969C8.20715 112.44 7.9378 113.08 7.93307 113.749L7.89163 135.146C7.88867 135.815 8.15031 136.458 8.61974 136.934C9.08917 137.41 9.7279 137.68 10.3956 137.685L28.0481 137.72C28.7158 137.723 29.3575 137.461 29.8329 136.991C30.3076 136.52 30.577 135.88 30.5817 135.211V130.709" fill="#BDECFF"/>
<path d="M53.5295 56.0402C53.3827 56.0414 53.2412 55.985 53.1364 55.883C53.0311 55.781 52.9701 55.641 52.9671 55.4944L52.902 45.5702C52.8606 43.0491 54.7667 42.9483 57.2826 42.9008C57.3554 42.8902 57.4294 42.8943 57.5004 42.9121C57.5715 42.9305 57.6383 42.9625 57.697 43.0064C57.7561 43.0503 57.8059 43.1061 57.8432 43.169C57.8805 43.2324 57.9053 43.3024 57.916 43.3754C57.926 43.4478 57.9225 43.5225 57.9041 43.5937C57.8864 43.6649 57.8544 43.7319 57.81 43.7906C57.7662 43.85 57.7112 43.8998 57.6478 43.9372C57.5851 43.9745 57.5152 43.9994 57.4424 44.0101H57.3063C56.8504 44.0202 56.4011 44.1199 55.9838 44.3044C55.5665 44.4888 55.19 44.754 54.8756 45.085C54.5607 45.4154 54.3145 45.8051 54.1505 46.2317C53.9865 46.6576 53.9084 47.1126 53.9202 47.5693L54.0741 55.4944C54.0629 55.6356 54.0025 55.7679 53.9025 55.8682C53.8024 55.9678 53.6704 56.0289 53.5295 56.0402Z" fill="#AEFFCF"/>
<path d="M8.52951 124.04C8.38271 124.041 8.24122 123.985 8.13645 123.883C8.03108 123.781 7.97011 123.641 7.96715 123.494L7.90203 113.57C7.86059 111.049 9.76672 110.948 12.2826 110.901C12.3554 110.89 12.4294 110.894 12.5004 110.912C12.5715 110.931 12.6383 110.963 12.697 111.006C12.7561 111.05 12.8059 111.106 12.8432 111.169C12.8805 111.232 12.9053 111.302 12.916 111.375C12.926 111.448 12.9225 111.523 12.9041 111.594C12.8864 111.665 12.8544 111.732 12.81 111.791C12.7662 111.85 12.7112 111.9 12.6478 111.937C12.5851 111.975 12.5152 111.999 12.4424 112.01H12.3063C11.8504 112.02 11.4011 112.12 10.9838 112.304C10.5665 112.489 10.19 112.754 9.87565 113.085C9.56072 113.415 9.31446 113.805 9.15048 114.232C8.98651 114.658 8.90837 115.113 8.92021 115.569L9.07412 123.494C9.06287 123.636 9.0025 123.768 8.90245 123.868C8.80241 123.968 8.6704 124.029 8.52951 124.04Z" fill="#AEFFCF"/>
<path d="M54.1841 54.6398C54.5535 54.6326 54.8459 54.25 54.8371 53.785C54.8282 53.3199 54.5215 52.9485 54.1522 52.9557C53.7828 52.9628 53.4903 53.3454 53.4992 53.8105C53.5081 54.2755 53.8147 54.6469 54.1841 54.6398Z" fill="#AEFFCF"/>
<path d="M9.18412 122.64C9.55351 122.633 9.84595 122.25 9.83707 121.785C9.82819 121.32 9.52154 120.949 9.15216 120.956C8.78277 120.963 8.49034 121.345 8.49922 121.81C8.5081 122.276 8.81474 122.647 9.18412 122.64Z" fill="#AEFFCF"/>
<path d="M54.9334 52.7768C55.0317 52.7768 55.111 52.6967 55.111 52.5989C55.111 52.5004 55.0317 52.4209 54.9334 52.4209C54.8352 52.4209 54.7559 52.5004 54.7559 52.5989C54.7559 52.6967 54.8352 52.7768 54.9334 52.7768Z" fill="#AEFFCF"/>
<path d="M9.93344 120.777C10.0317 120.777 10.111 120.697 10.111 120.599C10.111 120.5 10.0317 120.421 9.93344 120.421C9.83518 120.421 9.75586 120.5 9.75586 120.599C9.75586 120.697 9.83518 120.777 9.93344 120.777Z" fill="#AEFFCF"/>
<path d="M54.6906 55.346C54.8084 55.346 54.9038 55.25 54.9038 55.1325C54.9038 55.0145 54.8084 54.9189 54.6906 54.9189C54.5728 54.9189 54.4775 55.0145 54.4775 55.1325C54.4775 55.25 54.5728 55.346 54.6906 55.346Z" fill="#7DC4FF"/>
<path d="M9.69065 123.346C9.80845 123.346 9.90376 123.25 9.90376 123.132C9.90376 123.014 9.80845 122.919 9.69065 122.919C9.57285 122.919 9.47754 123.014 9.47754 123.132C9.47754 123.25 9.57285 123.346 9.69065 123.346Z" fill="#7DC4FF"/>
<path d="M55.4194 54.2713C55.6023 54.2713 55.7509 54.1224 55.7509 53.9391C55.7509 53.7552 55.6023 53.6069 55.4194 53.6069C55.2365 53.6069 55.0879 53.7552 55.0879 53.9391C55.0879 54.1224 55.2365 54.2713 55.4194 54.2713Z" fill="#AEFFCF"/>
<path d="M10.4194 122.271C10.6023 122.271 10.7509 122.122 10.7509 121.939C10.7509 121.755 10.6023 121.607 10.4194 121.607C10.2365 121.607 10.0879 121.755 10.0879 121.939C10.0879 122.122 10.2365 122.271 10.4194 122.271Z" fill="#AEFFCF"/>
<path d="M54.0393 50.4589C54.2122 50.4589 54.3531 50.3183 54.3531 50.1445C54.3531 49.9713 54.2122 49.8301 54.0393 49.8301C53.8659 49.8301 53.7256 49.9713 53.7256 50.1445C53.7256 50.3183 53.8659 50.4589 54.0393 50.4589Z" fill="#AEFFCF"/>
<path d="M9.03933 118.459C9.21218 118.459 9.35307 118.318 9.35307 118.144C9.35307 117.971 9.21218 117.83 9.03933 117.83C8.86588 117.83 8.72559 117.971 8.72559 118.144C8.72559 118.318 8.86588 118.459 9.03933 118.459Z" fill="#AEFFCF"/>
<path d="M54.2997 51.8034C54.3489 51.8034 54.3885 51.7637 54.3885 51.7145C54.3885 51.6652 54.3489 51.6255 54.2997 51.6255C54.2506 51.6255 54.2109 51.6652 54.2109 51.7145C54.2109 51.7637 54.2506 51.8034 54.2997 51.8034Z" fill="#AEFFCF"/>
<path d="M9.29974 119.803C9.34887 119.803 9.38853 119.764 9.38853 119.714C9.38853 119.665 9.34887 119.625 9.29974 119.625C9.2506 119.625 9.21094 119.665 9.21094 119.714C9.21094 119.764 9.2506 119.803 9.29974 119.803Z" fill="#AEFFCF"/>
<path d="M54.9335 48.8213C55.0874 48.8213 55.2117 48.6961 55.2117 48.5425C55.2117 48.3882 55.0874 48.2637 54.9335 48.2637C54.7796 48.2637 54.6553 48.3882 54.6553 48.5425C54.6553 48.6961 54.7796 48.8213 54.9335 48.8213Z" fill="#AEFFCF"/>
<path d="M9.9335 116.821C10.0874 116.821 10.2117 116.696 10.2117 116.542C10.2117 116.388 10.0874 116.264 9.9335 116.264C9.77959 116.264 9.65527 116.388 9.65527 116.542C9.65527 116.696 9.77959 116.821 9.9335 116.821Z" fill="#AEFFCF"/>
<path d="M54.826 47.1254C54.9237 47.1254 55.0036 47.046 55.0036 46.9475C55.0036 46.8496 54.9237 46.7695 54.826 46.7695C54.7278 46.7695 54.6484 46.8496 54.6484 46.9475C54.6484 47.046 54.7278 47.1254 54.826 47.1254Z" fill="#AEFFCF"/>
<path d="M9.82603 115.125C9.9237 115.125 10.0036 115.046 10.0036 114.947C10.0036 114.85 9.9237 114.77 9.82603 114.77C9.72776 114.77 9.64844 114.85 9.64844 114.947C9.64844 115.046 9.72776 115.125 9.82603 115.125Z" fill="#AEFFCF"/>
<path d="M55.0819 45.4939C55.34 45.4939 55.5496 45.2839 55.5496 45.0253C55.5496 44.766 55.34 44.5566 55.0819 44.5566C54.8232 44.5566 54.6143 44.766 54.6143 45.0253C54.6143 45.2839 54.8232 45.4939 55.0819 45.4939Z" fill="#AEFFCF"/>
<path d="M10.0819 113.494C10.34 113.494 10.5496 113.284 10.5496 113.025C10.5496 112.766 10.34 112.557 10.0819 112.557C9.82322 112.557 9.61426 112.766 9.61426 113.025C9.61426 113.284 9.82322 113.494 10.0819 113.494Z" fill="#AEFFCF"/>
<path d="M72.8577 69.7782L55.1875 69.7367C54.7945 69.7373 54.4049 69.6596 54.0421 69.5078C53.6792 69.3559 53.3501 69.1334 53.0742 68.8529C52.8007 68.5752 52.5846 68.246 52.4384 67.8848C52.2922 67.5235 52.2188 67.1367 52.2218 66.747L52.2632 45.3444C52.2632 44.5578 52.5752 43.8033 53.1298 43.2469C53.6851 42.691 54.4381 42.3784 55.223 42.3784L72.8814 42.414C73.6663 42.414 74.4193 42.7266 74.974 43.2825C75.5292 43.8389 75.8412 44.5934 75.8412 45.38V50.4637L75.8057 66.8004C75.8057 67.1931 75.7276 67.5822 75.576 67.9447C75.4245 68.3077 75.2031 68.6363 74.9237 68.9122C74.6531 69.1856 74.3311 69.4028 73.9765 69.5511C73.6219 69.6999 73.2419 69.7771 72.8577 69.7782ZM55.223 43.2742C54.6772 43.2753 54.1545 43.4924 53.768 43.878C53.3814 44.2636 53.1618 44.7862 53.1571 45.3325L53.1216 66.7707C53.1186 67.043 53.1689 67.3129 53.2707 67.5656C53.3725 67.8183 53.5235 68.0479 53.7147 68.2413C53.9059 68.4352 54.1332 68.5889 54.3842 68.6939C54.6346 68.7989 54.904 68.8529 55.1757 68.8529L72.8459 68.8884C73.394 68.8914 73.9209 68.6785 74.3139 68.2952C74.504 68.1036 74.6543 67.8759 74.7562 67.6249C74.8574 67.3746 74.9083 67.1065 74.9059 66.836L74.9533 45.4037C74.9515 44.8544 74.7336 44.3283 74.3465 43.9391C73.9599 43.5506 73.4355 43.3305 72.8873 43.3275L55.223 43.2742Z" fill="#181828"/>
<path d="M27.8577 137.778L10.1875 137.737C9.79446 137.737 9.40494 137.66 9.04207 137.508C8.67919 137.356 8.35005 137.133 8.0742 136.853C7.80071 136.575 7.58465 136.246 7.43843 135.885C7.29222 135.523 7.21881 135.137 7.22177 134.747L7.26321 113.344C7.26321 112.558 7.57518 111.803 8.12985 111.247C8.68511 110.691 9.43809 110.378 10.223 110.378L27.8814 110.414C28.6663 110.414 29.4193 110.727 29.974 111.282C30.5292 111.839 30.8412 112.593 30.8412 113.38V118.464L30.8057 134.8C30.8057 135.193 30.7276 135.582 30.576 135.945C30.4245 136.308 30.2031 136.636 29.9237 136.912C29.6531 137.186 29.3311 137.403 28.9765 137.551C28.6219 137.7 28.2419 137.777 27.8577 137.778ZM10.223 111.274C9.67725 111.275 9.15454 111.492 8.76799 111.878C8.38144 112.264 8.16181 112.786 8.15707 113.333L8.12156 134.771C8.1186 135.043 8.16891 135.313 8.27073 135.566C8.37255 135.818 8.5235 136.048 8.71471 136.241C8.90591 136.435 9.13322 136.589 9.38422 136.694C9.63462 136.799 9.90397 136.853 10.1757 136.853L27.8459 136.888C28.394 136.891 28.9209 136.678 29.3139 136.295C29.504 136.104 29.6543 135.876 29.7562 135.625C29.8574 135.375 29.9083 135.106 29.9059 134.836L29.9533 113.404C29.9515 112.854 29.7336 112.328 29.3465 111.939C28.9599 111.551 28.4355 111.331 27.8873 111.328L10.223 111.274Z" fill="#181828"/>
<path d="M72.8343 59.6528C72.9273 59.6523 73.0196 59.67 73.1061 59.705C73.1919 59.74 73.27 59.7917 73.3363 59.8575C73.4026 59.9233 73.4547 60.0011 73.4908 60.0871C73.5264 60.1731 73.5447 60.2656 73.5447 60.3588L73.5743 65.8162C73.5743 66.0042 73.5003 66.184 73.3683 66.3174C73.2363 66.4509 73.0575 66.5262 72.8699 66.528C72.7769 66.5286 72.6846 66.5114 72.5987 66.4758C72.5123 66.4408 72.4342 66.3892 72.3679 66.3234C72.3022 66.2575 72.2495 66.1798 72.214 66.0938C72.1778 66.0078 72.1595 65.9152 72.1595 65.8221L72.1299 60.3647C72.1293 60.2716 72.1471 60.179 72.182 60.093C72.2169 60.0064 72.2684 59.9281 72.3341 59.8617C72.3998 59.7958 72.4774 59.743 72.5632 59.7074C72.649 59.6712 72.7414 59.6528 72.8343 59.6528Z" fill="#60BBE0"/>
<path d="M27.8343 127.653C27.9273 127.652 28.0196 127.67 28.1061 127.705C28.1919 127.74 28.27 127.792 28.3363 127.858C28.4026 127.923 28.4547 128.001 28.4908 128.087C28.5264 128.173 28.5447 128.266 28.5447 128.359L28.5743 133.816C28.5743 134.004 28.5003 134.184 28.3683 134.317C28.2363 134.451 28.0575 134.526 27.8699 134.528C27.7769 134.529 27.6846 134.511 27.5987 134.476C27.5123 134.441 27.4342 134.389 27.3679 134.323C27.3022 134.258 27.2495 134.18 27.214 134.094C27.1778 134.008 27.1595 133.915 27.1595 133.822L27.1299 128.365C27.1293 128.272 27.1471 128.179 27.182 128.093C27.2169 128.006 27.2684 127.928 27.3341 127.862C27.3998 127.796 27.4774 127.743 27.5632 127.707C27.649 127.671 27.7414 127.653 27.8343 127.653Z" fill="#60BBE0"/>
<path d="M54.4782 54.1846C54.6226 54.1846 54.7612 54.2421 54.863 54.3447C54.9654 54.4468 55.0228 54.5856 55.0228 54.7303V58.9242C55.0228 59.0684 54.966 59.206 54.8653 59.308C54.7647 59.4106 54.6274 59.4688 54.4841 59.47C54.4125 59.4711 54.3415 59.4575 54.2752 59.4308C54.2089 59.4041 54.1485 59.3644 54.097 59.3145C54.0461 59.2641 54.0052 59.2048 53.9774 59.139C53.949 59.0725 53.9342 59.0019 53.9336 58.9302V54.7362C53.9336 54.5909 53.9904 54.4515 54.0928 54.3483C54.1946 54.2451 54.3332 54.1863 54.4782 54.1846Z" fill="white"/>
<path d="M9.4782 122.185C9.62264 122.185 9.76116 122.242 9.86298 122.345C9.96539 122.447 10.0228 122.586 10.0228 122.73V126.924C10.0228 127.068 9.96598 127.206 9.86534 127.308C9.76471 127.411 9.62737 127.469 9.48412 127.47C9.41249 127.471 9.34146 127.458 9.27516 127.431C9.20886 127.404 9.14847 127.364 9.09697 127.315C9.04606 127.264 9.00522 127.205 8.97739 127.139C8.94898 127.073 8.93419 127.002 8.93359 126.93V122.736C8.93359 122.591 8.99042 122.452 9.09283 122.348C9.19465 122.245 9.33317 122.186 9.4782 122.185Z" fill="white"/>
</g>
<defs>
<clipPath id="clip0_678_3749">
<rect width="423.098" height="245.678" fill="white"/>
</clipPath>
</defs>
</svg>
