<svg width="20" height="21" viewBox="0 0 20 21" fill="none" xmlns="http://www.w3.org/2000/svg">
<path opacity="0.4" d="M17.1829 7.54166C16.3079 3.69166 12.9496 1.95833 9.99959 1.95833C9.99959 1.95833 9.99959 1.95833 9.99126 1.95833C7.04959 1.95833 3.68292 3.68333 2.80792 7.53333C1.83292 11.8333 4.46626 15.475 6.84959 17.7667C7.73292 18.6167 8.86626 19.0417 9.99959 19.0417C11.1329 19.0417 12.2663 18.6167 13.1413 17.7667C15.5246 15.475 18.1579 11.8417 17.1829 7.54166Z" fill="#1D2D5A"/>
<path d="M10 11.7167C11.4497 11.7167 12.625 10.5414 12.625 9.09168C12.625 7.64193 11.4497 6.46667 10 6.46667C8.55025 6.46667 7.375 7.64193 7.375 9.09168C7.375 10.5414 8.55025 11.7167 10 11.7167Z" fill="#1D2D5A"/>
</svg>
