<svg width="135" height="51" viewBox="0 0 135 51" fill="none" xmlns="http://www.w3.org/2000/svg">
<rect width="134.186" height="51" fill="white"/>
<rect x="17.5215" y="19.5065" width="16.0807" height="16.0807" rx="0.800036" fill="#60BBE0"/>
<path d="M30.6079 16.9525C30.1039 16.4485 30.4609 15.5867 31.1736 15.5867H36.7343C37.1761 15.5867 37.5343 15.9449 37.5343 16.3868V22.0474C37.5343 22.7669 36.6587 23.1207 36.1589 22.6033L33.3223 19.6669L30.6079 16.9525Z" fill="#1D2D5A"/>
<path d="M65.3593 25.4359C65.3593 25.6019 65.3593 25.7126 65.3593 25.8509V33.2934H62.5096V26.9299V26.2106C62.5373 25.6296 62.5373 25.0486 62.3436 24.4952C61.9286 23.1949 60.6282 22.1712 59.1895 22.1712C57.7508 22.1158 56.3398 23.0842 55.8418 24.4399C55.7588 24.7442 55.6758 25.0486 55.6758 25.3529V33.2934H52.826C52.8537 32.9061 52.8814 25.4636 52.7984 25.1039C52.7984 24.9932 52.7707 24.8826 52.743 24.7719C52.6047 24.3016 52.3834 23.8589 52.079 23.4715C51.4427 22.7522 50.502 22.2818 49.5336 22.3095C48.5376 22.2818 47.5969 22.7522 46.9606 23.4715C46.4902 24.0249 46.2966 24.6336 46.2136 25.3529C46.2136 25.3529 46.2136 25.3529 46.2136 25.3806V33.2934H43.3915V19.4874H46.2136V20.6218C47.1819 19.9578 48.344 19.5981 49.5336 19.5704C51.2767 19.5428 53.0474 20.3451 54.1817 21.7008C54.2371 21.7562 54.2647 21.7838 54.3201 21.8392C54.6798 21.3688 55.1224 20.9261 55.6204 20.5941C56.1461 20.2345 56.6995 19.9301 57.3081 19.7365C57.9168 19.5428 58.5532 19.4598 59.1895 19.4598C59.7982 19.4598 60.4345 19.5428 61.0432 19.7365C61.6519 19.9301 62.2329 20.2345 62.7309 20.5941C63.7823 21.3135 64.5846 22.3648 64.9996 23.5822C65.1933 24.1632 65.3317 24.7996 65.3593 25.4359ZM76.5362 19.4874H79.386V33.2934H76.5362V32.3804C75.9276 32.7954 75.2359 33.0997 74.5165 33.2934C74.1015 33.3764 73.6865 33.4318 73.2438 33.4594C72.7735 33.4594 72.3032 33.4041 71.8605 33.2934C70.5601 32.9614 69.3704 32.2421 68.5127 31.246C67.9317 30.5544 67.5167 29.752 67.2954 28.8667C67.24 28.6453 67.1847 28.424 67.157 28.2026C67.1017 27.9813 67.1017 27.76 67.1017 27.5386V25.3529C67.1017 25.1316 67.1294 24.9102 67.1847 24.6889C67.2124 24.4676 67.2677 24.2462 67.323 24.0249C67.5721 23.1672 67.9871 22.3648 68.5681 21.7008C69.7301 20.3451 71.5008 19.5428 73.2438 19.5704C74.4335 19.5704 75.5679 19.9578 76.5362 20.6218V19.4874ZM76.4532 28.1473C76.5916 27.6493 76.6193 25.3806 76.4532 24.7719C76.3426 24.3016 76.1212 23.8589 75.7892 23.4715C75.1806 22.7522 74.2122 22.2818 73.2438 22.3095C72.2755 22.2818 71.3348 22.7522 70.6985 23.4715C70.3664 23.8589 70.1451 24.3016 70.0344 24.7719C70.0068 24.8826 69.9791 24.9932 69.9514 25.1039C69.8684 25.5189 69.8961 27.345 69.9514 27.7876C69.9791 27.8706 69.9791 27.9536 70.0068 28.0643C70.1451 28.5623 70.3664 29.0327 70.6985 29.42C71.3348 30.167 72.2755 30.6097 73.2438 30.6097C74.2122 30.6097 75.1806 30.167 75.7892 29.42C76.1212 29.0327 76.3426 28.59 76.4532 28.1473ZM90.8292 19.4874H93.6789V33.2934H90.8292V32.3804C90.2205 32.7954 89.5288 33.0997 88.8095 33.2934C88.3945 33.3764 87.9795 33.4318 87.5368 33.4594C87.0665 33.4594 86.5961 33.4041 86.1534 33.2934C84.8531 32.9614 83.6634 32.2421 82.8057 31.246C82.2247 30.5544 81.8097 29.752 81.5883 28.8667C81.533 28.6453 81.4777 28.424 81.45 28.2026C81.3947 27.9813 81.3947 27.76 81.3947 27.5386V25.3529C81.3947 25.1316 81.4223 24.9102 81.4777 24.6889C81.5053 24.4676 81.5607 24.2462 81.616 24.0249C81.865 23.1672 82.28 22.3648 82.861 21.7008C84.0231 20.3451 85.7938 19.5428 87.5368 19.5704C88.7265 19.5704 89.8608 19.9578 90.8292 20.6218V19.4874ZM90.7462 28.1473C90.8845 27.6493 90.9122 25.3806 90.7462 24.7719C90.6355 24.3016 90.4142 23.8589 90.0822 23.4715C89.4735 22.7522 88.5052 22.2818 87.5368 22.3095C86.5684 22.2818 85.6278 22.7522 84.9914 23.4715C84.6594 23.8589 84.4381 24.3016 84.3274 24.7719C84.2997 24.8826 84.2721 24.9932 84.2444 25.1039C84.1614 25.5189 84.1891 27.345 84.2444 27.7876C84.2721 27.8706 84.2721 27.9536 84.2997 28.0643C84.4381 28.5623 84.6594 29.0327 84.9914 29.42C85.6278 30.167 86.5684 30.6097 87.5368 30.6097C88.5052 30.6097 89.4735 30.167 90.0822 29.42C90.4142 29.0327 90.6355 28.59 90.7462 28.1473ZM102.328 19.5704C102.798 19.5704 103.241 19.6258 103.683 19.7088V22.5862C103.268 22.3925 102.798 22.2818 102.328 22.2818C101.359 22.2818 100.419 22.7522 99.7824 23.4715C99.478 23.8589 99.229 24.3016 99.1184 24.7719C99.0907 24.9102 99.063 25.1039 99.0354 25.3252V33.2934H96.2133V19.4874H99.0354V20.6218C100.004 19.9578 101.166 19.5981 102.328 19.5704ZM114.147 19.4874H116.969V32.3527C116.969 35.8111 114.147 38.6332 110.689 38.6332C109.803 38.6332 108.946 38.4949 108.116 38.2459C107.341 37.9968 106.594 37.6648 105.93 37.2222L107.479 34.8428C107.922 35.1471 108.42 35.3685 108.946 35.5345C109.527 35.7005 110.108 35.8111 110.689 35.8111C112.57 35.8111 114.092 34.3171 114.119 32.4634V32.3804C113.511 32.7954 112.819 33.0997 112.1 33.2934C111.685 33.3764 111.27 33.4318 110.827 33.4594C110.357 33.4594 109.886 33.4041 109.444 33.2934C108.143 32.9614 106.954 32.2421 106.096 31.246C105.543 30.5544 105.1 29.752 104.879 28.8667C104.823 28.6453 104.768 28.424 104.74 28.2026C104.713 27.9813 104.685 27.76 104.685 27.5386V25.3529C104.713 25.1316 104.713 24.9102 104.768 24.6889C104.796 24.4676 104.851 24.2462 104.906 24.0249C105.155 23.1672 105.57 22.3648 106.151 21.7008C107.313 20.3451 109.084 19.5428 110.827 19.5704C112.017 19.5704 113.179 19.9578 114.119 20.6218V19.4874H114.147ZM114.147 27.511V25.2699C114.119 25.1039 114.092 24.9379 114.064 24.7719C113.926 24.3016 113.704 23.8589 113.4 23.4715C112.764 22.7522 111.823 22.2818 110.827 22.3095C109.859 22.2818 108.918 22.7522 108.282 23.4715C107.977 23.8589 107.756 24.3016 107.618 24.7719C107.59 24.8826 107.562 24.9932 107.535 25.1039C107.452 25.5189 107.479 27.345 107.535 27.7876C107.562 27.8706 107.59 27.9536 107.59 28.0643C107.728 28.5623 107.95 29.0327 108.282 29.42C108.918 30.167 109.859 30.6097 110.827 30.6097C111.823 30.6097 112.764 30.167 113.4 29.42C113.704 29.0327 113.926 28.59 114.064 28.1473C114.119 27.926 114.119 27.7046 114.147 27.511Z" fill="#0F235D"/>
<rect x="15.125" y="27.5748" width="10.4213" height="9.40687" rx="0.922242" fill="white"/>
</svg>
