<svg width="121" height="120" viewBox="0 0 121 120" fill="none" xmlns="http://www.w3.org/2000/svg">
<g clip-path="url(#clip0_289_2779)">
<path opacity="0.4" d="M116.464 96.3105L91.0465 112.339C89.7466 113.159 88.2825 113.684 86.7578 113.877C85.233 114.069 83.6845 113.926 82.2212 113.456L54.3601 104.5C52.8878 104.026 51.3289 103.884 49.7951 104.082C48.2613 104.28 46.7901 104.815 45.4863 105.647L25.0886 118.668C24.4628 119.063 23.7534 119.307 23.0168 119.381C22.2803 119.454 21.5368 119.355 20.8451 119.091C20.1536 118.827 19.533 118.405 19.0327 117.86C18.5325 117.314 18.1663 116.659 17.9632 115.948L0.358396 54.2301C0.0761504 53.2405 0.122116 52.1859 0.48909 51.2246C0.856065 50.2632 1.52467 49.4464 2.39448 48.8966L28.0827 32.6617C29.5068 31.7616 31.1113 31.185 32.7826 30.9729C34.454 30.7606 36.1515 30.9177 37.7554 31.4332L64.7275 40.1033C66.3374 40.6207 68.0414 40.7771 69.7184 40.5615C71.3954 40.3459 73.0044 39.7635 74.4309 38.8558L93.7465 26.5638C94.3723 26.1657 95.0823 25.9192 95.8199 25.8437C96.5577 25.7684 97.3028 25.8664 97.9961 26.1297C98.6892 26.3931 99.3113 26.8147 99.8129 27.3609C100.314 27.9071 100.682 28.563 100.885 29.2761L118.487 90.985C118.769 91.9722 118.724 93.0238 118.359 93.9835C117.995 94.9431 117.33 95.7593 116.464 96.3105Z" fill="#CCCDCF"/>
<path d="M117.456 89.7607L95.7514 103.572C94.3248 104.48 92.7157 105.063 91.0387 105.278C89.3616 105.494 87.6576 105.337 86.048 104.82L59.0741 96.1499C57.4701 95.6345 55.7726 95.4772 54.1011 95.6895C52.4298 95.9018 50.8255 96.4783 49.4013 97.3782L26.0798 112.118C25.454 112.513 24.7446 112.758 24.0081 112.831C23.2714 112.904 22.5278 112.805 21.8363 112.541C21.1446 112.277 20.5242 111.856 20.024 111.31C19.5237 110.764 19.1575 110.11 18.9544 109.398L1.34982 47.6803C1.06739 46.6907 1.11317 45.6363 1.48033 44.6749C1.8473 43.7134 2.51572 42.8967 3.38571 42.3468L29.0726 26.1111C30.4968 25.2112 32.1011 24.6348 33.7724 24.4225C35.4439 24.2102 37.1414 24.3675 38.7454 24.8828L65.7191 33.5531C67.3288 34.0705 69.0328 34.227 70.7098 34.0114C72.387 33.7958 73.996 33.2132 75.4225 32.3054L94.7381 20.0136C95.3637 19.6156 96.0737 19.369 96.8113 19.2937C97.5491 19.2184 98.2942 19.3162 98.9875 19.5796C99.6807 19.843 100.303 20.2647 100.804 20.8109C101.306 21.3571 101.673 22.0128 101.877 22.7259L119.479 84.4344C119.76 85.4218 119.716 86.4736 119.351 87.4333C118.986 88.3932 118.322 89.2095 117.456 89.7607Z" fill="white"/>
<path d="M56.4854 89.1734L52.4496 77.7865L33.3774 84.3158L27.4137 67.0366L11.8799 70.1282L22.771 108.309C22.8191 108.476 22.9207 108.623 23.06 108.728C23.1994 108.832 23.3691 108.888 23.5433 108.888C23.6912 108.887 23.8355 108.843 23.9588 108.762L46.1313 94.7489C46.0349 94.6361 56.4854 89.1734 56.4854 89.1734Z" fill="#EAF4F7"/>
<path d="M117.456 89.7607L95.7514 103.572C94.3248 104.48 92.7157 105.063 91.0387 105.278C89.3616 105.494 87.6576 105.337 86.048 104.82L59.0741 96.1499C57.4701 95.6345 55.7726 95.4772 54.1011 95.6895C52.4298 95.9018 50.8255 96.4783 49.4013 97.3782L26.0798 112.118C25.454 112.513 24.7446 112.758 24.0081 112.831C23.2714 112.904 22.5278 112.805 21.8363 112.541C21.1447 112.277 20.5242 111.856 20.024 111.31C19.5237 110.764 19.1575 110.11 18.9544 109.398L1.34982 47.6803C1.06739 46.6907 1.11317 45.6363 1.48033 44.6749C1.8473 43.7134 2.51572 42.8967 3.38571 42.3468L29.0726 26.1111C30.4968 25.2112 32.1011 24.6348 33.7724 24.4225C35.4439 24.2102 37.1414 24.3675 38.7454 24.8828L65.7191 33.5531C67.3288 34.0705 69.0328 34.227 70.7098 34.0114C72.387 33.7958 73.996 33.2132 75.4225 32.3054L94.7381 20.0136C95.3637 19.6156 96.0737 19.369 96.8113 19.2937C97.5491 19.2184 98.2943 19.3162 98.9875 19.5796C99.6807 19.843 100.303 20.2647 100.804 20.8109C101.306 21.3571 101.673 22.0128 101.877 22.7259L119.479 84.4344C119.76 85.4218 119.716 86.4736 119.351 87.4333C118.986 88.3932 118.322 89.2095 117.456 89.7607Z" stroke="#363A5A" stroke-width="1.10757" stroke-miterlimit="10"/>
<path d="M36.4668 82.0942C36.4668 82.0942 36.7976 82.008 37.3551 81.8452" stroke="#363A5A" stroke-width="0.738379" stroke-linecap="round" stroke-linejoin="round"/>
<path d="M40.0381 80.9857C43.9578 79.6221 49.7098 77.1197 49.7788 74.1603C49.8711 70.2284 30.815 50.5569 41.0598 49.3677C75.263 45.3978 59.9378 73.845 75.537 73.2092C82.127 72.9406 69.9399 63.88 88.7691 57.3308C91.5603 56.3598 90.1737 49.261 89.2372 45.5496" stroke="#363A5A" stroke-width="0.738379" stroke-linecap="round" stroke-linejoin="round" stroke-dasharray="1.88 2.82"/>
<path d="M88.8746 44.1878C88.7189 43.6309 88.6162 43.3018 88.6162 43.3018" stroke="#363A5A" stroke-width="0.738379" stroke-linecap="round" stroke-linejoin="round"/>
<path opacity="0.22" d="M35.2749 91.4707C40.1881 91.4707 44.1709 87.4879 44.1709 82.5747C44.1709 77.6617 40.1881 73.6787 35.2749 73.6787C30.3617 73.6787 26.3789 77.6617 26.3789 82.5747C26.3789 87.4879 30.3617 91.4707 35.2749 91.4707Z" fill="#3DC0CB"/>
<path d="M35.2749 87.7329C38.1239 87.7329 40.4336 85.4234 40.4336 82.5742C40.4336 79.7252 38.1239 77.4155 35.2749 77.4155C32.4259 77.4155 30.1162 79.7252 30.1162 82.5742C30.1162 85.4234 32.4259 87.7329 35.2749 87.7329Z" fill="#3DC0CB"/>
<path d="M35.2748 77.4155C34.484 77.4152 33.7037 77.5968 32.9943 77.9464C32.2851 78.2962 31.6658 78.8046 31.1846 79.432C32.1987 78.7428 33.4254 78.4373 34.6442 78.5705C35.8633 78.7036 36.9949 79.2668 37.8363 80.1588C38.6776 81.0508 39.1736 82.2135 39.2355 83.4381C39.2973 84.6627 38.9207 85.8694 38.1733 86.8415C39.086 86.2216 39.7758 85.3254 40.1417 84.2845C40.5073 83.2436 40.5299 82.1127 40.2055 81.0583C39.8814 80.0037 39.2275 79.0808 38.34 78.4253C37.4527 77.7696 36.3785 77.4157 35.2752 77.4155H35.2748Z" fill="#64C7CF"/>
<path d="M35.2749 87.7329C38.1239 87.7329 40.4336 85.4234 40.4336 82.5742C40.4336 79.7252 38.1239 77.4155 35.2749 77.4155C32.4259 77.4155 30.1162 79.7252 30.1162 82.5742C30.1162 85.4234 32.4259 87.7329 35.2749 87.7329Z" stroke="#363A5A" stroke-width="1.10757" stroke-miterlimit="10"/>
<path d="M37.6263 36.5479L52.4222 39.3525L49.0243 33.3804L36.7785 29.108C36.0702 28.861 35.3202 28.7558 34.5713 28.7986C33.8224 28.8414 33.0892 29.0314 32.4138 29.3576L5.50594 45.7021C5.3614 45.7943 5.25046 45.9305 5.18918 46.0905C5.12808 46.2506 5.12014 46.4261 5.16647 46.5912L9.50593 61.804L21.3364 58.8787L19.1637 50.1636L37.6263 36.5479Z" fill="#00BA34" fill-opacity="0.2" stroke="#00BA34" stroke-opacity="0.28" stroke-width="0.738379" stroke-linecap="round" stroke-linejoin="round"/>
<path d="M61.0732 74.2214L69.5164 76.3472L73.5984 85.7027L64.5028 84.2117L61.0732 74.2214Z" fill="#FDDCBF" stroke="#ECB072" stroke-width="0.738379" stroke-linecap="round" stroke-linejoin="round"/>
<path d="M88.7737 46.1967C81.9147 46.1967 76.3545 44.2076 76.3545 41.7537C76.3545 39.2999 81.9147 37.3105 88.7737 37.3105C95.6326 37.3105 101.193 39.2999 101.193 41.7537C101.193 44.2076 95.6325 46.1967 88.7737 46.1967Z" fill="#EAF4F7"/>
<path d="M92.671 71.3712L108.163 64.6272L114.284 83.2729L89.1969 97.5295L84.5986 84.5525L94.408 79.0348L92.671 71.3712Z" fill="#FDDCBF" stroke="#ECB072" stroke-width="0.738379" stroke-linecap="round" stroke-linejoin="round"/>
<path d="M107.058 20.0896C107.058 9.42007 98.3975 0.828294 87.9039 1.32707C78.508 1.77379 70.498 9.77818 70.498 19.4402C70.498 33.4172 88.7729 44.1944 88.7729 44.1944C88.7729 44.1944 107.058 33.4172 107.058 20.0896Z" fill="#60BBE0"/>
<path d="M95.4475 38.7862C94.0064 39.9103 92.2296 40.518 90.402 40.5118C88.5743 40.5055 86.8018 39.8856 85.3686 38.7515C79.96 34.4689 72.1374 26.6932 72.1374 17.5489C72.1509 13.6663 73.4351 9.89506 75.7939 6.81104C72.55 10.0869 70.498 14.5511 70.498 19.4405C70.498 33.4174 88.7729 44.1946 88.7729 44.1946C88.7729 44.1946 96.2257 39.8013 101.615 33.1558C99.7129 35.1943 97.6505 37.077 95.4475 38.7862Z" fill="#3CA9D4"/>
<path d="M87.9046 1.32707C84.6102 1.49671 81.4248 2.56422 78.6934 4.41404C80.8444 3.37681 83.1816 2.7813 85.5666 2.66316C96.0602 2.16476 104.72 10.756 104.72 21.4257C104.72 31.8756 93.4798 40.7572 88.6253 44.1056C88.7204 44.1636 88.773 44.1949 88.773 44.1949C88.773 44.1949 107.058 33.4172 107.058 20.0896C107.058 9.42007 98.3983 0.828294 87.9046 1.32707Z" fill="#B1DFE4"/>
<path d="M88.7726 27.275C87.2846 27.275 85.83 26.8339 84.5928 26.0072C83.3555 25.1804 82.3913 24.0055 81.8218 22.6308C81.2524 21.2561 81.1032 19.7434 81.3936 18.284C81.6838 16.8246 82.4004 15.484 83.4526 14.4319C84.5048 13.3797 85.8453 12.6633 87.3045 12.3729C88.7639 12.0825 90.2767 12.2315 91.6513 12.801C93.0262 13.3704 94.2011 14.3348 95.0278 15.5719C95.8546 16.8091 96.2957 18.2637 96.2957 19.7517C96.2957 21.747 95.5031 23.6605 94.0922 25.0713C92.6814 26.4822 90.7679 27.275 88.7726 27.275Z" fill="white"/>
<path d="M88.7726 27.275C87.2846 27.275 85.83 26.8339 84.5928 26.0072C83.3555 25.1804 82.3913 24.0055 81.8218 22.6308C81.2524 21.2561 81.1032 19.7434 81.3936 18.284C81.6838 16.8246 82.4004 15.484 83.4526 14.4319C84.5048 13.3797 85.8453 12.6633 87.3045 12.3729C88.7639 12.0825 90.2767 12.2315 91.6513 12.801C93.0262 13.3704 94.2011 14.3348 95.0278 15.5719C95.8546 16.8091 96.2957 18.2637 96.2957 19.7517C96.2957 21.747 95.5031 23.6605 94.0922 25.0713C92.6814 26.4822 90.7679 27.275 88.7726 27.275Z" stroke="#363A5A" stroke-width="1.10757" stroke-miterlimit="10"/>
<path d="M107.058 20.0896C107.058 9.42007 98.3975 0.828294 87.9039 1.32707C78.508 1.77379 70.498 9.77818 70.498 19.4402C70.498 33.4172 88.7729 44.1944 88.7729 44.1944C88.7729 44.1944 107.058 33.4172 107.058 20.0896Z" stroke="#363A5A" stroke-width="1.10757" stroke-linecap="round" stroke-linejoin="round"/>
</g>
<defs>
<clipPath id="clip0_289_2779">
<rect width="121" height="120" fill="white"/>
</clipPath>
</defs>
</svg>
