<svg width="34" height="35" viewBox="0 0 34 35" fill="none" xmlns="http://www.w3.org/2000/svg">
<rect width="34" height="34.1667" rx="17" fill="url(#paint0_linear_594_4374)"/>
<path d="M12.3146 24.0833V22.2594L15.8917 18.5229C16.6 17.7792 17.1431 17.1889 17.5208 16.7521C17.9104 16.3035 18.1819 15.9198 18.3354 15.601C18.4889 15.2823 18.5656 14.9576 18.5656 14.6271C18.5656 14.0722 18.3885 13.6354 18.0344 13.3167C17.692 12.9979 17.2493 12.8385 16.7062 12.8385C16.1396 12.8385 15.6497 13.0038 15.2365 13.3344C14.8233 13.6531 14.5222 14.1253 14.3333 14.751L12.226 14.0958C12.3677 13.3993 12.6569 12.7972 13.0937 12.2896C13.5306 11.7701 14.0618 11.3747 14.6875 11.1031C15.325 10.8198 15.9979 10.6781 16.7062 10.6781C17.5562 10.6781 18.3 10.8316 18.9375 11.1385C19.5868 11.4455 20.0885 11.8764 20.4427 12.4313C20.8087 12.9861 20.9917 13.6354 20.9917 14.3792C20.9917 14.8514 20.9031 15.3177 20.726 15.7781C20.549 16.2385 20.2833 16.7108 19.9292 17.1948C19.575 17.667 19.1146 18.1983 18.5479 18.7885L15.449 22.0469H21.1687V24.0833H12.3146Z" fill="white"/>
<defs>
<linearGradient id="paint0_linear_594_4374" x1="17" y1="0" x2="17" y2="34.1667" gradientUnits="userSpaceOnUse">
<stop stop-color="#60BBE0"/>
<stop offset="1" stop-color="#2E92BB"/>
</linearGradient>
</defs>
</svg>
