<svg width="34" height="35" viewBox="0 0 34 35" fill="none" xmlns="http://www.w3.org/2000/svg">
<rect width="34" height="34.1667" rx="17" fill="url(#paint0_linear_594_4369)"/>
<path d="M16.6885 24.2958C15.9684 24.2958 15.2837 24.166 14.6344 23.9063C13.9969 23.6347 13.4479 23.257 12.9875 22.7729C12.5389 22.2771 12.2319 21.6927 12.0667 21.0198L14.174 20.2761C14.3865 20.8781 14.7111 21.3386 15.1479 21.6573C15.5847 21.9642 16.0983 22.1177 16.6885 22.1177C17.1608 22.1177 17.5681 22.0292 17.9104 21.8521C18.2646 21.675 18.542 21.4212 18.7427 21.0906C18.9434 20.7483 19.0437 20.3469 19.0437 19.8865C19.0437 19.4261 18.9434 19.0365 18.7427 18.7177C18.5538 18.3872 18.2823 18.1333 17.9281 17.9563C17.574 17.7792 17.1549 17.6906 16.6708 17.6906C16.4465 17.6906 16.2104 17.7142 15.9625 17.7615C15.7264 17.8087 15.5139 17.8795 15.325 17.974L14.776 16.8229L18.1937 12.9271H12.8104V10.8906H20.9031V12.7854L17.4677 16.8052L17.5031 15.9021C18.2941 15.9139 18.9847 16.0851 19.575 16.4156C20.1653 16.7462 20.6257 17.2007 20.9563 17.7792C21.2868 18.3576 21.4521 19.0365 21.4521 19.8156C21.4521 20.6656 21.2455 21.433 20.8323 22.1177C20.4191 22.7906 19.8524 23.3219 19.1323 23.7115C18.4122 24.1011 17.5976 24.2958 16.6885 24.2958Z" fill="white"/>
<defs>
<linearGradient id="paint0_linear_594_4369" x1="17" y1="0" x2="17" y2="34.1667" gradientUnits="userSpaceOnUse">
<stop stop-color="#60BBE0"/>
<stop offset="1" stop-color="#2E92BB"/>
</linearGradient>
</defs>
</svg>
