<svg width="140" height="130" viewBox="0 0 140 130" fill="none" xmlns="http://www.w3.org/2000/svg">
<rect width="140" height="130" fill="white"/>
<g opacity="0.55">
<path opacity="0.55" d="M115.072 38.0095H128.696V46.1315H120.6" stroke="#474747" stroke-width="1.56" stroke-miterlimit="10" stroke-linecap="round" stroke-linejoin="round"/>
</g>
<path d="M4.14258 117.736H134.881" stroke="#E3E3E3" stroke-width="2.6" stroke-miterlimit="10" stroke-linecap="round" stroke-linejoin="round"/>
<path d="M40.3496 21.9224C40.3496 19.8526 42.0264 18.1758 44.0962 18.1758C46.166 18.1758 47.8428 19.8526 47.8428 21.9224H40.3496Z" fill="#60BBE0"/>
<path d="M40.3496 21.9224C40.3496 19.8526 42.0264 18.1758 44.0962 18.1758C46.166 18.1758 47.8428 19.8526 47.8428 21.9224H40.3496Z" fill="#60BBE0" stroke="#1D2D5A" stroke-width="2.08" stroke-miterlimit="10" stroke-linecap="round" stroke-linejoin="round"/>
<path d="M96.1836 21.9224C96.1836 19.8526 97.8604 18.1758 99.9302 18.1758C102 18.1758 103.677 19.8526 103.677 21.9224H96.1836Z" fill="#60BBE0"/>
<path d="M96.1836 21.9224C96.1836 19.8526 97.8604 18.1758 99.9302 18.1758C102 18.1758 103.677 19.8526 103.677 21.9224H96.1836Z" stroke="#1D2D5A" stroke-width="2.08" stroke-miterlimit="10" stroke-linecap="round" stroke-linejoin="round"/>
<path d="M101.449 25.1451C95.9728 25.1451 91.545 23.0491 88.9512 19.1453L87.2744 16.8921C83.816 12.2547 78.2092 9.50366 72.3142 9.50366H71.6854C65.7904 9.50366 60.2098 12.2547 56.7252 16.8921L55.0484 19.1453C51.8258 24.0185 45.7212 26.0621 38.3066 24.7521L38.8568 21.6605C42.4724 22.2893 49.0486 22.6037 52.4546 17.3899L52.507 17.3113L54.21 15.0319C58.271 9.60846 64.7948 6.38586 71.6854 6.38586H72.3142C79.2048 6.38586 85.7286 9.60846 89.7896 15.0319L91.5712 17.3899C94.9772 22.6037 101.553 22.3155 105.169 21.6605L105.719 24.7521C104.226 25.0141 102.811 25.1451 101.449 25.1451Z" fill="#60BBE0"/>
<path d="M101.449 25.1451C95.9728 25.1451 91.545 23.0491 88.9512 19.1453L87.2744 16.8921C83.816 12.2547 78.2092 9.50366 72.3142 9.50366H71.6854C65.7904 9.50366 60.2098 12.2547 56.7252 16.8921L55.0484 19.1453C51.8258 24.0185 45.7212 26.0621 38.3066 24.7521L38.8568 21.6605C42.4724 22.2893 49.0486 22.6037 52.4546 17.3899L52.507 17.3113L54.21 15.0319C58.271 9.60846 64.7948 6.38586 71.6854 6.38586H72.3142C79.2048 6.38586 85.7286 9.60846 89.7896 15.0319L91.5712 17.3899C94.9772 22.6037 101.553 22.3155 105.169 21.6605L105.719 24.7521C104.226 25.0141 102.811 25.1451 101.449 25.1451Z" stroke="#1D2D5A" stroke-width="2.6" stroke-miterlimit="10" stroke-linecap="round" stroke-linejoin="round"/>
<path d="M20.125 66.8553H15.1732L9.56641 103.797C9.56641 103.797 13.5226 101.937 14.8588 101.937C19.1032 101.937 20.1512 103.797 20.1512 103.797V66.8553H20.125Z" fill="#60BBE0"/>
<path d="M20.125 66.8553H15.1732L9.56641 103.797C9.56641 103.797 13.5226 101.937 14.8588 101.937C19.1032 101.937 20.1512 103.797 20.1512 103.797V66.8553H20.125Z" stroke="#43293A" stroke-width="2.6" stroke-miterlimit="10" stroke-linecap="round" stroke-linejoin="round"/>
<path d="M20.125 66.8553H15.1732L9.56641 103.797C9.56641 103.797 13.5226 101.937 14.8588 101.937C19.1032 101.937 20.1512 103.797 20.1512 103.797V66.8553H20.125Z" stroke="#1D2D5A" stroke-width="2.6" stroke-miterlimit="10" stroke-linecap="round" stroke-linejoin="round"/>
<path d="M19.4168 66.8555H15.1986L9.5918 103.797C9.5918 103.797 12.4214 102.487 14.0982 102.068L19.4168 66.8555Z" fill="#324782"/>
<path d="M19.4168 66.8555H15.1986L9.5918 103.797C9.5918 103.797 12.4214 102.487 14.0982 102.068L19.4168 66.8555Z" stroke="#1D2D5A" stroke-width="2.6" stroke-miterlimit="10" stroke-linecap="round" stroke-linejoin="round"/>
<path d="M123.878 66.8553H128.83L134.436 103.797C134.436 103.797 130.48 101.937 129.144 101.937C124.9 101.937 123.852 103.797 123.852 103.797V66.8553H123.878Z" fill="#60BBE0"/>
<path d="M123.878 66.8553H128.83L134.436 103.797C134.436 103.797 130.48 101.937 129.144 101.937C124.9 101.937 123.852 103.797 123.852 103.797V66.8553H123.878Z" stroke="#43293A" stroke-width="2.6" stroke-miterlimit="10" stroke-linecap="round" stroke-linejoin="round"/>
<path d="M123.878 66.8553H128.83L134.436 103.797C134.436 103.797 130.48 101.937 129.144 101.937C124.9 101.937 123.852 103.797 123.852 103.797V66.8553H123.878Z" stroke="#1D2D5A" stroke-width="2.6" stroke-miterlimit="10" stroke-linecap="round" stroke-linejoin="round"/>
<path d="M124.584 66.8553H128.802L134.409 103.797C134.409 103.797 131.579 102.487 129.903 102.068L124.584 66.8553Z" fill="#1D2D5A"/>
<path d="M124.584 66.8553H128.802L134.409 103.797C134.409 103.797 131.579 102.487 129.903 102.068L124.584 66.8553Z" stroke="#1D2D5A" stroke-width="2.6" stroke-miterlimit="10" stroke-linecap="round" stroke-linejoin="round"/>
<path d="M118.059 117.579H25.8349C22.3503 117.579 19.5469 114.775 19.5469 111.291V45.7909H124.347V111.291C124.347 114.775 121.543 117.579 118.059 117.579Z" fill="#324782"/>
<path opacity="0.48" d="M86.6708 100.47H57.3268C55.0212 100.47 53.1348 98.5837 53.1348 96.2781V85.6147H90.8628V96.2781C90.8628 98.6099 88.9764 100.47 86.6708 100.47Z" fill="#2C385A" stroke="white" stroke-opacity="0.17" stroke-width="2.6" stroke-miterlimit="10"/>
<path d="M75.119 98.8195C75.119 100.549 73.7304 101.937 72.0012 101.937C70.272 101.937 68.8834 100.549 68.8834 98.8195H66.5254C66.5254 101.832 68.9882 104.295 72.0012 104.295C75.0142 104.295 77.477 101.832 77.477 98.8195H75.119Z" fill="white"/>
<path d="M75.119 98.8195C75.119 100.549 73.7304 101.937 72.0012 101.937C70.272 101.937 68.8834 100.549 68.8834 98.8195H66.5254C66.5254 101.832 68.9882 104.295 72.0012 104.295C75.0142 104.295 77.477 101.832 77.477 98.8195H75.119Z" stroke="#1D2D5A" stroke-width="1.04" stroke-miterlimit="10" stroke-linecap="round" stroke-linejoin="round"/>
<path opacity="0.48" d="M118.112 114.618H25.8876C22.403 114.618 19.5996 111.815 19.5996 108.33V111.422C19.5996 114.906 22.403 117.71 25.8876 117.71H118.112C121.596 117.71 124.4 114.906 124.4 111.422V108.33C124.4 111.815 121.596 114.618 118.112 114.618Z" fill="#2C385A"/>
<path d="M124.4 75.5541V46.9698H19.5996V75.5541C21.0144 76.2353 22.534 76.733 24.1584 77.0737C37.8086 79.8246 52.7426 81.1085 71.1612 81.1085H72.838C91.2566 81.1085 106.191 79.8246 119.841 77.0737C121.465 76.733 122.985 76.2353 124.4 75.5541Z" fill="#2C385A"/>
<path d="M86.6708 98.6363H57.3268C55.0212 98.6363 53.1348 96.7499 53.1348 94.4443V83.7809H90.8628V94.4443C90.8628 96.7761 88.9764 98.6363 86.6708 98.6363Z" fill="#60BBE0"/>
<path opacity="0.45" d="M53.1348 89.5972C54.5758 90.9596 56.5146 91.798 58.6368 91.798H85.3608C87.483 91.798 89.4218 90.9596 90.8628 89.5972V84.8289H53.1348V89.5972Z" fill="#60BBE0"/>
<path d="M59.3453 95.7543H57.3279C56.4633 95.7543 55.7559 95.0469 55.7559 94.1823V86.1389" stroke="#43293A" stroke-width="0.78" stroke-miterlimit="10" stroke-linecap="round" stroke-linejoin="round" stroke-dasharray="1.3 1.3"/>
<path d="M88.243 91.5358V94.182C88.243 95.0466 87.5356 95.754 86.671 95.754H62.043" stroke="#43293A" stroke-width="0.78" stroke-miterlimit="10" stroke-linecap="round" stroke-linejoin="round" stroke-dasharray="1.3 1.3"/>
<path d="M86.6708 98.6363H57.3268C55.0212 98.6363 53.1348 96.7499 53.1348 94.4443V83.7809H90.8628V94.4443C90.8628 96.7761 88.9764 98.6363 86.6708 98.6363Z" stroke="#1D2D5A" stroke-width="2.6" stroke-miterlimit="10" stroke-linecap="round" stroke-linejoin="round"/>
<path d="M85.3637 89.1778H58.6397C55.1027 89.1778 52.2207 86.2958 52.2207 82.7588V76.366H91.7827V82.785C91.7827 86.322 88.9007 89.1778 85.3637 89.1778Z" fill="white"/>
<path opacity="0.84" d="M52.2207 80.558C58.1419 80.8986 64.4037 81.082 71.1633 81.082H72.8401C79.5735 81.082 85.8615 80.8986 91.7827 80.558V76.366H52.2207V80.558Z" fill="#E1E1E1"/>
<path d="M85.3637 89.1778H58.6397C55.1027 89.1778 52.2207 86.2958 52.2207 82.7588V76.366H91.7827V82.785C91.7827 86.322 88.9007 89.1778 85.3637 89.1778Z" stroke="#1D2D5A" stroke-width="2.6" stroke-miterlimit="10" stroke-linecap="round" stroke-linejoin="round"/>
<path d="M54.8398 82.4705V77.5449H89.1618V82.4705C89.1618 84.5665 87.4588 86.2695 85.3628 86.2695H58.6388C56.5428 86.2695 54.8398 84.5665 54.8398 82.4705Z" stroke="#43293A" stroke-width="0.78" stroke-miterlimit="10" stroke-linecap="round" stroke-linejoin="round" stroke-dasharray="1.3 1.3"/>
<path d="M118.112 117.71H25.8876C22.403 117.71 19.5996 114.906 19.5996 111.422V45.9219H124.4V111.422C124.4 114.906 121.596 117.71 118.112 117.71Z" stroke="#1D2D5A" stroke-width="2.6" stroke-miterlimit="10" stroke-linecap="round" stroke-linejoin="round"/>
<path d="M25.889 113.518C24.7362 113.518 23.793 112.575 23.793 111.422V50.1139H120.209V111.422C120.209 112.575 119.266 113.518 118.113 113.518H25.889Z" stroke="#1D2D5A" stroke-width="1.04" stroke-miterlimit="10" stroke-linecap="round" stroke-linejoin="round" stroke-dasharray="1.82 1.82"/>
<path d="M15.8 30.8304L12.263 56.6374C11.1626 64.6284 16.2978 71.781 24.6556 73.4578C40.0612 76.5494 55.9908 77.4664 71.999 77.4402C88.0072 77.4664 103.937 76.5756 119.342 73.4578C127.7 71.781 132.835 64.6284 131.735 56.6374L128.198 30.8304C127.753 27.5816 124.53 24.9354 120.836 24.752C88.243 23.2062 55.7812 23.2062 23.1884 24.752C19.4942 24.9354 16.2454 27.5816 15.8 30.8304Z" fill="#60BBE0"/>
<path opacity="0.55" d="M131.735 56.6374L128.198 30.8304C127.753 27.5816 124.53 24.9354 120.836 24.752C88.243 23.2062 55.7812 23.2062 23.1884 24.752C19.4942 24.9354 16.2716 27.5816 15.8262 30.8304L12.263 56.6374C11.1626 64.6284 16.2978 71.781 24.6556 73.4578C40.0612 76.5494 55.9908 77.4664 71.999 77.4402C88.0072 77.4664 103.937 76.5756 119.342 73.4578C127.674 71.781 132.809 64.6284 131.735 56.6374ZM119.316 73.5364C105.849 76.366 91.0988 77.676 72.8374 77.676H71.1344C52.873 77.676 38.1224 76.366 24.6556 73.5364C17.5554 72.043 13.1014 65.755 14.0446 58.6024L17.6078 31.433C17.896 29.206 20.2278 27.3196 22.7954 27.1886C39.1442 26.3764 55.6764 25.9572 71.9728 25.9572C88.2692 25.9572 104.828 26.3764 121.15 27.1886C123.718 27.3196 126.05 29.2322 126.338 31.433L129.901 58.6024C130.897 65.755 126.416 72.043 119.316 73.5364Z" fill="#48A0C3"/>
<path opacity="0.45" d="M119.344 70.9427C103.939 74.0343 88.009 74.9513 72.0008 74.9251C55.9926 74.9513 40.063 74.0605 24.6574 70.9427C17.5048 69.5017 12.7102 64.0521 12.16 57.5021C11.5312 65.1525 16.5878 71.8335 24.6574 73.4579C40.063 76.5495 55.9926 77.4665 72.0008 77.4403C88.009 77.4665 103.939 76.5757 119.344 73.4579C127.388 71.8335 132.444 65.1525 131.842 57.5021C131.291 64.0521 126.497 69.5017 119.344 70.9427Z" fill="#53ACD0"/>
<path d="M15.8 30.8304L12.263 56.6374C11.1626 64.6284 16.2978 71.781 24.6556 73.4578C40.0612 76.5494 55.9908 77.4664 71.999 77.4402C88.0072 77.4664 103.937 76.5756 119.342 73.4578C127.7 71.781 132.835 64.6284 131.735 56.6374L128.198 30.8304C127.753 27.5816 124.53 24.9354 120.836 24.752C88.243 23.2062 55.7812 23.2062 23.1884 24.752C19.4942 24.9354 16.2454 27.5816 15.8 30.8304Z" stroke="#1D2D5A" stroke-width="2.6" stroke-miterlimit="10" stroke-linecap="round" stroke-linejoin="round"/>
<path d="M71.1609 73.2219C53.2139 73.2219 38.6991 71.9905 25.4943 69.3181C19.3373 68.0867 15.6169 63.0825 16.4291 57.1875L19.9661 31.3805C20.1233 30.2801 21.5643 29.0225 23.3721 28.9177C39.5113 28.1579 55.8863 27.7649 71.9993 27.7649C88.1123 27.7649 104.461 28.1579 120.626 28.9177C122.46 28.9963 123.875 30.2801 124.032 31.3805L127.569 57.1875C128.382 63.1087 124.661 68.0867 118.504 69.3181C105.299 71.9905 90.7847 73.2219 72.8377 73.2219H71.1609Z" stroke="#43293A" stroke-width="1.04" stroke-linecap="round" stroke-linejoin="round" stroke-dasharray="1.82 1.82"/>
<path d="M42.0012 121.483C39.4074 121.483 37.2852 119.361 37.2852 116.767V50.507H46.7172V116.767C46.7172 119.361 44.6212 121.483 42.0012 121.483Z" fill="white"/>
<path d="M46.7172 50.507H37.2852V53.913H46.7172V50.507Z" fill="#43293A"/>
<path opacity="0.78" d="M46.7172 68.8206H37.2852V73.5366H46.7172V68.8206Z" fill="#D9D9D9"/>
<path d="M42.0012 121.483C39.4074 121.483 37.2852 119.361 37.2852 116.767V50.507H46.7172V116.767C46.7172 119.361 44.6212 121.483 42.0012 121.483Z" stroke="#43293A" stroke-width="2.6" stroke-miterlimit="10" stroke-linecap="round" stroke-linejoin="round"/>
<path d="M34.1406 65.6766V80.0866H37.2846V76.9426V75.6588V68.8206H46.7166V75.6588V76.9426V80.0866H49.8606V65.6766H34.1406Z" fill="white"/>
<path d="M47.3204 65.6766H36.7356C35.3208 65.6766 34.168 66.8294 34.168 68.2442V77.519C34.168 78.9338 35.3208 80.0866 36.7356 80.0866H37.312V76.9426V73.5366V68.8206H46.744V73.5366V76.9426V80.0866H47.3204C48.7352 80.0866 49.888 78.9338 49.888 77.519V68.2442C49.8618 66.8294 48.7352 65.6766 47.3204 65.6766Z" stroke="#43293A" stroke-width="2.08" stroke-miterlimit="10" stroke-linecap="round" stroke-linejoin="round"/>
<path d="M42.0015 62.0086C42.7975 62.0086 43.4425 61.3635 43.4425 60.5676C43.4425 59.7719 42.7975 59.1266 42.0015 59.1266C41.2056 59.1266 40.5605 59.7719 40.5605 60.5676C40.5605 61.3635 41.2056 62.0086 42.0015 62.0086Z" fill="white"/>
<path d="M42.0015 62.0086C42.7975 62.0086 43.4425 61.3635 43.4425 60.5676C43.4425 59.7719 42.7975 59.1266 42.0015 59.1266C41.2056 59.1266 40.5605 59.7719 40.5605 60.5676C40.5605 61.3635 41.2056 62.0086 42.0015 62.0086Z" stroke="#43293A" stroke-width="1.04" stroke-miterlimit="10" stroke-linecap="round" stroke-linejoin="round"/>
<path d="M42.0015 76.1043C42.7975 76.1043 43.4425 75.4592 43.4425 74.6633C43.4425 73.8673 42.7975 73.2223 42.0015 73.2223C41.2056 73.2223 40.5605 73.8673 40.5605 74.6633C40.5605 75.4592 41.2056 76.1043 42.0015 76.1043Z" fill="white"/>
<path d="M42.0015 76.4972C42.7975 76.4972 43.4425 75.8522 43.4425 75.0562C43.4425 74.2603 42.7975 73.6152 42.0015 73.6152C41.2056 73.6152 40.5605 74.2603 40.5605 75.0562C40.5605 75.8522 41.2056 76.4972 42.0015 76.4972Z" stroke="#43293A" stroke-width="1.04" stroke-miterlimit="10" stroke-linecap="round" stroke-linejoin="round"/>
<path d="M42.0015 95.1517C42.7975 95.1517 43.4425 94.5066 43.4425 93.7107C43.4425 92.915 42.7975 92.2697 42.0015 92.2697C41.2056 92.2697 40.5605 92.915 40.5605 93.7107C40.5605 94.5066 41.2056 95.1517 42.0015 95.1517Z" fill="#60BBE0"/>
<path d="M42.0015 95.1517C42.7975 95.1517 43.4425 94.5066 43.4425 93.7107C43.4425 92.915 42.7975 92.2697 42.0015 92.2697C41.2056 92.2697 40.5605 92.915 40.5605 93.7107C40.5605 94.5066 41.2056 95.1517 42.0015 95.1517Z" stroke="#43293A" stroke-width="1.04" stroke-miterlimit="10" stroke-linecap="round" stroke-linejoin="round"/>
<path d="M42.0015 104.479C42.7975 104.479 43.4425 103.834 43.4425 103.038C43.4425 102.242 42.7975 101.597 42.0015 101.597C41.2056 101.597 40.5605 102.242 40.5605 103.038C40.5605 103.834 41.2056 104.479 42.0015 104.479Z" fill="#60BBE0"/>
<path d="M42.0015 104.479C42.7975 104.479 43.4425 103.834 43.4425 103.038C43.4425 102.242 42.7975 101.597 42.0015 101.597C41.2056 101.597 40.5605 102.242 40.5605 103.038C40.5605 103.834 41.2056 104.479 42.0015 104.479Z" stroke="#43293A" stroke-width="1.04" stroke-miterlimit="10" stroke-linecap="round" stroke-linejoin="round"/>
<path d="M42.0011 76.1043C41.4247 76.1043 40.9531 75.6327 40.9531 75.0563V66.6985C40.9531 66.1221 41.4247 65.6505 42.0011 65.6505C42.5775 65.6505 43.0491 66.1221 43.0491 66.6985V75.0563C43.0491 75.6589 42.6037 76.1043 42.0011 76.1043Z" fill="white"/>
<path d="M42.0011 76.1043C41.4247 76.1043 40.9531 75.6327 40.9531 75.0563V66.6985C40.9531 66.1221 41.4247 65.6505 42.0011 65.6505C42.5775 65.6505 43.0491 66.1221 43.0491 66.6985V75.0563C43.0491 75.6589 42.6037 76.1043 42.0011 76.1043Z" stroke="#43293A" stroke-width="1.04" stroke-miterlimit="10" stroke-linecap="round" stroke-linejoin="round"/>
<path d="M101.999 121.483C99.4054 121.483 97.2832 119.361 97.2832 116.767V50.507H106.715V116.767C106.715 119.361 104.593 121.483 101.999 121.483Z" fill="white"/>
<path opacity="0.78" d="M106.401 68.8993H96.9688V73.6153H106.401V68.8993Z" fill="#D9D9D9"/>
<path d="M101.999 121.483C99.4054 121.483 97.2832 119.361 97.2832 116.767V50.507H106.715V116.767C106.715 119.361 104.593 121.483 101.999 121.483Z" stroke="#43293A" stroke-width="2.6" stroke-miterlimit="10" stroke-linecap="round" stroke-linejoin="round"/>
<path d="M94.1406 65.6766V80.0866H97.2846V76.9426V75.6588V68.8206H106.717V75.6588V76.9426V80.0866H109.861V65.6766H94.1406Z" fill="white"/>
<path d="M107.293 65.6766H96.7082C95.2934 65.6766 94.1406 66.8294 94.1406 68.2442V77.519C94.1406 78.9338 95.2934 80.0866 96.7082 80.0866H97.2846V76.9426V73.5366V68.8206H106.717V73.5366V76.9426V80.0866H107.293C108.708 80.0866 109.861 78.9338 109.861 77.519V68.2442C109.861 66.8294 108.708 65.6766 107.293 65.6766Z" stroke="#43293A" stroke-width="2.08" stroke-miterlimit="10" stroke-linecap="round" stroke-linejoin="round"/>
<path d="M102 62.0086C102.796 62.0086 103.441 61.3635 103.441 60.5676C103.441 59.7719 102.796 59.1266 102 59.1266C101.204 59.1266 100.559 59.7719 100.559 60.5676C100.559 61.3635 101.204 62.0086 102 62.0086Z" fill="white"/>
<path d="M102 62.0086C102.796 62.0086 103.441 61.3635 103.441 60.5676C103.441 59.7719 102.796 59.1266 102 59.1266C101.204 59.1266 100.559 59.7719 100.559 60.5676C100.559 61.3635 101.204 62.0086 102 62.0086Z" stroke="#43293A" stroke-width="1.04" stroke-miterlimit="10" stroke-linecap="round" stroke-linejoin="round"/>
<path d="M102 76.1043C102.796 76.1043 103.441 75.4592 103.441 74.6633C103.441 73.8673 102.796 73.2223 102 73.2223C101.204 73.2223 100.559 73.8673 100.559 74.6633C100.559 75.4592 101.204 76.1043 102 76.1043Z" fill="white"/>
<path d="M102 76.4972C102.796 76.4972 103.441 75.8522 103.441 75.0562C103.441 74.2603 102.796 73.6152 102 73.6152C101.204 73.6152 100.559 74.2603 100.559 75.0562C100.559 75.8522 101.204 76.4972 102 76.4972Z" stroke="#43293A" stroke-width="1.04" stroke-miterlimit="10" stroke-linecap="round" stroke-linejoin="round"/>
<path d="M102 95.1517C102.796 95.1517 103.441 94.5066 103.441 93.7107C103.441 92.915 102.796 92.2697 102 92.2697C101.204 92.2697 100.559 92.915 100.559 93.7107C100.559 94.5066 101.204 95.1517 102 95.1517Z" fill="#60BBE0"/>
<path d="M102 95.1517C102.796 95.1517 103.441 94.5066 103.441 93.7107C103.441 92.915 102.796 92.2697 102 92.2697C101.204 92.2697 100.559 92.915 100.559 93.7107C100.559 94.5066 101.204 95.1517 102 95.1517Z" stroke="#43293A" stroke-width="1.04" stroke-miterlimit="10" stroke-linecap="round" stroke-linejoin="round"/>
<path d="M102 104.479C102.796 104.479 103.441 103.834 103.441 103.038C103.441 102.242 102.796 101.597 102 101.597C101.204 101.597 100.559 102.242 100.559 103.038C100.559 103.834 101.204 104.479 102 104.479Z" fill="#60BBE0"/>
<path d="M102 104.479C102.796 104.479 103.441 103.834 103.441 103.038C103.441 102.242 102.796 101.597 102 101.597C101.204 101.597 100.559 102.242 100.559 103.038C100.559 103.834 101.204 104.479 102 104.479Z" stroke="#43293A" stroke-width="1.04" stroke-miterlimit="10" stroke-linecap="round" stroke-linejoin="round"/>
<path d="M101.999 76.1043C101.423 76.1043 100.951 75.6327 100.951 75.0563V66.6985C100.951 66.1221 101.423 65.6505 101.999 65.6505C102.576 65.6505 103.047 66.1221 103.047 66.6985V75.0563C103.021 75.6589 102.576 76.1043 101.999 76.1043Z" fill="white"/>
<path d="M101.999 76.1043C101.423 76.1043 100.951 75.6327 100.951 75.0563V66.6985C100.951 66.1221 101.423 65.6505 101.999 65.6505C102.576 65.6505 103.047 66.1221 103.047 66.6985V75.0563C103.021 75.6589 102.576 76.1043 101.999 76.1043Z" stroke="#43293A" stroke-width="1.04" stroke-miterlimit="10" stroke-linecap="round" stroke-linejoin="round"/>
<path d="M106.715 50.507H97.2832V53.913H106.715V50.507Z" fill="#43293A"/>
<path opacity="0.84" d="M72.6555 84.0952C73.4803 84.0952 74.1489 83.4266 74.1489 82.6018C74.1489 81.777 73.4803 81.1084 72.6555 81.1084C71.8307 81.1084 71.1621 81.777 71.1621 82.6018C71.1621 83.4266 71.8307 84.0952 72.6555 84.0952Z" fill="#60BBE0"/>
<path d="M72.6555 84.0952C73.4803 84.0952 74.1489 83.4266 74.1489 82.6018C74.1489 81.777 73.4803 81.1084 72.6555 81.1084C71.8307 81.1084 71.1621 81.777 71.1621 82.6018C71.1621 83.4266 71.8307 84.0952 72.6555 84.0952Z" stroke="#43293A" stroke-width="1.04" stroke-miterlimit="10" stroke-linecap="round" stroke-linejoin="round"/>
<path d="M79.0731 54.9344C79.1255 54.2532 78.7325 53.5982 78.1037 53.31C76.4531 52.5502 74.5929 52.131 72.6541 52.131C70.7153 52.131 68.8551 52.5502 67.2045 53.31C66.5757 53.5982 66.1827 54.2532 66.2351 54.9344C66.5495 58.9168 68.6193 62.4014 71.6847 64.576C72.2611 64.9952 73.0209 64.9952 73.5973 64.576C76.6889 62.4014 78.7587 58.9168 79.0731 54.9344Z" fill="white"/>
<path opacity="0.75" d="M73.624 61.6941C73.0476 62.1133 72.2878 62.1133 71.7114 61.6941C69.1176 59.8601 67.2574 57.0829 66.55 53.8865C66.3404 54.1747 66.2356 54.5415 66.2618 54.9345C66.5762 58.9169 68.646 62.4015 71.7114 64.5761C72.2878 64.9953 73.0476 64.9953 73.624 64.5761C76.6894 62.3753 78.7854 58.9169 79.0736 54.9345C79.0998 54.5677 78.995 54.2009 78.7854 53.8865C78.078 57.1091 76.1916 59.8601 73.624 61.6941Z" fill="#E1E1E1"/>
<path d="M79.0731 54.9344C79.1255 54.2532 78.7325 53.5982 78.1037 53.31C76.4531 52.5502 74.5929 52.131 72.6541 52.131C70.7153 52.131 68.8551 52.5502 67.2045 53.31C66.5757 53.5982 66.1827 54.2532 66.2351 54.9344C66.5495 58.9168 68.6193 62.4014 71.6847 64.576C72.2611 64.9952 73.0209 64.9952 73.5973 64.576C76.6889 62.4014 78.7587 58.9168 79.0731 54.9344Z" stroke="#43293A" stroke-width="1.3" stroke-miterlimit="10" stroke-linecap="round" stroke-linejoin="round"/>
<path d="M69.7988 54.5937C70.7158 54.3317 71.6852 54.2269 72.6546 54.2269C73.624 54.2269 74.5934 54.3579 75.5104 54.5937C76.375 54.8295 76.899 55.7203 76.6894 56.5849C76.4274 57.6067 76.0344 58.5761 75.5104 59.4931" stroke="#43293A" stroke-width="0.78" stroke-miterlimit="10" stroke-linecap="round" stroke-linejoin="round"/>
</svg>
