<svg width="20" height="21" viewBox="0 0 20 21" fill="none" xmlns="http://www.w3.org/2000/svg">
<g clip-path="url(#clip0_983_5695)">
<path fill-rule="evenodd" clip-rule="evenodd" d="M9.21852 2.5575C9.42355 2.39354 9.67501 2.2983 9.93722 2.28529C10.1994 2.27227 10.4591 2.34215 10.6793 2.485L10.7802 2.5575L14.3735 5.4325C14.5488 5.57262 14.694 5.74671 14.8004 5.94432C14.9068 6.14194 14.9722 6.359 14.9927 6.5825L14.9993 6.73333V16.3333H15.8327V9.25C15.8326 9.15248 15.8668 9.05804 15.9293 8.98312C15.9917 8.9082 16.0784 8.85755 16.1743 8.84L16.2493 8.83333H16.666C17.0865 8.8332 17.4915 8.99201 17.7998 9.27792C18.1081 9.56382 18.297 9.95571 18.3285 10.375L18.3327 10.5V17.0833C18.3326 17.3091 18.2492 17.5268 18.0985 17.6949C17.9478 17.863 17.7404 17.9695 17.516 17.9942L17.416 18H2.58268C2.3568 18.0001 2.13883 17.9168 1.97058 17.7661C1.80233 17.6154 1.69566 17.4079 1.67102 17.1833L1.66602 17.0833V10.5C1.66588 10.0795 1.82469 9.67453 2.1106 9.36621C2.39651 9.05789 2.78839 8.86904 3.20768 8.8375L3.33268 8.83333H3.74935C3.84687 8.8333 3.94131 8.86748 4.01623 8.92991C4.09115 8.99234 4.1418 9.07907 4.15935 9.175L4.16602 9.25V16.3333H4.99935V6.73333C4.99933 6.5089 5.04465 6.28678 5.13257 6.08029C5.22049 5.8738 5.34922 5.6872 5.51102 5.53167L5.62518 5.43167L9.21852 2.5575ZM9.99935 7.99917C9.55732 7.99917 9.1334 8.17476 8.82084 8.48732C8.50828 8.79988 8.33268 9.22381 8.33268 9.66583C8.33268 10.1079 8.50828 10.5318 8.82084 10.8443C9.1334 11.1569 9.55732 11.3325 9.99935 11.3325C10.4414 11.3325 10.8653 11.1569 11.1779 10.8443C11.4904 10.5318 11.666 10.1079 11.666 9.66583C11.666 9.22381 11.4904 8.79988 11.1779 8.48732C10.8653 8.17476 10.4414 7.99917 9.99935 7.99917Z" fill="#1D2D5A"/>
</g>
<defs>
<clipPath id="clip0_983_5695">
<rect width="20" height="20" fill="white" transform="translate(0 0.5)"/>
</clipPath>
</defs>
</svg>
