<svg width="24" height="25" viewBox="0 0 24 25" fill="none" xmlns="http://www.w3.org/2000/svg">
<path d="M20.0004 20.1616L15.9504 16.1116M15.9504 16.1116C16.6004 15.4616 17.116 14.6899 17.4678 13.8406C17.8196 12.9912 18.0007 12.0809 18.0007 11.1616C18.0007 10.2423 17.8196 9.33204 17.4678 8.48272C17.116 7.6334 16.6004 6.86169 15.9504 6.21164C15.3003 5.5616 14.5286 5.04596 13.6793 4.69416C12.83 4.34235 11.9197 4.16129 11.0004 4.16129C10.0811 4.16129 9.17076 4.34235 8.32144 4.69416C7.47211 5.04596 6.7004 5.5616 6.05036 6.21164C4.73754 7.52446 4 9.30503 4 11.1616C4 13.0183 4.73754 14.7988 6.05036 16.1116C7.36318 17.4245 9.14375 18.162 11.0004 18.162C12.857 18.162 14.6375 17.4245 15.9504 16.1116Z" stroke="#60BBE0" stroke-width="2" stroke-linecap="round" stroke-linejoin="round"/>
</svg>
