<svg width="20" height="21" viewBox="0 0 20 21" fill="none" xmlns="http://www.w3.org/2000/svg">
<path opacity="0.4" d="M15.3169 11.2V15.3083C15.3169 16.3667 14.4919 17.5 13.5003 17.8333L10.8419 18.7167C10.3753 18.875 9.61693 18.875 9.15859 18.7167L6.50026 17.8333C5.50026 17.5 4.68359 16.3667 4.68359 15.3083L4.69193 11.2L8.37526 13.6C9.27526 14.1917 10.7586 14.1917 11.6586 13.6L15.3169 11.2Z" fill="#1D2D5A"/>
<path d="M16.6493 5.88333L11.6576 2.60833C10.7576 2.01666 9.27428 2.01666 8.37428 2.60833L3.35762 5.88333C1.74928 6.925 1.74928 9.28333 3.35762 10.3333L4.69095 11.2L8.37428 13.6C9.27428 14.1917 10.7576 14.1917 11.6576 13.6L15.3159 11.2L16.4576 10.45V13C16.4576 13.3417 16.7409 13.625 17.0826 13.625C17.4243 13.625 17.7076 13.3417 17.7076 13V8.9C18.0409 7.825 17.6993 6.575 16.6493 5.88333Z" fill="#1D2D5A"/>
</svg>
