<svg width="39" height="39" viewBox="0 0 39 39" fill="none" xmlns="http://www.w3.org/2000/svg">
<rect width="39" height="39" rx="10" fill="#86CBE7"/>
<rect x="0.5" y="0.5" width="38" height="38" rx="9.5" stroke="white" stroke-opacity="0.15"/>
<path d="M27.3496 15.2912C27.2358 15.015 27.0083 14.7875 26.7321 14.6737C26.6021 14.625 26.4558 14.5925 26.3096 14.5925H23.2871C22.6533 14.5925 22.1496 15.0962 22.1496 15.73C22.1496 16.3637 22.6533 16.8675 23.2871 16.8675H23.5796L20.1508 20.2962L18.4933 17.8262C18.2983 17.55 18.0058 17.355 17.6646 17.3225C17.3071 17.29 16.9983 17.4037 16.7546 17.6475L11.9121 22.49C11.4733 22.9287 11.4733 23.6437 11.9121 24.0987C12.1396 24.3262 12.4158 24.4237 12.7083 24.4237C13.0008 24.4237 13.2933 24.31 13.5046 24.0987L17.3721 20.2312L19.0296 22.7012C19.2246 22.9775 19.5171 23.1725 19.8583 23.205C20.2158 23.2375 20.5246 23.1237 20.7683 22.88L25.1883 18.46V18.7525C25.1883 19.3862 25.6921 19.89 26.3258 19.89C26.9596 19.89 27.4633 19.3862 27.4633 18.7525V15.7137C27.4308 15.5675 27.4146 15.4212 27.3496 15.2912Z" fill="white"/>
</svg>
