<svg width="140" height="130" viewBox="0 0 140 130" fill="none" xmlns="http://www.w3.org/2000/svg">
<g clip-path="url(#clip0_480_4405)">
<rect width="140" height="130" fill="white"/>
<g clip-path="url(#clip1_480_4405)">
<path d="M75.9416 89.2953L109.149 21.1867L76.2769 5.16443L43.0693 73.2733L75.9416 89.2953Z" fill="#5EDC81"/>
<path d="M75.9416 89.2953L109.149 21.1867L76.2769 5.16443L43.0693 73.2733L75.9416 89.2953Z" stroke="#474747" stroke-width="1.662" stroke-miterlimit="10" stroke-linecap="round" stroke-linejoin="round"/>
<path d="M96.1412 19.4904L85.6209 14.3569C83.6326 18.4587 78.6996 20.1447 74.5972 18.1567L48.6738 71.3033L74.0183 83.6588L99.9416 30.5123C95.8392 28.5243 94.1277 23.5922 96.1412 19.4904Z" fill="#F6F9EA"/>
<path d="M96.1412 19.4904L85.6209 14.3569C83.6326 18.4587 78.6996 20.1447 74.5972 18.1567L48.6738 71.3033L74.0183 83.6588L99.9416 30.5123C95.8392 28.5243 94.1277 23.5922 96.1412 19.4904Z" stroke="#474747" stroke-width="1.662" stroke-miterlimit="10" stroke-linecap="round" stroke-linejoin="round"/>
<path d="M103.549 23.1044L78.2108 10.7544L48.6758 71.3306L74.0144 83.6807L103.549 23.1044Z" stroke="#474747" stroke-width="1.662" stroke-miterlimit="10" stroke-linecap="round" stroke-linejoin="round"/>
<path d="M78.623 50.5429C83.3906 50.5429 87.2557 46.6788 87.2557 41.9117C87.2557 37.1448 83.3906 33.2804 78.623 33.2804C73.8553 33.2804 69.9902 37.1448 69.9902 41.9117C69.9902 46.6788 73.8553 50.5429 78.623 50.5429Z" fill="#77BA85"/>
<path d="M78.623 50.543C83.3906 50.543 87.2557 46.6788 87.2557 41.9117C87.2557 37.1448 83.3906 33.2804 78.623 33.2804C73.8553 33.2804 69.9902 37.1448 69.9902 41.9117C69.9902 46.6788 73.8553 50.543 78.623 50.543Z" stroke="#474747" stroke-width="1.662" stroke-miterlimit="10" stroke-linecap="round" stroke-linejoin="round"/>
<path opacity="0.15" d="M2.32031 114.736L139.434 114.736" stroke="#474747" stroke-width="1.662" stroke-miterlimit="10" stroke-linecap="round" stroke-linejoin="round"/>
<path d="M80.8128 114.812H27.9594C19.6287 114.812 12.8584 108.043 12.8584 99.7135V40.3262C12.8584 31.9969 19.6287 25.2278 27.9594 25.2278H80.8128C89.1434 25.2278 95.9137 31.9969 95.9137 40.3262V99.7135C95.9137 108.068 89.1686 114.812 80.8128 114.812Z" fill="#F58870"/>
<path d="M80.8128 114.812H27.9594C19.6287 114.812 12.8584 108.043 12.8584 99.7135V40.3262C12.8584 31.9969 19.6287 25.2278 27.9594 25.2278H80.8128C89.1434 25.2278 95.9137 31.9969 95.9137 40.3262V99.7135C95.9137 108.068 89.1686 114.812 80.8128 114.812Z" fill="#60BBE0"/>
<path d="M80.8128 111.767H27.9594C19.6287 111.767 12.8584 104.998 12.8584 96.6688V99.7137C12.8584 108.043 19.6287 114.812 27.9594 114.812H80.8128C89.1434 114.812 95.9137 108.043 95.9137 99.7137V96.6688C95.9137 104.998 89.1686 111.767 80.8128 111.767Z" fill="#77D8FF"/>
<path d="M80.8128 25.2278H27.9594C19.6287 25.2278 12.8584 31.4433 12.8584 39.0932V42.3394C12.8584 34.6895 19.6287 28.4739 27.9594 28.4739H80.8128C89.1434 28.4739 95.9137 34.6895 95.9137 42.3394V39.0932C95.9137 31.4433 89.1686 25.2278 80.8128 25.2278Z" fill="#77D8FF"/>
<path opacity="0.3" d="M63.1944 62.0932H49.6035C47.1119 62.0932 45.0732 60.0549 45.0732 57.5636V29.7573C45.0732 27.2661 47.1119 25.2278 49.6035 25.2278H67.7247V57.5636C67.7247 60.0549 65.7112 62.0932 63.1944 62.0932Z" fill="#474747" stroke="#474747" stroke-width="1.662" stroke-miterlimit="10" stroke-linecap="round" stroke-linejoin="round"/>
<path d="M80.8128 114.812H27.9594C19.6287 114.812 12.8584 108.043 12.8584 99.7135V40.3262C12.8584 31.9969 19.6287 25.2278 27.9594 25.2278H80.8128C89.1434 25.2278 95.9137 31.9969 95.9137 40.3262V99.7135C95.9137 108.068 89.1686 114.812 80.8128 114.812Z" stroke="#1D2D5A" stroke-width="1.662" stroke-miterlimit="10" stroke-linecap="round" stroke-linejoin="round"/>
<g opacity="0.46">
<path opacity="0.46" d="M18.3955 99.336V40.7037C18.3955 35.4193 22.6741 31.1414 27.9595 31.1414H80.8129C86.0982 31.1414 90.3768 35.4193 90.3768 40.7037V99.3108C90.3768 104.595 86.0982 108.873 80.8129 108.873H27.9595C22.6741 108.898 18.3955 104.62 18.3955 99.336Z" stroke="#474747" stroke-width="1.108" stroke-linecap="round" stroke-linejoin="round" stroke-dasharray="3.87 3.87"/>
</g>
<path d="M61.1817 59.3252H47.5908C45.0992 59.3252 43.0605 57.2869 43.0605 54.7956V24.0955C43.0605 21.6042 45.0992 19.5659 47.5908 19.5659H61.1817C63.6734 19.5659 65.712 21.6042 65.712 24.0955V54.7956C65.712 57.2869 63.6985 59.3252 61.1817 59.3252Z" fill="#60BBE0"/>
<path d="M61.1817 57.2366H47.5908C45.0992 57.2366 43.0605 55.1983 43.0605 52.707V54.7957C43.0605 57.2869 45.0992 59.3252 47.5908 59.3252H61.1817C63.6734 59.3252 65.712 57.2869 65.712 54.7957V52.707C65.712 55.1983 63.6985 57.2366 61.1817 57.2366Z" fill="#2B99C5"/>
<path d="M61.1817 19.5659H47.5908C45.0992 19.5659 43.0605 21.6042 43.0605 24.0955V25.8066C43.0605 23.3154 45.0992 21.2771 47.5908 21.2771H61.1817C63.6734 21.2771 65.712 23.3154 65.712 25.8066V24.0955C65.712 21.6042 63.6985 19.5659 61.1817 19.5659Z" fill="#77D8FF"/>
<path d="M61.1817 59.3252H47.5908C45.0992 59.3252 43.0605 57.2869 43.0605 54.7956V24.0955C43.0605 21.6042 45.0992 19.5659 47.5908 19.5659H61.1817C63.6734 19.5659 65.712 21.6042 65.712 24.0955V54.7956C65.712 57.2869 63.6985 59.3252 61.1817 59.3252Z" stroke="#1D2D5A" stroke-width="1.662" stroke-miterlimit="10" stroke-linecap="round" stroke-linejoin="round"/>
<path opacity="0.3" d="M55.1408 52.8329C58.3656 52.8329 60.9798 50.2191 60.9798 46.9948C60.9798 43.7705 58.3656 41.1567 55.1408 41.1567C51.916 41.1567 49.3018 43.7705 49.3018 46.9948C49.3018 50.2191 51.916 52.8329 55.1408 52.8329Z" fill="#474747" stroke="#474747" stroke-width="1.662" stroke-miterlimit="10" stroke-linecap="round" stroke-linejoin="round"/>
<g opacity="0.46">
<path opacity="0.46" d="M47.5892 56.3056C46.7586 56.3056 46.0791 55.6261 46.0791 54.7957V24.0955C46.0791 23.2651 46.7586 22.5857 47.5892 22.5857H61.1801C62.0106 22.5857 62.6902 23.2651 62.6902 24.0955V54.7957C62.6902 55.6261 62.0106 56.3056 61.1801 56.3056H47.5892Z" stroke="#474747" stroke-width="1.108" stroke-linecap="round" stroke-linejoin="round" stroke-dasharray="2.73 2.73"/>
</g>
<path d="M54.3849 51.323C57.6097 51.323 60.224 48.7092 60.224 45.4849C60.224 42.2606 57.6097 39.6469 54.3849 39.6469C51.1601 39.6469 48.5459 42.2606 48.5459 45.4849C48.5459 48.7092 51.1601 51.323 54.3849 51.323Z" fill="#23325E"/>
<path d="M54.3849 51.323C57.6097 51.323 60.224 48.7092 60.224 45.4849C60.224 42.2606 57.6097 39.6469 54.3849 39.6469C51.1601 39.6469 48.5459 42.2606 48.5459 45.4849C48.5459 48.7092 51.1601 51.323 54.3849 51.323Z" stroke="#1D2D5A" stroke-width="1.662" stroke-miterlimit="10" stroke-linecap="round" stroke-linejoin="round"/>
<g opacity="0.6">
<path opacity="0.1" d="M56.8521 42.4905C57.0534 43.4467 55.9208 44.0509 54.2597 44.4032C52.5735 44.7304 51.0634 44.7807 50.862 43.9754C50.6607 43.1954 51.7933 41.7104 53.4544 41.2323C55.1406 40.7542 56.6507 41.5594 56.8521 42.4905Z" fill="white"/>
</g>
<path d="M127.383 114.437H109.765C108.758 114.437 107.928 113.606 107.928 112.6V111.367C107.928 110.36 108.758 109.53 109.765 109.53H127.383C128.39 109.53 129.22 110.36 129.22 111.367V112.6C129.22 113.631 128.39 114.437 127.383 114.437Z" fill="#FDB740"/>
<path opacity="0.88" d="M127.383 110.058H109.765C108.758 110.058 107.928 110.888 107.928 111.895V112.6C107.928 111.593 108.758 110.763 109.765 110.763H127.383C128.39 110.763 129.22 111.593 129.22 112.6V111.895C129.22 110.888 128.39 110.058 127.383 110.058Z" fill="#FFF3C0"/>
<path d="M127.383 113.883H109.765C108.758 113.883 107.928 113.053 107.928 112.046V111.341C107.928 112.348 108.758 113.178 109.765 113.178H127.383C128.39 113.178 129.22 112.348 129.22 111.341V112.046C129.22 113.078 128.39 113.883 127.383 113.883Z" fill="#F29E25"/>
<path d="M127.383 114.437H109.765C108.758 114.437 107.928 113.606 107.928 112.6V111.367C107.928 110.36 108.758 109.53 109.765 109.53H127.383C128.39 109.53 129.22 110.36 129.22 111.367V112.6C129.22 113.631 128.39 114.437 127.383 114.437Z" stroke="#474747" stroke-width="1.662" stroke-miterlimit="10" stroke-linecap="round" stroke-linejoin="round"/>
<path d="M130.327 109.555H112.709C111.703 109.555 110.872 108.724 110.872 107.718V106.485C110.872 105.478 111.703 104.648 112.709 104.648H130.327C131.334 104.648 132.164 105.478 132.164 106.485V107.718C132.139 108.749 131.334 109.555 130.327 109.555Z" fill="#FDB740"/>
<path opacity="0.88" d="M130.327 105.176H112.709C111.703 105.176 110.872 106.006 110.872 107.013V107.717C110.872 106.711 111.703 105.88 112.709 105.88H130.327C131.334 105.88 132.164 106.711 132.164 107.717V107.013C132.139 106.006 131.334 105.176 130.327 105.176Z" fill="#FFF3C0"/>
<path d="M130.327 109.001H112.709C111.703 109.001 110.872 108.171 110.872 107.164V106.459C110.872 107.466 111.703 108.296 112.709 108.296H130.327C131.334 108.296 132.164 107.466 132.164 106.459V107.164C132.139 108.196 131.334 109.001 130.327 109.001Z" fill="#F29E25"/>
<path d="M130.327 109.555H112.709C111.703 109.555 110.872 108.724 110.872 107.718V106.485C110.872 105.478 111.703 104.648 112.709 104.648H130.327C131.334 104.648 132.164 105.478 132.164 106.485V107.718C132.139 108.749 131.334 109.555 130.327 109.555Z" stroke="#474747" stroke-width="1.662" stroke-miterlimit="10" stroke-linecap="round" stroke-linejoin="round"/>
<path d="M127.383 104.673H109.765C108.758 104.673 107.928 103.842 107.928 102.836V101.603C107.928 100.596 108.758 99.7659 109.765 99.7659H127.383C128.39 99.7659 129.22 100.596 129.22 101.603V102.836C129.22 103.868 128.39 104.673 127.383 104.673Z" fill="#FDB740"/>
<path opacity="0.88" d="M127.383 100.32H109.765C108.758 100.32 107.928 101.15 107.928 102.157V102.861C107.928 101.855 108.758 101.024 109.765 101.024H127.383C128.39 101.024 129.22 101.855 129.22 102.861V102.157C129.22 101.125 128.39 100.32 127.383 100.32Z" fill="#FFF3C0"/>
<path d="M127.383 104.144H109.765C108.758 104.144 107.928 103.314 107.928 102.307V101.603C107.928 102.609 108.758 103.44 109.765 103.44H127.383C128.39 103.44 129.22 102.609 129.22 101.603V102.307C129.22 103.314 128.39 104.144 127.383 104.144Z" fill="#F29E25"/>
<path d="M127.383 104.673H109.765C108.758 104.673 107.928 103.842 107.928 102.836V101.603C107.928 100.596 108.758 99.7659 109.765 99.7659H127.383C128.39 99.7659 129.22 100.596 129.22 101.603V102.836C129.22 103.868 128.39 104.673 127.383 104.673Z" stroke="#474747" stroke-width="1.662" stroke-miterlimit="10" stroke-linecap="round" stroke-linejoin="round"/>
<path d="M107.45 100.999L95.4191 113.858C94.7396 114.588 93.5818 114.638 92.8268 113.933L91.9459 113.103C91.216 112.423 91.1657 111.266 91.8704 110.511L103.901 97.6521C104.58 96.9223 105.738 96.872 106.493 97.5766L107.374 98.407C108.079 99.1116 108.129 100.244 107.45 100.999Z" fill="#FDB740"/>
<path opacity="0.88" d="M104.253 98.0044L92.2229 110.863C91.5434 111.593 91.5685 112.751 92.2984 113.455L92.8269 113.933C92.0971 113.254 92.0467 112.096 92.7514 111.341L104.782 98.4825C105.461 97.7528 106.619 97.7024 107.374 98.407L106.846 97.9289C106.091 97.2243 104.933 97.2746 104.253 98.0044Z" fill="#FFF3C0"/>
<path d="M107.046 100.621L95.0154 113.48C94.3359 114.21 93.1781 114.26 92.4231 113.556L91.8945 113.078C92.6244 113.757 93.7821 113.732 94.4869 113.002L106.517 100.143C107.197 99.4135 107.172 98.256 106.442 97.5514L106.97 98.0295C107.675 98.7341 107.725 99.8917 107.046 100.621Z" fill="#F29E25"/>
<path d="M107.45 100.999L95.4191 113.858C94.7396 114.588 93.5818 114.638 92.8268 113.933L91.9459 113.103C91.216 112.423 91.1657 111.266 91.8704 110.511L103.901 97.6521C104.58 96.9223 105.738 96.872 106.493 97.5766L107.374 98.407C108.079 99.1116 108.129 100.244 107.45 100.999Z" stroke="#474747" stroke-width="1.662" stroke-miterlimit="10" stroke-linecap="round" stroke-linejoin="round"/>
</g>
</g>
<defs>
<clipPath id="clip0_480_4405">
<rect width="140" height="130" fill="white"/>
</clipPath>
<clipPath id="clip1_480_4405">
<rect width="169" height="129" fill="white" transform="translate(-20 -10)"/>
</clipPath>
</defs>
</svg>
