<svg width="39" height="39" viewBox="0 0 39 39" fill="none" xmlns="http://www.w3.org/2000/svg">
<rect width="39" height="39" rx="10" fill="#71C2E3"/>
<rect x="0.5" y="0.5" width="38" height="38" rx="9.5" stroke="white" stroke-opacity="0.15"/>
<path d="M29.2491 17.4036C28.9891 17.4036 28.7291 17.3224 28.5016 17.1436C23.0254 12.9186 15.9566 12.9186 10.4966 17.1436C9.96038 17.5499 9.19663 17.4524 8.79038 16.9324C8.38413 16.3961 8.48163 15.6324 9.00163 15.2261C15.3716 10.3024 23.6104 10.3024 29.9966 15.2261C30.5329 15.6324 30.6304 16.3961 30.2079 16.9324C29.9804 17.2411 29.6066 17.4036 29.2491 17.4036Z" fill="white"/>
<path d="M26.6494 22.4251C26.3894 22.4251 26.1294 22.3439 25.9019 22.1651C22.0019 19.1589 16.9806 19.1589 13.0806 22.1651C12.5444 22.5714 11.7806 22.4739 11.3744 21.9539C10.9681 21.4339 11.0656 20.6539 11.5856 20.2476C16.3794 16.5426 22.5869 16.5426 27.3806 20.2476C27.9169 20.6539 28.0144 21.4176 27.5919 21.9539C27.3806 22.2626 27.0231 22.4251 26.6494 22.4251Z" fill="white"/>
<path d="M23.0736 27.4463C22.8136 27.4463 22.5536 27.3651 22.3261 27.1863C20.6036 25.8538 18.3773 25.8538 16.6548 27.1863C16.1186 27.5926 15.3548 27.4951 14.9486 26.9751C14.5423 26.4388 14.6398 25.6751 15.1598 25.2688C17.7436 23.2701 21.2211 23.2701 23.8048 25.2688C24.3411 25.6751 24.4386 26.4388 24.0161 26.9751C23.8048 27.2838 23.4473 27.4463 23.0736 27.4463Z" fill="white"/>
</svg>
