<svg width="35" height="34" viewBox="0 0 35 34" fill="none" xmlns="http://www.w3.org/2000/svg">
<path d="M29.5 0L6.125 0C3.19099 0 0.8125 2.37849 0.8125 5.3125L0.8125 28.6875C0.8125 31.6215 3.19099 34 6.125 34H29.5C32.434 34 34.8125 31.6215 34.8125 28.6875V5.3125C34.8125 2.37849 32.434 0 29.5 0Z" fill="white" fill-opacity="0.1"/>
<path d="M25.8875 12.8563C25.675 12.1125 25.1438 11.5813 24.4 11.3688C23.125 11.05 17.7062 11.05 17.7062 11.05C17.7062 11.05 12.3938 11.05 11.0125 11.3688C10.2688 11.5813 9.7375 12.1125 9.525 12.8563C9.3125 14.2375 9.3125 17 9.3125 17C9.3125 17 9.3125 19.7625 9.63125 21.1438C9.84375 21.8875 10.375 22.4188 11.1187 22.6313C12.3937 22.95 17.8125 22.95 17.8125 22.95C17.8125 22.95 23.125 22.95 24.5062 22.6313C25.25 22.4188 25.7813 21.8875 25.9938 21.1438C26.3125 19.7625 26.3125 17 26.3125 17C26.3125 17 26.3125 14.2375 25.8875 12.8563ZM16.1125 19.55V14.45L20.575 17L16.1125 19.55Z" fill="white"/>
</svg>
